<svg xmlns="http://www.w3.org/2000/svg" xmlns:xlink="http://www.w3.org/1999/xlink" contentStyleType="text/css" data-diagram-type="SEQUENCE" height="911px" preserveAspectRatio="none" style="width:1470px;height:911px;background:#FFFFFF;" version="1.1" viewBox="0 0 1470 911" width="1470px" zoomAndPan="magnify"><title>6.3: Flujo de Análisis de Estrés Hídrico (Background Service)</title><defs/><g><text fill="#000000" font-family="sans-serif" font-size="14" font-weight="bold" lengthAdjust="spacing" textLength="479.1855" x="496.9431" y="27.9951">6.3: Flujo de Análisis de Estrés Hídrico (Background Service)</text><g><title>WaterStressAnalysisService</title><rect fill="#FFFFFF" height="697.9219" style="stroke:#181818;stroke-width:1;" width="10" x="233.2246" y="145.1563"/></g><g><title>DbContext</title><rect fill="#FFFFFF" height="29.1328" style="stroke:#181818;stroke-width:1;" width="10" x="556.8955" y="174.2891"/></g><g><title>DbContext</title><rect fill="#FFFFFF" height="29.1328" style="stroke:#181818;stroke-width:1;" width="10" x="556.8955" y="322.9531"/></g><g><title>DbContext</title><rect fill="#FFFFFF" height="29.1328" style="stroke:#181818;stroke-width:1;" width="10" x="556.8955" y="595.1484"/></g><g><title>IAnalysisExecutionService</title><rect fill="#FFFFFF" height="160.6641" style="stroke:#181818;stroke-width:1;" width="10" x="709.6162" y="381.2188"/></g><g><title>IConditionPredictor</title><rect fill="#FFFFFF" height="29.1328" style="stroke:#181818;stroke-width:1;" width="10" x="1003.7686" y="410.3516"/></g><g><title>IAlertTriggerService</title><rect fill="#FFFFFF" height="87.3984" style="stroke:#181818;stroke-width:1;" width="10" x="1164.5522" y="719.6797"/></g><g><title>IAlertService</title><rect fill="#FFFFFF" height="29.1328" style="stroke:#181818;stroke-width:1;" width="10" x="1357.4741" y="748.8125"/></g><rect fill="none" height="736.1875" style="stroke:#000000;stroke-width:1.5;" width="1454.0718" x="10" y="106.8906"/><rect fill="none" height="617.6563" style="stroke:#000000;stroke-width:1.5;" width="1360.3652" x="93.7065" y="218.4219"/><rect fill="none" height="544.3906" style="stroke:#000000;stroke-width:1.5;" width="1340.3652" x="103.7065" y="284.6875"/><rect fill="none" height="59.2656" style="stroke:#000000;stroke-width:1.5;" width="402.4941" x="606.2744" y="454.4844"/><rect fill="none" height="265.1953" style="stroke:#000000;stroke-width:1.5;" width="1320.3652" x="113.7065" y="556.8828"/><rect fill="none" height="133.6641" style="stroke:#000000;stroke-width:1.5;" width="1300.3652" x="123.7065" y="681.4141"/><g><title>Timer</title><rect fill="#000000" fill-opacity="0.00000" height="770.1875" width="8" x="43.2241" y="89.8906"/><line style="stroke:#181818;stroke-width:0.5;stroke-dasharray:5,5;" x1="47" x2="47" y1="89.8906" y2="860.0781"/></g><g><title>WaterStressAnalysisService</title><rect fill="#000000" fill-opacity="0.00000" height="770.1875" width="8" x="234.2246" y="89.8906"/><line style="stroke:#181818;stroke-width:0.5;stroke-dasharray:5,5;" x1="237.7065" x2="237.7065" y1="89.8906" y2="860.0781"/></g><g><title>DbContext</title><rect fill="#000000" fill-opacity="0.00000" height="770.1875" width="8" x="557.8955" y="89.8906"/><line style="stroke:#181818;stroke-width:0.5;stroke-dasharray:5,5;" x1="561.5166" x2="561.5166" y1="89.8906" y2="860.0781"/></g><g><title>IAnalysisExecutionService</title><rect fill="#000000" fill-opacity="0.00000" height="770.1875" width="8" x="710.6162" y="89.8906"/><line style="stroke:#181818;stroke-width:0.5;stroke-dasharray:5,5;" x1="714.2744" x2="714.2744" y1="89.8906" y2="860.0781"/></g><g><title>IConditionPredictor</title><rect fill="#000000" fill-opacity="0.00000" height="770.1875" width="8" x="1004.7686" y="89.8906"/><line style="stroke:#181818;stroke-width:0.5;stroke-dasharray:5,5;" x1="1008.7524" x2="1008.7524" y1="89.8906" y2="860.0781"/></g><g><title>IAlertTriggerService</title><rect fill="#000000" fill-opacity="0.00000" height="770.1875" width="8" x="1165.5522" y="89.8906"/><line style="stroke:#181818;stroke-width:0.5;stroke-dasharray:5,5;" x1="1168.7847" x2="1168.7847" y1="89.8906" y2="860.0781"/></g><g><title>IAlertService</title><rect fill="#000000" fill-opacity="0.00000" height="770.1875" width="8" x="1358.4741" y="89.8906"/><line style="stroke:#181818;stroke-width:0.5;stroke-dasharray:5,5;" x1="1361.8765" x2="1361.8765" y1="89.8906" y2="860.0781"/></g><g class="participant participant-head" data-participant="Timer"><rect fill="#E2E2F0" height="30.2969" rx="2.5" ry="2.5" style="stroke:#181818;stroke-width:0.5;" width="54.4482" x="20" y="58.5938"/><text fill="#000000" font-family="sans-serif" font-size="14" lengthAdjust="spacing" textLength="40.4482" x="27" y="78.5889">Timer</text></g><g class="participant participant-tail" data-participant="Timer"><rect fill="#E2E2F0" height="30.2969" rx="2.5" ry="2.5" style="stroke:#181818;stroke-width:0.5;" width="54.4482" x="20" y="859.0781"/><text fill="#000000" font-family="sans-serif" font-size="14" lengthAdjust="spacing" textLength="40.4482" x="27" y="879.0732">Timer</text></g><g class="participant participant-head" data-participant="WStressSvc"><rect fill="#E2E2F0" height="30.2969" rx="2.5" ry="2.5" style="stroke:#181818;stroke-width:0.5;" width="209.0361" x="133.7065" y="58.5938"/><text fill="#000000" font-family="sans-serif" font-size="14" lengthAdjust="spacing" textLength="195.0361" x="140.7065" y="78.5889">WaterStressAnalysisService</text></g><g class="participant participant-tail" data-participant="WStressSvc"><rect fill="#E2E2F0" height="30.2969" rx="2.5" ry="2.5" style="stroke:#181818;stroke-width:0.5;" width="209.0361" x="133.7065" y="859.0781"/><text fill="#000000" font-family="sans-serif" font-size="14" lengthAdjust="spacing" textLength="195.0361" x="140.7065" y="879.0732">WaterStressAnalysisService</text></g><g class="participant participant-head" data-participant="DB"><rect fill="#E2E2F0" height="30.2969" rx="2.5" ry="2.5" style="stroke:#181818;stroke-width:0.5;" width="88.7578" x="517.5166" y="58.5938"/><text fill="#000000" font-family="sans-serif" font-size="14" lengthAdjust="spacing" textLength="74.7578" x="524.5166" y="78.5889">DbContext</text></g><g class="participant participant-tail" data-participant="DB"><rect fill="#E2E2F0" height="30.2969" rx="2.5" ry="2.5" style="stroke:#181818;stroke-width:0.5;" width="88.7578" x="517.5166" y="859.0781"/><text fill="#000000" font-family="sans-serif" font-size="14" lengthAdjust="spacing" textLength="74.7578" x="524.5166" y="879.0732">DbContext</text></g><g class="participant participant-head" data-participant="AnalysisExecSvc"><rect fill="#E2E2F0" height="30.2969" rx="2.5" ry="2.5" style="stroke:#181818;stroke-width:0.5;" width="196.6836" x="616.2744" y="58.5938"/><text fill="#000000" font-family="sans-serif" font-size="14" lengthAdjust="spacing" textLength="182.6836" x="623.2744" y="78.5889">IAnalysisExecutionService</text></g><g class="participant participant-tail" data-participant="AnalysisExecSvc"><rect fill="#E2E2F0" height="30.2969" rx="2.5" ry="2.5" style="stroke:#181818;stroke-width:0.5;" width="196.6836" x="616.2744" y="859.0781"/><text fill="#000000" font-family="sans-serif" font-size="14" lengthAdjust="spacing" textLength="182.6836" x="623.2744" y="879.0732">IAnalysisExecutionService</text></g><g class="participant participant-head" data-participant="Predictor"><rect fill="#E2E2F0" height="46.5938" rx="2.5" ry="2.5" style="stroke:#181818;stroke-width:0.5;" width="148.0322" x="934.7524" y="42.2969"/><text fill="#000000" font-family="sans-serif" font-size="14" lengthAdjust="spacing" textLength="134.0322" x="941.7524" y="62.292">IConditionPredictor</text><text fill="#000000" font-family="sans-serif" font-size="14" lengthAdjust="spacing" textLength="107.5293" x="955.0039" y="78.5889">(Modelo ONNX)</text></g><g class="participant participant-tail" data-participant="Predictor"><rect fill="#E2E2F0" height="46.5938" rx="2.5" ry="2.5" style="stroke:#181818;stroke-width:0.5;" width="148.0322" x="934.7524" y="859.0781"/><text fill="#000000" font-family="sans-serif" font-size="14" lengthAdjust="spacing" textLength="134.0322" x="941.7524" y="879.0732">IConditionPredictor</text><text fill="#000000" font-family="sans-serif" font-size="14" lengthAdjust="spacing" textLength="107.5293" x="955.0039" y="895.3701">(Modelo ONNX)</text></g><g class="participant participant-head" data-participant="AlertTrigger"><rect fill="#E2E2F0" height="30.2969" rx="2.5" ry="2.5" style="stroke:#181818;stroke-width:0.5;" width="153.5352" x="1092.7847" y="58.5938"/><text fill="#000000" font-family="sans-serif" font-size="14" lengthAdjust="spacing" textLength="139.5352" x="1099.7847" y="78.5889">IAlertTriggerService</text></g><g class="participant participant-tail" data-participant="AlertTrigger"><rect fill="#E2E2F0" height="30.2969" rx="2.5" ry="2.5" style="stroke:#181818;stroke-width:0.5;" width="153.5352" x="1092.7847" y="859.0781"/><text fill="#000000" font-family="sans-serif" font-size="14" lengthAdjust="spacing" textLength="139.5352" x="1099.7847" y="879.0732">IAlertTriggerService</text></g><g class="participant participant-head" data-participant="AlertSvc"><rect fill="#E2E2F0" height="30.2969" rx="2.5" ry="2.5" style="stroke:#181818;stroke-width:0.5;" width="103.1953" x="1310.8765" y="58.5938"/><text fill="#000000" font-family="sans-serif" font-size="14" lengthAdjust="spacing" textLength="89.1953" x="1317.8765" y="78.5889">IAlertService</text></g><g class="participant participant-tail" data-participant="AlertSvc"><rect fill="#E2E2F0" height="30.2969" rx="2.5" ry="2.5" style="stroke:#181818;stroke-width:0.5;" width="103.1953" x="1310.8765" y="859.0781"/><text fill="#000000" font-family="sans-serif" font-size="14" lengthAdjust="spacing" textLength="89.1953" x="1317.8765" y="879.0732">IAlertService</text></g><g><title>WaterStressAnalysisService</title><rect fill="#FFFFFF" height="697.9219" style="stroke:#181818;stroke-width:1;" width="10" x="233.2246" y="145.1563"/></g><g><title>DbContext</title><rect fill="#FFFFFF" height="29.1328" style="stroke:#181818;stroke-width:1;" width="10" x="556.8955" y="174.2891"/></g><g><title>DbContext</title><rect fill="#FFFFFF" height="29.1328" style="stroke:#181818;stroke-width:1;" width="10" x="556.8955" y="322.9531"/></g><g><title>DbContext</title><rect fill="#FFFFFF" height="29.1328" style="stroke:#181818;stroke-width:1;" width="10" x="556.8955" y="595.1484"/></g><g><title>IAnalysisExecutionService</title><rect fill="#FFFFFF" height="160.6641" style="stroke:#181818;stroke-width:1;" width="10" x="709.6162" y="381.2188"/></g><g><title>IConditionPredictor</title><rect fill="#FFFFFF" height="29.1328" style="stroke:#181818;stroke-width:1;" width="10" x="1003.7686" y="410.3516"/></g><g><title>IAlertTriggerService</title><rect fill="#FFFFFF" height="87.3984" style="stroke:#181818;stroke-width:1;" width="10" x="1164.5522" y="719.6797"/></g><g><title>IAlertService</title><rect fill="#FFFFFF" height="29.1328" style="stroke:#181818;stroke-width:1;" width="10" x="1357.4741" y="748.8125"/></g><path d="M10,106.8906 L86.624,106.8906 L86.624,114.0234 L76.624,124.0234 L10,124.0234 L10,106.8906" fill="#EEEEEE" style="stroke:#000000;stroke-width:1.5;"/><rect fill="none" height="736.1875" style="stroke:#000000;stroke-width:1.5;" width="1454.0718" x="10" y="106.8906"/><text fill="#000000" font-family="sans-serif" font-size="13" font-weight="bold" lengthAdjust="spacing" textLength="31.624" x="25" y="119.9575">loop</text><text fill="#000000" font-family="sans-serif" font-size="11" font-weight="bold" lengthAdjust="spacing" textLength="114.0713" x="101.624" y="119.1011">[Cada 15 minutos]</text><g class="message" data-participant-1="Timer" data-participant-2="WStressSvc"><polygon fill="#181818" points="221.2246,141.1563,231.2246,145.1563,221.2246,149.1563,225.2246,145.1563" style="stroke:#181818;stroke-width:1;"/><line style="stroke:#181818;stroke-width:1;" x1="47.2241" x2="227.2246" y1="145.1563" y2="145.1563"/><text fill="#000000" font-family="sans-serif" font-size="13" lengthAdjust="spacing" textLength="167.0005" x="54.2241" y="140.0903">Se activa el temporizador</text></g><g class="message" data-participant-1="WStressSvc" data-participant-2="DB"><polygon fill="#181818" points="544.8955,170.2891,554.8955,174.2891,544.8955,178.2891,548.8955,174.2891" style="stroke:#181818;stroke-width:1;"/><line style="stroke:#181818;stroke-width:1;" x1="243.2246" x2="550.8955" y1="174.2891" y2="174.2891"/><text fill="#000000" font-family="sans-serif" font-size="13" lengthAdjust="spacing" textLength="166.4673" x="250.2246" y="169.2231">Consultar todos los Crops</text></g><g class="message" data-participant-1="DB" data-participant-2="WStressSvc"><polygon fill="#181818" points="254.2246,199.4219,244.2246,203.4219,254.2246,207.4219,250.2246,203.4219" style="stroke:#181818;stroke-width:1;"/><line style="stroke:#181818;stroke-width:1;stroke-dasharray:2,2;" x1="248.2246" x2="560.8955" y1="203.4219" y2="203.4219"/><text fill="#000000" font-family="sans-serif" font-size="13" lengthAdjust="spacing" textLength="92.606" x="260.2246" y="198.356">Lista de Crops</text></g><path d="M93.7065,218.4219 L170.3306,218.4219 L170.3306,225.5547 L160.3306,235.5547 L93.7065,235.5547 L93.7065,218.4219" fill="#EEEEEE" style="stroke:#000000;stroke-width:1.5;"/><rect fill="none" height="617.6563" style="stroke:#000000;stroke-width:1.5;" width="1360.3652" x="93.7065" y="218.4219"/><text fill="#000000" font-family="sans-serif" font-size="13" font-weight="bold" lengthAdjust="spacing" textLength="31.624" x="108.7065" y="231.4888">loop</text><text fill="#000000" font-family="sans-serif" font-size="11" font-weight="bold" lengthAdjust="spacing" textLength="104.0273" x="185.3306" y="230.6323">[para cada Crop]</text><g class="message" data-participant-1="WStressSvc" data-participant-2="WStressSvc"><line style="stroke:#181818;stroke-width:1;" x1="243.2246" x2="285.2246" y1="256.6875" y2="256.6875"/><line style="stroke:#181818;stroke-width:1;" x1="285.2246" x2="285.2246" y1="256.6875" y2="269.6875"/><line style="stroke:#181818;stroke-width:1;" x1="244.2246" x2="285.2246" y1="269.6875" y2="269.6875"/><polygon fill="#181818" points="254.2246,265.6875,244.2246,269.6875,254.2246,273.6875,250.2246,269.6875" style="stroke:#181818;stroke-width:1;"/><text fill="#000000" font-family="sans-serif" font-size="13" lengthAdjust="spacing" textLength="258.8892" x="250.2246" y="251.6216">¿Está en la ventana de análisis horaria?</text></g><path d="M103.7065,284.6875 L168.1494,284.6875 L168.1494,291.8203 L158.1494,301.8203 L103.7065,301.8203 L103.7065,284.6875" fill="#EEEEEE" style="stroke:#000000;stroke-width:1.5;"/><rect fill="none" height="544.3906" style="stroke:#000000;stroke-width:1.5;" width="1340.3652" x="103.7065" y="284.6875"/><text fill="#000000" font-family="sans-serif" font-size="13" font-weight="bold" lengthAdjust="spacing" textLength="19.4429" x="118.7065" y="297.7544">alt</text><text fill="#000000" font-family="sans-serif" font-size="11" font-weight="bold" lengthAdjust="spacing" textLength="144.8154" x="183.1494" y="296.8979">[Sí, está en la ventana]</text><g class="message" data-participant-1="WStressSvc" data-participant-2="DB"><polygon fill="#181818" points="544.8955,318.9531,554.8955,322.9531,544.8955,326.9531,548.8955,322.9531" style="stroke:#181818;stroke-width:1;"/><line style="stroke:#181818;stroke-width:1;" x1="243.2246" x2="550.8955" y1="322.9531" y2="322.9531"/><text fill="#000000" font-family="sans-serif" font-size="13" lengthAdjust="spacing" textLength="294.6709" x="250.2246" y="317.8872">Obtener datos recientes (sensores, térmicas)</text></g><g class="message" data-participant-1="DB" data-participant-2="WStressSvc"><polygon fill="#181818" points="254.2246,348.0859,244.2246,352.0859,254.2246,356.0859,250.2246,352.0859" style="stroke:#181818;stroke-width:1;"/><line style="stroke:#181818;stroke-width:1;stroke-dasharray:2,2;" x1="248.2246" x2="560.8955" y1="352.0859" y2="352.0859"/><text fill="#000000" font-family="sans-serif" font-size="13" lengthAdjust="spacing" textLength="85.6426" x="260.2246" y="347.02">Datos crudos</text></g><g class="message" data-participant-1="WStressSvc" data-participant-2="AnalysisExecSvc"><polygon fill="#181818" points="697.6162,377.2188,707.6162,381.2188,697.6162,385.2188,701.6162,381.2188" style="stroke:#181818;stroke-width:1;"/><line style="stroke:#181818;stroke-width:1;" x1="243.2246" x2="703.6162" y1="381.2188" y2="381.2188"/><text fill="#000000" font-family="sans-serif" font-size="13" lengthAdjust="spacing" textLength="175.7412" x="250.2246" y="376.1528">CalculateCwsiAsync(datos)</text></g><g class="message" data-participant-1="AnalysisExecSvc" data-participant-2="Predictor"><polygon fill="#181818" points="991.7686,406.3516,1001.7686,410.3516,991.7686,414.3516,995.7686,410.3516" style="stroke:#181818;stroke-width:1;"/><line style="stroke:#181818;stroke-width:1;" x1="719.6162" x2="997.7686" y1="410.3516" y2="410.3516"/><text fill="#000000" font-family="sans-serif" font-size="13" lengthAdjust="spacing" textLength="167.3496" x="726.6162" y="405.2856">¿Condiciones adecuadas?</text></g><g class="message" data-participant-1="Predictor" data-participant-2="AnalysisExecSvc"><polygon fill="#181818" points="730.6162,435.4844,720.6162,439.4844,730.6162,443.4844,726.6162,439.4844" style="stroke:#181818;stroke-width:1;"/><line style="stroke:#181818;stroke-width:1;stroke-dasharray:2,2;" x1="724.6162" x2="1007.7686" y1="439.4844" y2="439.4844"/><text fill="#000000" font-family="sans-serif" font-size="13" lengthAdjust="spacing" textLength="112.6074" x="736.6162" y="434.4185">bool (adecuadas)</text></g><path d="M606.2744,454.4844 L675.7256,454.4844 L675.7256,461.6172 L665.7256,471.6172 L606.2744,471.6172 L606.2744,454.4844" fill="#EEEEEE" style="stroke:#000000;stroke-width:1.5;"/><rect fill="none" height="59.2656" style="stroke:#000000;stroke-width:1.5;" width="402.4941" x="606.2744" y="454.4844"/><text fill="#000000" font-family="sans-serif" font-size="13" font-weight="bold" lengthAdjust="spacing" textLength="24.4512" x="621.2744" y="467.5513">opt</text><text fill="#000000" font-family="sans-serif" font-size="11" font-weight="bold" lengthAdjust="spacing" textLength="216.3584" x="690.7256" y="466.6948">[Si las condiciones son adecuadas]</text><g class="message" data-participant-1="AnalysisExecSvc" data-participant-2="AnalysisExecSvc"><line style="stroke:#181818;stroke-width:1;" x1="719.6162" x2="761.6162" y1="492.75" y2="492.75"/><line style="stroke:#181818;stroke-width:1;" x1="761.6162" x2="761.6162" y1="492.75" y2="505.75"/><line style="stroke:#181818;stroke-width:1;" x1="720.6162" x2="761.6162" y1="505.75" y2="505.75"/><polygon fill="#181818" points="730.6162,501.75,720.6162,505.75,730.6162,509.75,726.6162,505.75" style="stroke:#181818;stroke-width:1;"/><text fill="#000000" font-family="sans-serif" font-size="13" lengthAdjust="spacing" textLength="260.1523" x="726.6162" y="487.6841">Realizar cálculos matemáticos del CWSI</text></g><g class="message" data-participant-1="AnalysisExecSvc" data-participant-2="WStressSvc"><polygon fill="#181818" points="254.2246,537.8828,244.2246,541.8828,254.2246,545.8828,250.2246,541.8828" style="stroke:#181818;stroke-width:1;"/><line style="stroke:#181818;stroke-width:1;stroke-dasharray:2,2;" x1="248.2246" x2="713.6162" y1="541.8828" y2="541.8828"/><text fill="#000000" font-family="sans-serif" font-size="13" lengthAdjust="spacing" textLength="188.792" x="260.2246" y="536.8169">Resultado del cálculo (o null)</text></g><path d="M113.7065,556.8828 L183.1577,556.8828 L183.1577,564.0156 L173.1577,574.0156 L113.7065,574.0156 L113.7065,556.8828" fill="#EEEEEE" style="stroke:#000000;stroke-width:1.5;"/><rect fill="none" height="265.1953" style="stroke:#000000;stroke-width:1.5;" width="1320.3652" x="113.7065" y="556.8828"/><text fill="#000000" font-family="sans-serif" font-size="13" font-weight="bold" lengthAdjust="spacing" textLength="24.4512" x="128.7065" y="569.9497">opt</text><text fill="#000000" font-family="sans-serif" font-size="11" font-weight="bold" lengthAdjust="spacing" textLength="157.0132" x="198.1577" y="569.0933">[Si el cálculo fue exitoso]</text><g class="message" data-participant-1="WStressSvc" data-participant-2="DB"><polygon fill="#181818" points="544.8955,591.1484,554.8955,595.1484,544.8955,599.1484,548.8955,595.1484" style="stroke:#181818;stroke-width:1;"/><line style="stroke:#181818;stroke-width:1;" x1="243.2246" x2="550.8955" y1="595.1484" y2="595.1484"/><text fill="#000000" font-family="sans-serif" font-size="13" lengthAdjust="spacing" textLength="151.6328" x="250.2246" y="590.0825">Guardar AnalysisResult</text></g><g class="message" data-participant-1="DB" data-participant-2="WStressSvc"><polygon fill="#181818" points="254.2246,620.2813,244.2246,624.2813,254.2246,628.2813,250.2246,624.2813" style="stroke:#181818;stroke-width:1;"/><line style="stroke:#181818;stroke-width:1;stroke-dasharray:2,2;" x1="248.2246" x2="560.8955" y1="624.2813" y2="624.2813"/><text fill="#000000" font-family="sans-serif" font-size="13" lengthAdjust="spacing" textLength="86.3853" x="260.2246" y="619.2153">Confirmación</text></g><g class="message" data-participant-1="WStressSvc" data-participant-2="WStressSvc"><line style="stroke:#181818;stroke-width:1;" x1="243.2246" x2="285.2246" y1="653.4141" y2="653.4141"/><line style="stroke:#181818;stroke-width:1;" x1="285.2246" x2="285.2246" y1="653.4141" y2="666.4141"/><line style="stroke:#181818;stroke-width:1;" x1="244.2246" x2="285.2246" y1="666.4141" y2="666.4141"/><polygon fill="#181818" points="254.2246,662.4141,244.2246,666.4141,254.2246,670.4141,250.2246,666.4141" style="stroke:#181818;stroke-width:1;"/><text fill="#000000" font-family="sans-serif" font-size="13" lengthAdjust="spacing" textLength="255.8994" x="250.2246" y="648.3481">Comparar nuevo estado con el anterior</text></g><path d="M123.7065,681.4141 L193.1577,681.4141 L193.1577,688.5469 L183.1577,698.5469 L123.7065,698.5469 L123.7065,681.4141" fill="#EEEEEE" style="stroke:#000000;stroke-width:1.5;"/><rect fill="none" height="133.6641" style="stroke:#000000;stroke-width:1.5;" width="1300.3652" x="123.7065" y="681.4141"/><text fill="#000000" font-family="sans-serif" font-size="13" font-weight="bold" lengthAdjust="spacing" textLength="24.4512" x="138.7065" y="694.481">opt</text><text fill="#000000" font-family="sans-serif" font-size="11" font-weight="bold" lengthAdjust="spacing" textLength="131.1943" x="208.1577" y="693.6245">[Si el estado cambió]</text><g class="message" data-participant-1="WStressSvc" data-participant-2="AlertTrigger"><polygon fill="#181818" points="1152.5522,715.6797,1162.5522,719.6797,1152.5522,723.6797,1156.5522,719.6797" style="stroke:#181818;stroke-width:1;"/><line style="stroke:#181818;stroke-width:1;" x1="243.2246" x2="1158.5522" y1="719.6797" y2="719.6797"/><text fill="#000000" font-family="sans-serif" font-size="13" lengthAdjust="spacing" textLength="133.3516" x="250.2246" y="714.6138">TriggerAlertsAsync()</text></g><g class="message" data-participant-1="AlertTrigger" data-participant-2="AlertSvc"><polygon fill="#181818" points="1345.4741,744.8125,1355.4741,748.8125,1345.4741,752.8125,1349.4741,748.8125" style="stroke:#181818;stroke-width:1;"/><line style="stroke:#181818;stroke-width:1;" x1="1174.5522" x2="1351.4741" y1="748.8125" y2="748.8125"/><text fill="#000000" font-family="sans-serif" font-size="13" lengthAdjust="spacing" textLength="163.9219" x="1181.5522" y="743.7466">EnviarNotificacionEmail()</text></g><g class="message" data-participant-1="AlertSvc" data-participant-2="AlertTrigger"><polygon fill="#181818" points="1185.5522,773.9453,1175.5522,777.9453,1185.5522,781.9453,1181.5522,777.9453" style="stroke:#181818;stroke-width:1;"/><line style="stroke:#181818;stroke-width:1;stroke-dasharray:2,2;" x1="1179.5522" x2="1361.4741" y1="777.9453" y2="777.9453"/><text fill="#000000" font-family="sans-serif" font-size="13" lengthAdjust="spacing" textLength="27.5107" x="1191.5522" y="772.8794">void</text></g><g class="message" data-participant-1="AlertTrigger" data-participant-2="WStressSvc"><polygon fill="#181818" points="254.2246,803.0781,244.2246,807.0781,254.2246,811.0781,250.2246,807.0781" style="stroke:#181818;stroke-width:1;"/><line style="stroke:#181818;stroke-width:1;stroke-dasharray:2,2;" x1="248.2246" x2="1168.5522" y1="807.0781" y2="807.0781"/><text fill="#000000" font-family="sans-serif" font-size="13" lengthAdjust="spacing" textLength="27.5107" x="260.2246" y="802.0122">void</text></g><!--SRC=[ZLNDRXCn4BxdAKOz9LABX10SSg3A7r09MjHKAWSk4zij1gyTsTwbvMrwxA4d7W29VJ76JdVZ_IjTgStQC_FDpETll5vw9U3DYrTJUAVoxmQuW9akxvHqqeN5odbRtZluK3vmAvc1yHpPZsjhSirXBMmXcPYCHbkqNZAvHUtXu49cmXu0EeXlJUCbUc7NtWhdPXhLBULvX8aHbplJkc3DiELcORGNDpvwBUTDwqa5jReHBFVIw1GpDNQ0JmYNon3osGekcJVsgnv_Cbme0sUdfryc4QCsjXChOVs5bTVNr5MQCzdl2-duXi96ofWjB90Zl7mDcTIvDsu4z4GYuUXjmi-Kw0TaNXO8Ge4NsTPO-GivrHX2TYOlKah3_duPy9RpAH03BbSUBNZ3ZGD5Vmjhjgw9GwI7zN8EHwr2FahdCQXb7yL5Eox-YmqI7GWiT1dyutwti1J_xn-IONa7GeD2A8Jsg6C-hANwpLYq4ezhD5GUrkN38OXkQEtKpyVPnWjDT7Ca-i4A9YbCE1WxePqXvqFmvRtD94CtQM2rUwwU7iwM4PpPd3yUSVLqcQkU9yfkIPpE51NB5O4iVZevSxUQZMCx0_MsHoHrQjb2kdeQmjd40M8qG4GHSfe_Ebbtt9zdFqQfkTwDB7LwsHYZO5n3JuRewWTlBCoML2592aHzKhOpUbzw8s20W4wDvm8L3Py5HeeavkbiCwefA-zeyasuIXKiBjSd3N2X-N2fdQmj0PsBEBJSHEmgBOmDw5ofGPAUEka-gbBigro0k94a8zCXgJj6xtEqd1YfCkuAxWGEgNrWRaXjLz9co6JvMtS2XeVdwHjcOR9mArdYJXGct1c1M998w9-kRM5bIrPDYge0p3PKLyUnPs2JxyCK7b_YfjjDwwGNP7-CwVUbppDrg1F6NbUwa6XFZPTNT8E52LXbADMpChOLqyXMgRJPMs4axur9HVbVxBgJri4z6ts8g_OCfklglVfDC9EFAbd_0G00]--></g></svg>