<svg xmlns="http://www.w3.org/2000/svg" xmlns:xlink="http://www.w3.org/1999/xlink" contentStyleType="text/css" data-diagram-type="CLASS" height="494px" preserveAspectRatio="none" style="width:545px;height:494px;background:#FFFFFF;" version="1.1" viewBox="0 0 545 494" width="545px" zoomAndPan="magnify"><defs/><g><!--class IdentityUser--><g class="entity" data-entity="IdentityUser" data-source-line="3" data-uid="ent0002" id="entity_IdentityUser"><rect fill="#F1F1F1" height="48" rx="2.5" ry="2.5" style="stroke:#181818;stroke-width:0.5;" width="137.21" x="193.95" y="10"/><ellipse cx="208.95" cy="26" fill="#A9DCDF" rx="11" ry="11" style="stroke:#181818;stroke-width:1;"/><path d="M209.0594,21.3438 L207.9031,26.4219 L210.2313,26.4219 L209.0594,21.3438 Z M207.575,19.1094 L210.5594,19.1094 L213.9188,31.5 L211.4656,31.5 L210.7,28.4375 L207.4188,28.4375 L206.6688,31.5 L204.2313,31.5 L207.575,19.1094 Z " fill="#000000"/><text fill="#000000" font-family="sans-serif" font-size="14" font-style="italic" lengthAdjust="spacing" textLength="85.5654" x="222.95" y="30.8467">IdentityUser</text><rect fill="#FFFFFF" height="15.9688" style="stroke:#181818;stroke-width:1;stroke-dasharray:2,2;" width="17.6445" x="316.5154" y="7"/><text fill="#000000" font-family="sans-serif" font-size="12" font-style="italic" lengthAdjust="spacing" textLength="15.6445" x="317.5154" y="19.1387">int</text><line style="stroke:#181818;stroke-width:0.5;" x1="194.95" x2="330.16" y1="42" y2="42"/><line style="stroke:#181818;stroke-width:0.5;" x1="194.95" x2="330.16" y1="50" y2="50"/></g><!--class IdentityRole--><g class="entity" data-entity="IdentityRole" data-source-line="4" data-uid="ent0003" id="entity_IdentityRole"><rect fill="#F1F1F1" height="48" rx="2.5" ry="2.5" style="stroke:#181818;stroke-width:0.5;" width="136.0957" x="398.51" y="10"/><ellipse cx="413.51" cy="26" fill="#A9DCDF" rx="11" ry="11" style="stroke:#181818;stroke-width:1;"/><path d="M413.6194,21.3438 L412.4631,26.4219 L414.7913,26.4219 L413.6194,21.3438 Z M412.135,19.1094 L415.1194,19.1094 L418.4788,31.5 L416.0256,31.5 L415.26,28.4375 L411.9788,28.4375 L411.2288,31.5 L408.7913,31.5 L412.135,19.1094 Z " fill="#000000"/><text fill="#000000" font-family="sans-serif" font-size="14" font-style="italic" lengthAdjust="spacing" textLength="84.4512" x="427.51" y="30.8467">IdentityRole</text><rect fill="#FFFFFF" height="15.9688" style="stroke:#181818;stroke-width:1;stroke-dasharray:2,2;" width="17.6445" x="519.9612" y="7"/><text fill="#000000" font-family="sans-serif" font-size="12" font-style="italic" lengthAdjust="spacing" textLength="15.6445" x="520.9612" y="19.1387">int</text><line style="stroke:#181818;stroke-width:0.5;" x1="399.51" x2="533.6057" y1="42" y2="42"/><line style="stroke:#181818;stroke-width:0.5;" x1="399.51" x2="533.6057" y1="50" y2="50"/></g><!--class User--><g class="entity" data-entity="User" data-source-line="7" data-uid="ent0004" id="entity_User"><rect fill="#F1F1F1" height="129.4844" rx="2.5" ry="2.5" style="stroke:#181818;stroke-width:0.5;" width="197.4453" x="163.84" y="119"/><ellipse cx="242.3576" cy="135" fill="#ADD1B2" rx="11" ry="11" style="stroke:#181818;stroke-width:1;"/><path d="M245.3263,140.6406 Q244.7482,140.9375 244.1076,141.0781 Q243.467,141.2344 242.7638,141.2344 Q240.2638,141.2344 238.9357,139.5938 Q237.6232,137.9375 237.6232,134.8125 Q237.6232,131.6875 238.9357,130.0313 Q240.2638,128.375 242.7638,128.375 Q243.467,128.375 244.1076,128.5313 Q244.7638,128.6875 245.3263,128.9844 L245.3263,131.7031 Q244.7013,131.125 244.1076,130.8594 Q243.5138,130.5781 242.8888,130.5781 Q241.5451,130.5781 240.8576,131.6563 Q240.1701,132.7188 240.1701,134.8125 Q240.1701,136.9063 240.8576,137.9844 Q241.5451,139.0469 242.8888,139.0469 Q243.5138,139.0469 244.1076,138.7813 Q244.7013,138.5 245.3263,137.9219 L245.3263,140.6406 Z " fill="#000000"/><text fill="#000000" font-family="sans-serif" font-size="14" lengthAdjust="spacing" textLength="31.9102" x="262.8576" y="139.8467">User</text><line style="stroke:#181818;stroke-width:0.5;" x1="164.84" x2="360.2853" y1="151" y2="151"/><ellipse cx="174.84" cy="164.6484" fill="none" rx="3" ry="3" style="stroke:#038048;stroke-width:1;"/><text fill="#000000" font-family="sans-serif" font-size="14" lengthAdjust="spacing" textLength="125.5898" x="183.84" y="167.9951">FirstName : string</text><ellipse cx="174.84" cy="180.9453" fill="none" rx="3" ry="3" style="stroke:#038048;stroke-width:1;"/><text fill="#000000" font-family="sans-serif" font-size="14" lengthAdjust="spacing" textLength="124.2705" x="183.84" y="184.292">LastName : string</text><ellipse cx="174.84" cy="197.2422" fill="none" rx="3" ry="3" style="stroke:#038048;stroke-width:1;"/><text fill="#000000" font-family="sans-serif" font-size="14" lengthAdjust="spacing" textLength="152.5508" x="183.84" y="200.5889">CreatedAt : DateTime</text><ellipse cx="174.84" cy="213.5391" fill="none" rx="3" ry="3" style="stroke:#038048;stroke-width:1;"/><text fill="#000000" font-family="sans-serif" font-size="14" lengthAdjust="spacing" textLength="156.4268" x="183.84" y="216.8857">UpdatedAt : DateTime</text><ellipse cx="174.84" cy="229.8359" fill="none" rx="3" ry="3" style="stroke:#038048;stroke-width:1;"/><text fill="#000000" font-family="sans-serif" font-size="14" lengthAdjust="spacing" textLength="171.4453" x="183.84" y="233.1826">LastLoginAt : DateTime?</text><line style="stroke:#181818;stroke-width:0.5;" x1="164.84" x2="360.2853" y1="240.4844" y2="240.4844"/></g><!--class ApplicationRole--><g class="entity" data-entity="ApplicationRole" data-source-line="20" data-uid="ent0005" id="entity_ApplicationRole"><rect fill="#F1F1F1" height="48" rx="2.5" ry="2.5" style="stroke:#181818;stroke-width:0.5;" width="141.0195" x="396.05" y="159.74"/><ellipse cx="411.05" cy="175.74" fill="#ADD1B2" rx="11" ry="11" style="stroke:#181818;stroke-width:1;"/><path d="M414.0188,181.3806 Q413.4406,181.6775 412.8,181.8181 Q412.1594,181.9744 411.4563,181.9744 Q408.9563,181.9744 407.6281,180.3338 Q406.3156,178.6775 406.3156,175.5525 Q406.3156,172.4275 407.6281,170.7713 Q408.9563,169.115 411.4563,169.115 Q412.1594,169.115 412.8,169.2713 Q413.4563,169.4275 414.0188,169.7244 L414.0188,172.4431 Q413.3938,171.865 412.8,171.5994 Q412.2063,171.3181 411.5813,171.3181 Q410.2375,171.3181 409.55,172.3963 Q408.8625,173.4588 408.8625,175.5525 Q408.8625,177.6463 409.55,178.7244 Q410.2375,179.7869 411.5813,179.7869 Q412.2063,179.7869 412.8,179.5213 Q413.3938,179.24 414.0188,178.6619 L414.0188,181.3806 Z " fill="#000000"/><text fill="#000000" font-family="sans-serif" font-size="14" lengthAdjust="spacing" textLength="109.0195" x="425.05" y="180.5867">ApplicationRole</text><line style="stroke:#181818;stroke-width:0.5;" x1="397.05" x2="536.0695" y1="191.74" y2="191.74"/><line style="stroke:#181818;stroke-width:0.5;" x1="397.05" x2="536.0695" y1="199.74" y2="199.74"/></g><!--class AccountSettings--><g class="entity" data-entity="AccountSettings" data-source-line="24" data-uid="ent0006" id="entity_AccountSettings"><rect fill="#F1F1F1" height="129.4844" rx="2.5" ry="2.5" style="stroke:#181818;stroke-width:0.5;" width="257.1162" x="7" y="341.78"/><ellipse cx="74.2109" cy="357.78" fill="#ADD1B2" rx="11" ry="11" style="stroke:#181818;stroke-width:1;"/><path d="M77.1797,363.4206 Q76.6016,363.7175 75.9609,363.8581 Q75.3203,364.0144 74.6172,364.0144 Q72.1172,364.0144 70.7891,362.3738 Q69.4766,360.7175 69.4766,357.5925 Q69.4766,354.4675 70.7891,352.8113 Q72.1172,351.155 74.6172,351.155 Q75.3203,351.155 75.9609,351.3113 Q76.6172,351.4675 77.1797,351.7644 L77.1797,354.4831 Q76.5547,353.905 75.9609,353.6394 Q75.3672,353.3581 74.7422,353.3581 Q73.3984,353.3581 72.7109,354.4363 Q72.0234,355.4988 72.0234,357.5925 Q72.0234,359.6863 72.7109,360.7644 Q73.3984,361.8269 74.7422,361.8269 Q75.3672,361.8269 75.9609,361.5613 Q76.5547,361.28 77.1797,360.7019 L77.1797,363.4206 Z " fill="#000000"/><text fill="#000000" font-family="sans-serif" font-size="14" lengthAdjust="spacing" textLength="114.1943" x="94.7109" y="362.6267">AccountSettings</text><line style="stroke:#181818;stroke-width:0.5;" x1="8" x2="263.1162" y1="373.78" y2="373.78"/><ellipse cx="18" cy="387.4284" fill="none" rx="3" ry="3" style="stroke:#038048;stroke-width:1;"/><text fill="#000000" font-family="sans-serif" font-size="14" lengthAdjust="spacing" textLength="207.6621" x="27" y="390.7751">EmailOnMildStressAlert : bool</text><ellipse cx="18" cy="403.7253" fill="none" rx="3" ry="3" style="stroke:#038048;stroke-width:1;"/><text fill="#000000" font-family="sans-serif" font-size="14" lengthAdjust="spacing" textLength="191.6729" x="27" y="407.072">EmailOnHelpRequest : bool</text><ellipse cx="18" cy="420.0222" fill="none" rx="3" ry="3" style="stroke:#038048;stroke-width:1;"/><text fill="#000000" font-family="sans-serif" font-size="14" lengthAdjust="spacing" textLength="210.5879" x="27" y="423.3689">EmailOnAppFailureAlert : bool</text><ellipse cx="18" cy="436.3191" fill="none" rx="3" ry="3" style="stroke:#038048;stroke-width:1;"/><text fill="#000000" font-family="sans-serif" font-size="14" lengthAdjust="spacing" textLength="231.1162" x="27" y="439.6657">EmailOnDeviceFailureAlert : bool</text><ellipse cx="18" cy="452.6159" fill="none" rx="3" ry="3" style="stroke:#038048;stroke-width:1;"/><text fill="#000000" font-family="sans-serif" font-size="14" lengthAdjust="spacing" textLength="214.7441" x="27" y="455.9626">EmailOnDeviceInactivity : bool</text><line style="stroke:#181818;stroke-width:0.5;" x1="8" x2="263.1162" y1="463.2644" y2="463.2644"/></g><!--class InvitationCode--><g class="entity" data-entity="InvitationCode" data-source-line="32" data-uid="ent0007" id="entity_InvitationCode"><rect fill="#F1F1F1" height="162.0781" rx="2.5" ry="2.5" style="stroke:#181818;stroke-width:0.5;" width="183.8281" x="298.64" y="325.48"/><ellipse cx="336.1062" cy="341.48" fill="#ADD1B2" rx="11" ry="11" style="stroke:#181818;stroke-width:1;"/><path d="M339.0749,347.1206 Q338.4968,347.4175 337.8562,347.5581 Q337.2155,347.7144 336.5124,347.7144 Q334.0124,347.7144 332.6843,346.0737 Q331.3718,344.4175 331.3718,341.2925 Q331.3718,338.1675 332.6843,336.5112 Q334.0124,334.855 336.5124,334.855 Q337.2155,334.855 337.8562,335.0112 Q338.5124,335.1675 339.0749,335.4644 L339.0749,338.1831 Q338.4499,337.605 337.8562,337.3394 Q337.2624,337.0581 336.6374,337.0581 Q335.2937,337.0581 334.6062,338.1362 Q333.9187,339.1987 333.9187,341.2925 Q333.9187,343.3862 334.6062,344.4644 Q335.2937,345.5269 336.6374,345.5269 Q337.2624,345.5269 337.8562,345.2612 Q338.4499,344.98 339.0749,344.4019 L339.0749,347.1206 Z " fill="#000000"/><text fill="#000000" font-family="sans-serif" font-size="14" lengthAdjust="spacing" textLength="101.9033" x="355.0986" y="346.3267">InvitationCode</text><line style="stroke:#181818;stroke-width:0.5;" x1="299.64" x2="481.4681" y1="357.48" y2="357.48"/><ellipse cx="309.64" cy="371.1284" fill="none" rx="3" ry="3" style="stroke:#038048;stroke-width:1;"/><text fill="#000000" font-family="sans-serif" font-size="14" lengthAdjust="spacing" textLength="44.8848" x="318.64" y="374.4751">Id : int</text><ellipse cx="309.64" cy="387.4253" fill="none" rx="3" ry="3" style="stroke:#038048;stroke-width:1;"/><text fill="#000000" font-family="sans-serif" font-size="14" lengthAdjust="spacing" textLength="89.6465" x="318.64" y="390.772">Code : string</text><ellipse cx="309.64" cy="403.7222" fill="none" rx="3" ry="3" style="stroke:#038048;stroke-width:1;"/><text fill="#000000" font-family="sans-serif" font-size="14" lengthAdjust="spacing" textLength="148.4082" x="318.64" y="407.0689">ExpiresAt : DateTime</text><ellipse cx="309.64" cy="420.0191" fill="none" rx="3" ry="3" style="stroke:#038048;stroke-width:1;"/><text fill="#000000" font-family="sans-serif" font-size="14" lengthAdjust="spacing" textLength="89.9883" x="318.64" y="423.3657">IsUsed : bool</text><ellipse cx="309.64" cy="436.3159" fill="none" rx="3" ry="3" style="stroke:#038048;stroke-width:1;"/><text fill="#000000" font-family="sans-serif" font-size="14" lengthAdjust="spacing" textLength="157.8281" x="318.64" y="439.6626">CreatedByUserId : int?</text><ellipse cx="309.64" cy="452.6128" fill="none" rx="3" ry="3" style="stroke:#038048;stroke-width:1;"/><text fill="#000000" font-family="sans-serif" font-size="14" lengthAdjust="spacing" textLength="152.5508" x="318.64" y="455.9595">CreatedAt : DateTime</text><ellipse cx="309.64" cy="468.9097" fill="none" rx="3" ry="3" style="stroke:#038048;stroke-width:1;"/><text fill="#000000" font-family="sans-serif" font-size="14" lengthAdjust="spacing" textLength="99.8115" x="318.64" y="472.2564">IsAdmin : bool</text><line style="stroke:#181818;stroke-width:0.5;" x1="299.64" x2="481.4681" y1="479.5581" y2="479.5581"/></g><!--reverse link IdentityUser to User--><g class="link" data-entity-1="IdentityUser" data-entity-2="User" data-source-line="45" data-uid="lnk8" id="link_IdentityUser_User"><path codeLine="45" d="M262.56,76.41 C262.56,92.68 262.56,97.21 262.56,118.63" fill="none" id="IdentityUser-backto-User" style="stroke:#181818;stroke-width:1;"/><polygon fill="none" points="262.56,58.41,256.56,76.41,268.56,76.41,262.56,58.41" style="stroke:#181818;stroke-width:1;"/></g><!--reverse link IdentityRole to ApplicationRole--><g class="link" data-entity-1="IdentityRole" data-entity-2="ApplicationRole" data-source-line="46" data-uid="lnk9" id="link_IdentityRole_ApplicationRole"><path codeLine="46" d="M466.56,76.41 C466.56,104.07 466.56,131.82 466.56,159.44" fill="none" id="IdentityRole-backto-ApplicationRole" style="stroke:#181818;stroke-width:1;"/><polygon fill="none" points="466.56,58.41,460.56,76.41,472.56,76.41,466.56,58.41" style="stroke:#181818;stroke-width:1;"/></g><!--reverse link User to AccountSettings--><g class="link" data-entity-1="User" data-entity-2="AccountSettings" data-source-line="49" data-uid="lnk10" id="link_User_AccountSettings"><path codeLine="49" d="M219.666,259.3015 C202.896,288.4515 189.09,312.46 172.33,341.59" fill="none" id="User-backto-AccountSettings" style="stroke:#181818;stroke-width:1;"/><polygon fill="#181818" points="225.65,248.9,219.1908,252.1061,219.666,259.3015,226.1252,256.0954,225.65,248.9" style="stroke:#181818;stroke-width:1;"/><text fill="#000000" font-family="sans-serif" font-size="13" lengthAdjust="spacing" textLength="35.7881" x="208.56" y="291.5469">Tiene</text><text fill="#000000" font-family="sans-serif" font-size="13" lengthAdjust="spacing" textLength="8.271" x="213.4449" y="268.4666">1</text><text fill="#000000" font-family="sans-serif" font-size="13" lengthAdjust="spacing" textLength="8.271" x="167.9292" y="330.7419">1</text></g><!--link User to InvitationCode--><g class="link" data-entity-1="User" data-entity-2="InvitationCode" data-source-line="52" data-uid="lnk11" id="link_User_InvitationCode"><path codeLine="52" d="M299.75,248.9 C313.56,272.7 329.39,300.01 343.93,325.09" fill="none" id="User-InvitationCode" style="stroke:#181818;stroke-width:1;"/><text fill="#000000" font-family="sans-serif" font-size="13" lengthAdjust="spacing" textLength="30.3862" x="327.56" y="291.5469">Crea</text><text fill="#000000" font-family="sans-serif" font-size="13" lengthAdjust="spacing" textLength="8.271" x="295.1864" y="268.4666">1</text><text fill="#000000" font-family="sans-serif" font-size="13" lengthAdjust="spacing" textLength="6.5" x="333.6869" y="314.5203">*</text></g><!--SRC=[ZLJDRjim3BxxAOXSqX-qmAv1q49rLDH0bXIs0wn7nMPR0RBaIdAmODiZxJ3i4VfYfHmdTP8MMm-fGNuYFv8VEOIBYmk8fopZ6TpGBqmu91C-ovFy0KxujvodCvQT1bWqXAbmKEAZrB8o3cfX1T27jyA24l2C5dKXHIIMmLPuA9Hm3WP9YTfBlruuj6Ef_TK0A53V-kcJr2WyVXAi4V49v0FN2PiGVwA-o1OiJURm02oEUJPlUMz2XZJm8mBwEuTRQPsVYGfX19HOwgVEGHL-Q8yj2eyby-IOq5SkA-nSYxhyp1MYJSsJr7lEwzOxX1ILAAJHwE146t08LOEX3HeAKnaGH63PUEgqU6bUVvzspyw15OLfjC_GUsBeAFI1POTCz4fwuIb9R4eCo2GsIc4HJEDzxzNkrNn9lLgrZiCdFTSx_bu9oasH6dSddJTM7gKwWgolebzHDnfMrqeMRT0msMvAG-3EYrOGs6gh52G-E586r6WDK0F5wnz1WDgQMX8ur2jA6Jei5BhBNhw3_crLmIiXrLn_bQhCl4Ndc48R9hSqHkrZxb3LARw4UNtefv9kwQEn-7cC2QvaWVy9IpHjXwHvhRUWNJdxOznLavI4f0Pj5Hny1whctsj9TNuatSJHmfJxXBebk6bNTXl- -jyRaZXMLbBtY6zMD-LJ5YVp6Urks5EotdKd90oQPVUNCvuJSVi-zQX_DM3yawAqzwElYetvG5GXUcogsZXInEjVFOA5XiOrmae3US9d71fDQZFwKJurT8e2AD0e6eeiBgCsuU3B0CueUFX_l8MvHDqcOivG4STvxXUSZbISSfRIhXVFTD9aExpD6UWb2JdE1eUZ7RLTVWC0]--></g></svg>