<svg xmlns="http://www.w3.org/2000/svg" xmlns:xlink="http://www.w3.org/1999/xlink" contentStyleType="text/css" data-diagram-type="CLASS" height="426px" preserveAspectRatio="none" style="width:767px;height:426px;background:#FFFFFF;" version="1.1" viewBox="0 0 767 426" width="767px" zoomAndPan="magnify"><defs/><g><!--class Crop--><g class="entity" data-entity="Crop" data-source-line="3" data-uid="ent0002" id="entity_Crop"><rect fill="#F1F1F1" height="80.5938" rx="2.5" ry="2.5" style="stroke:#181818;stroke-width:0.5;" width="121.1084" x="332.14" y="7"/><ellipse cx="372.3963" cy="23" fill="#ADD1B2" rx="11" ry="11" style="stroke:#181818;stroke-width:1;"/><path d="M375.365,28.6406 Q374.7869,28.9375 374.1463,29.0781 Q373.5056,29.2344 372.8025,29.2344 Q370.3025,29.2344 368.9744,27.5938 Q367.6619,25.9375 367.6619,22.8125 Q367.6619,19.6875 368.9744,18.0313 Q370.3025,16.375 372.8025,16.375 Q373.5056,16.375 374.1463,16.5313 Q374.8025,16.6875 375.365,16.9844 L375.365,19.7031 Q374.74,19.125 374.1463,18.8594 Q373.5525,18.5781 372.9275,18.5781 Q371.5838,18.5781 370.8963,19.6563 Q370.2088,20.7188 370.2088,22.8125 Q370.2088,24.9063 370.8963,25.9844 Q371.5838,27.0469 372.9275,27.0469 Q373.5525,27.0469 374.1463,26.7813 Q374.74,26.5 375.365,25.9219 L375.365,28.6406 Z " fill="#000000"/><text fill="#000000" font-family="sans-serif" font-size="14" lengthAdjust="spacing" textLength="32.9834" x="392.0087" y="27.8467">Crop</text><line style="stroke:#181818;stroke-width:0.5;" x1="333.14" x2="452.2484" y1="39" y2="39"/><ellipse cx="343.14" cy="52.6484" fill="none" rx="3" ry="3" style="stroke:#038048;stroke-width:1;"/><text fill="#000000" font-family="sans-serif" font-size="14" lengthAdjust="spacing" textLength="44.8848" x="352.14" y="55.9951">Id : int</text><ellipse cx="343.14" cy="68.9453" fill="none" rx="3" ry="3" style="stroke:#038048;stroke-width:1;"/><text fill="#000000" font-family="sans-serif" font-size="14" lengthAdjust="spacing" textLength="95.1084" x="352.14" y="72.292">Name : string</text><line style="stroke:#181818;stroke-width:0.5;" x1="333.14" x2="452.2484" y1="79.5938" y2="79.5938"/></g><!--class CropSettings--><g class="entity" data-entity="CropSettings" data-source-line="10" data-uid="ent0003" id="entity_CropSettings"><rect fill="#F1F1F1" height="48" rx="2.5" ry="2.5" style="stroke:#181818;stroke-width:0.5;" width="122.4053" x="331.49" y="164.6"/><ellipse cx="346.49" cy="180.6" fill="#ADD1B2" rx="11" ry="11" style="stroke:#181818;stroke-width:1;"/><path d="M349.4588,186.2406 Q348.8806,186.5375 348.24,186.6781 Q347.5994,186.8344 346.8963,186.8344 Q344.3963,186.8344 343.0681,185.1938 Q341.7556,183.5375 341.7556,180.4125 Q341.7556,177.2875 343.0681,175.6313 Q344.3963,173.975 346.8963,173.975 Q347.5994,173.975 348.24,174.1313 Q348.8963,174.2875 349.4588,174.5844 L349.4588,177.3031 Q348.8338,176.725 348.24,176.4594 Q347.6463,176.1781 347.0213,176.1781 Q345.6775,176.1781 344.99,177.2563 Q344.3025,178.3188 344.3025,180.4125 Q344.3025,182.5063 344.99,183.5844 Q345.6775,184.6469 347.0213,184.6469 Q347.6463,184.6469 348.24,184.3813 Q348.8338,184.1 349.4588,183.5219 L349.4588,186.2406 Z " fill="#000000"/><text fill="#000000" font-family="sans-serif" font-size="14" lengthAdjust="spacing" textLength="90.4053" x="360.49" y="185.4467">CropSettings</text><line style="stroke:#181818;stroke-width:0.5;" x1="332.49" x2="452.8953" y1="196.6" y2="196.6"/><line style="stroke:#181818;stroke-width:0.5;" x1="332.49" x2="452.8953" y1="204.6" y2="204.6"/></g><!--class AnalysisParameters--><g class="entity" data-entity="AnalysisParameters" data-source-line="17" data-uid="ent0004" id="entity_AnalysisParameters"><rect fill="#F1F1F1" height="129.4844" rx="2.5" ry="2.5" style="stroke:#181818;stroke-width:0.5;" width="249.3848" x="7" y="289.6"/><ellipse cx="58.2217" cy="305.6" fill="#ADD1B2" rx="11" ry="11" style="stroke:#181818;stroke-width:1;"/><path d="M61.1904,311.2406 Q60.6123,311.5375 59.9717,311.6781 Q59.3311,311.8344 58.6279,311.8344 Q56.1279,311.8344 54.7998,310.1937 Q53.4873,308.5375 53.4873,305.4125 Q53.4873,302.2875 54.7998,300.6312 Q56.1279,298.975 58.6279,298.975 Q59.3311,298.975 59.9717,299.1312 Q60.6279,299.2875 61.1904,299.5844 L61.1904,302.3031 Q60.5654,301.725 59.9717,301.4594 Q59.3779,301.1781 58.7529,301.1781 Q57.4092,301.1781 56.7217,302.2562 Q56.0342,303.3187 56.0342,305.4125 Q56.0342,307.5062 56.7217,308.5844 Q57.4092,309.6469 58.7529,309.6469 Q59.3779,309.6469 59.9717,309.3812 Q60.5654,309.1 61.1904,308.5219 L61.1904,311.2406 Z " fill="#000000"/><text fill="#000000" font-family="sans-serif" font-size="14" lengthAdjust="spacing" textLength="138.4414" x="78.7217" y="310.4467">AnalysisParameters</text><line style="stroke:#181818;stroke-width:0.5;" x1="8" x2="255.3848" y1="321.6" y2="321.6"/><ellipse cx="18" cy="335.2484" fill="none" rx="3" ry="3" style="stroke:#038048;stroke-width:1;"/><text fill="#000000" font-family="sans-serif" font-size="14" lengthAdjust="spacing" textLength="223.3848" x="27" y="338.5951">CwsiThresholdIncipient : double</text><ellipse cx="18" cy="351.5453" fill="none" rx="3" ry="3" style="stroke:#038048;stroke-width:1;"/><text fill="#000000" font-family="sans-serif" font-size="14" lengthAdjust="spacing" textLength="212.0098" x="27" y="354.892">CwsiThresholdCritical : double</text><ellipse cx="18" cy="367.8422" fill="none" rx="3" ry="3" style="stroke:#038048;stroke-width:1;"/><text fill="#000000" font-family="sans-serif" font-size="14" lengthAdjust="spacing" textLength="212.9805" x="27" y="371.1889">AnalysisWindowStartHour : int</text><ellipse cx="18" cy="384.1391" fill="none" rx="3" ry="3" style="stroke:#038048;stroke-width:1;"/><text fill="#000000" font-family="sans-serif" font-size="14" lengthAdjust="spacing" textLength="205.3857" x="27" y="387.4857">AnalysisWindowEndHour : int</text><ellipse cx="18" cy="400.4359" fill="none" rx="3" ry="3" style="stroke:#038048;stroke-width:1;"/><text fill="#000000" font-family="sans-serif" font-size="14" lengthAdjust="spacing" textLength="197.0459" x="27" y="403.7826">LightIntensityThreshold : int</text><line style="stroke:#181818;stroke-width:0.5;" x1="8" x2="255.3848" y1="411.0844" y2="411.0844"/></g><!--class AnomalyParameters--><g class="entity" data-entity="AnomalyParameters" data-source-line="25" data-uid="ent0005" id="entity_AnomalyParameters"><rect fill="#F1F1F1" height="80.5938" rx="2.5" ry="2.5" style="stroke:#181818;stroke-width:0.5;" width="202.5381" x="291.42" y="314.04"/><ellipse cx="319.187" cy="330.04" fill="#ADD1B2" rx="11" ry="11" style="stroke:#181818;stroke-width:1;"/><path d="M322.1557,335.6806 Q321.5776,335.9775 320.937,336.1181 Q320.2964,336.2744 319.5932,336.2744 Q317.0932,336.2744 315.7651,334.6337 Q314.4526,332.9775 314.4526,329.8525 Q314.4526,326.7275 315.7651,325.0712 Q317.0932,323.415 319.5932,323.415 Q320.2964,323.415 320.937,323.5712 Q321.5932,323.7275 322.1557,324.0244 L322.1557,326.7431 Q321.5307,326.165 320.937,325.8994 Q320.3432,325.6181 319.7182,325.6181 Q318.3745,325.6181 317.687,326.6962 Q316.9995,327.7587 316.9995,329.8525 Q316.9995,331.9462 317.687,333.0244 Q318.3745,334.0869 319.7182,334.0869 Q320.3432,334.0869 320.937,333.8212 Q321.5307,333.54 322.1557,332.9619 L322.1557,335.6806 Z " fill="#000000"/><text fill="#000000" font-family="sans-serif" font-size="14" lengthAdjust="spacing" textLength="142.167" x="336.0241" y="334.8867">AnomalyParameters</text><line style="stroke:#181818;stroke-width:0.5;" x1="292.42" x2="492.9581" y1="346.04" y2="346.04"/><ellipse cx="302.42" cy="359.6884" fill="none" rx="3" ry="3" style="stroke:#038048;stroke-width:1;"/><text fill="#000000" font-family="sans-serif" font-size="14" lengthAdjust="spacing" textLength="176.5381" x="311.42" y="363.0351">DeltaTThreshold : double</text><ellipse cx="302.42" cy="375.9853" fill="none" rx="3" ry="3" style="stroke:#038048;stroke-width:1;"/><text fill="#000000" font-family="sans-serif" font-size="14" lengthAdjust="spacing" textLength="147.7861" x="311.42" y="379.332">DurationMinutes : int</text><line style="stroke:#181818;stroke-width:0.5;" x1="292.42" x2="492.9581" y1="386.6337" y2="386.6337"/></g><!--class CalibrationReminder--><g class="entity" data-entity="CalibrationReminder" data-source-line="30" data-uid="ent0006" id="entity_CalibrationReminder"><rect fill="#F1F1F1" height="64.2969" rx="2.5" ry="2.5" style="stroke:#181818;stroke-width:0.5;" width="230.6543" x="529.37" y="322.19"/><ellipse cx="568.888" cy="338.19" fill="#ADD1B2" rx="11" ry="11" style="stroke:#181818;stroke-width:1;"/><path d="M571.8567,343.8306 Q571.2786,344.1275 570.638,344.2681 Q569.9973,344.4244 569.2942,344.4244 Q566.7942,344.4244 565.4661,342.7838 Q564.1536,341.1275 564.1536,338.0025 Q564.1536,334.8775 565.4661,333.2213 Q566.7942,331.565 569.2942,331.565 Q569.9973,331.565 570.638,331.7213 Q571.2942,331.8775 571.8567,332.1744 L571.8567,334.8931 Q571.2317,334.315 570.638,334.0494 Q570.0442,333.7681 569.4192,333.7681 Q568.0755,333.7681 567.388,334.8463 Q566.7005,335.9088 566.7005,338.0025 Q566.7005,340.0963 567.388,341.1744 Q568.0755,342.2369 569.4192,342.2369 Q570.0442,342.2369 570.638,341.9713 Q571.2317,341.69 571.8567,341.1119 L571.8567,343.8306 Z " fill="#000000"/><text fill="#000000" font-family="sans-serif" font-size="14" lengthAdjust="spacing" textLength="144.1699" x="588.3364" y="343.0367">CalibrationReminder</text><line style="stroke:#181818;stroke-width:0.5;" x1="530.37" x2="759.0243" y1="354.19" y2="354.19"/><ellipse cx="540.37" cy="367.8384" fill="none" rx="3" ry="3" style="stroke:#038048;stroke-width:1;"/><text fill="#000000" font-family="sans-serif" font-size="14" lengthAdjust="spacing" textLength="204.6543" x="549.37" y="371.1851">ReminderIntervalMonths : int</text><line style="stroke:#181818;stroke-width:0.5;" x1="530.37" x2="759.0243" y1="378.4869" y2="378.4869"/></g><!--reverse link Crop to CropSettings--><g class="link" data-entity-1="Crop" data-entity-2="CropSettings" data-source-line="37" data-uid="lnk7" id="link_Crop_CropSettings"><path codeLine="37" d="M392.69,99.84 C392.69,124.46 392.69,143.28 392.69,164.1" fill="none" id="Crop-backto-CropSettings" style="stroke:#181818;stroke-width:1;"/><polygon fill="#181818" points="392.69,87.84,388.69,93.84,392.69,99.84,396.69,93.84,392.69,87.84" style="stroke:#181818;stroke-width:1;"/><text fill="#000000" font-family="sans-serif" font-size="13" lengthAdjust="spacing" textLength="58.2144" x="393.69" y="130.6669">Contiene</text><text fill="#000000" font-family="sans-serif" font-size="13" lengthAdjust="spacing" textLength="8.271" x="384.0734" y="107.5744">1</text><text fill="#000000" font-family="sans-serif" font-size="13" lengthAdjust="spacing" textLength="8.271" x="383.7474" y="153.3831">1</text></g><!--reverse link CropSettings to AnalysisParameters--><g class="link" data-entity-1="CropSettings" data-entity-2="AnalysisParameters" data-source-line="39" data-uid="lnk8" id="link_CropSettings_AnalysisParameters"><path codeLine="39" d="M345.1334,219.435 C313.4134,239.325 276.56,262.45 233.81,289.27" fill="none" id="CropSettings-backto-AnalysisParameters" style="stroke:#181818;stroke-width:1;"/><polygon fill="#181818" points="355.3,213.06,348.0917,212.8586,345.1334,219.435,352.3417,219.6363,355.3,213.06" style="stroke:#181818;stroke-width:1;"/><text fill="#000000" font-family="sans-serif" font-size="13" lengthAdjust="spacing" textLength="42.4341" x="302.69" y="255.6669">Define</text><text fill="#000000" font-family="sans-serif" font-size="13" lengthAdjust="spacing" textLength="8.271" x="337.7593" y="232.533">1</text><text fill="#000000" font-family="sans-serif" font-size="13" lengthAdjust="spacing" textLength="8.271" x="236.5564" y="278.4066">1</text></g><!--reverse link CropSettings to AnomalyParameters--><g class="link" data-entity-1="CropSettings" data-entity-2="AnomalyParameters" data-source-line="40" data-uid="lnk9" id="link_CropSettings_AnomalyParameters"><path codeLine="40" d="M392.69,225.06 C392.69,251.32 392.69,282.32 392.69,313.8" fill="none" id="CropSettings-backto-AnomalyParameters" style="stroke:#181818;stroke-width:1;"/><polygon fill="#181818" points="392.69,213.06,388.69,219.06,392.69,225.06,396.69,219.06,392.69,213.06" style="stroke:#181818;stroke-width:1;"/><text fill="#000000" font-family="sans-serif" font-size="13" lengthAdjust="spacing" textLength="42.4341" x="393.69" y="255.6669">Define</text><text fill="#000000" font-family="sans-serif" font-size="13" lengthAdjust="spacing" textLength="8.271" x="383.7957" y="232.533">1</text><text fill="#000000" font-family="sans-serif" font-size="13" lengthAdjust="spacing" textLength="8.271" x="384.0501" y="302.9218">1</text></g><!--reverse link CropSettings to CalibrationReminder--><g class="link" data-entity-1="CropSettings" data-entity-2="CalibrationReminder" data-source-line="41" data-uid="lnk10" id="link_CropSettings_CalibrationReminder"><path codeLine="41" d="M438.8628,219.5976 C482.8228,248.1576 547.17,289.97 596.13,321.78" fill="none" id="CropSettings-backto-CalibrationReminder" style="stroke:#181818;stroke-width:1;"/><polygon fill="#181818" points="428.8,213.06,431.6522,219.6831,438.8628,219.5976,436.0106,212.9745,428.8,213.06" style="stroke:#181818;stroke-width:1;"/><text fill="#000000" font-family="sans-serif" font-size="13" lengthAdjust="spacing" textLength="42.4341" x="497.69" y="255.6669">Define</text><text fill="#000000" font-family="sans-serif" font-size="13" lengthAdjust="spacing" textLength="8.271" x="428.2562" y="232.533">1</text><text fill="#000000" font-family="sans-serif" font-size="13" lengthAdjust="spacing" textLength="8.271" x="578.1352" y="311.2234">1</text></g><!--SRC=[XL9BRi8m4Dtd52Csj4KWTTiTIY8r4WH4aBesoPHOScngJueGwYbwZfw2YzNvGKYYDXjdnk_Dcnc_CKodK_33RU3DFJyg8iU91JC6NAqES7R0VXC84dW1BgaEGvQXJHZINExBt1XcirdzDocv4HBPMsDnxT3vQWjSGUUQkq71Ogua6dYG2Wn2bgFLOH9YbIbWLdANapB0FlBBp-DLSYwPE1bkrapRvWXr8TnFjl0givSTU2Tt6uW9ljECR6SRpBXCK1TpzREtyGOQQhRf7WtVfXfDgaGIo9WVE4go1HELxmGEeLpDYSTCT46DofjLLyU8cAPNbUkxrxh7-3Bf8HPydr8W2QNXTBgArfZMIDsTDHDvA8XjsyIxBhsysjAIovpGTEiERRUft2IAxlGd4qibAMrLSCQbXJV-Oku6gz1wsFF1NItNgoXmWyjtM7cwTFFeUGHF5boSNOlQilOHi49UBzgCGOTv-CujwmzItsR_SORDLh5-0G00]--></g></svg>