<svg xmlns="http://www.w3.org/2000/svg" xmlns:xlink="http://www.w3.org/1999/xlink" contentStyleType="text/css" data-diagram-type="CLASS" height="654px" preserveAspectRatio="none" style="width:722px;height:654px;background:#FFFFFF;" version="1.1" viewBox="0 0 722 654" width="722px" zoomAndPan="magnify"><defs/><g><!--class DeviceStatus--><g class="entity" data-entity="DeviceStatus" data-source-line="2" data-uid="ent0002" id="entity_DeviceStatus"><rect fill="#F1F1F1" height="113.1875" rx="2.5" ry="2.5" style="stroke:#181818;stroke-width:0.5;" width="168.3516" x="7" y="335.71"/><ellipse cx="41.7376" cy="351.71" fill="#EB937F" rx="11" ry="11" style="stroke:#181818;stroke-width:1;"/><path d="M45.847,357.71 L38.1282,357.71 L38.1282,345.3194 L45.847,345.3194 L45.847,347.4756 L40.5813,347.4756 L40.5813,350.1475 L45.347,350.1475 L45.347,352.3038 L40.5813,352.3038 L40.5813,355.5538 L45.847,355.5538 L45.847,357.71 Z " fill="#000000"/><text fill="#000000" font-family="sans-serif" font-size="14" lengthAdjust="spacing" textLength="92.4902" x="60.1237" y="356.5567">DeviceStatus</text><line style="stroke:#181818;stroke-width:0.5;" x1="8" x2="174.3516" y1="367.71" y2="367.71"/><text fill="#000000" font-family="sans-serif" font-size="14" lengthAdjust="spacing" textLength="156.3516" x="13" y="384.7051">PENDING_ACTIVATION</text><text fill="#000000" font-family="sans-serif" font-size="14" lengthAdjust="spacing" textLength="50.4561" x="13" y="401.002">ACTIVE</text><text fill="#000000" font-family="sans-serif" font-size="14" lengthAdjust="spacing" textLength="65.0576" x="13" y="417.2989">INACTIVE</text><text fill="#000000" font-family="sans-serif" font-size="14" lengthAdjust="spacing" textLength="102.7988" x="13" y="433.5957">MAINTENANCE</text><line style="stroke:#181818;stroke-width:0.5;" x1="8" x2="174.3516" y1="440.8975" y2="440.8975"/></g><!--class ActivationStatus--><g class="entity" data-entity="ActivationStatus" data-source-line="9" data-uid="ent0003" id="entity_ActivationStatus"><rect fill="#F1F1F1" height="96.8906" rx="2.5" ry="2.5" style="stroke:#181818;stroke-width:0.5;" width="146.9463" x="236.7" y="550.64"/><ellipse cx="251.7" cy="566.64" fill="#EB937F" rx="11" ry="11" style="stroke:#181818;stroke-width:1;"/><path d="M255.8094,572.64 L248.0906,572.64 L248.0906,560.2494 L255.8094,560.2494 L255.8094,562.4056 L250.5438,562.4056 L250.5438,565.0775 L255.3094,565.0775 L255.3094,567.2338 L250.5438,567.2338 L250.5438,570.4838 L255.8094,570.4838 L255.8094,572.64 Z " fill="#000000"/><text fill="#000000" font-family="sans-serif" font-size="14" lengthAdjust="spacing" textLength="114.9463" x="265.7" y="571.4867">ActivationStatus</text><line style="stroke:#181818;stroke-width:0.5;" x1="237.7" x2="382.6463" y1="582.64" y2="582.64"/><text fill="#000000" font-family="sans-serif" font-size="14" lengthAdjust="spacing" textLength="63.9912" x="242.7" y="599.6351">PENDING</text><text fill="#000000" font-family="sans-serif" font-size="14" lengthAdjust="spacing" textLength="86.1396" x="242.7" y="615.932">COMPLETED</text><text fill="#000000" font-family="sans-serif" font-size="14" lengthAdjust="spacing" textLength="60.3613" x="242.7" y="632.2289">EXPIRED</text><line style="stroke:#181818;stroke-width:0.5;" x1="237.7" x2="382.6463" y1="639.5306" y2="639.5306"/></g><!--class TokenStatus--><g class="entity" data-entity="TokenStatus" data-source-line="15" data-uid="ent0004" id="entity_TokenStatus"><rect fill="#F1F1F1" height="80.5938" rx="2.5" ry="2.5" style="stroke:#181818;stroke-width:0.5;" width="119.3223" x="520.51" y="558.79"/><ellipse cx="535.51" cy="574.79" fill="#EB937F" rx="11" ry="11" style="stroke:#181818;stroke-width:1;"/><path d="M539.6194,580.79 L531.9006,580.79 L531.9006,568.3994 L539.6194,568.3994 L539.6194,570.5556 L534.3538,570.5556 L534.3538,573.2275 L539.1194,573.2275 L539.1194,575.3838 L534.3538,575.3838 L534.3538,578.6338 L539.6194,578.6338 L539.6194,580.79 Z " fill="#000000"/><text fill="#000000" font-family="sans-serif" font-size="14" lengthAdjust="spacing" textLength="87.3223" x="549.51" y="579.6367">TokenStatus</text><line style="stroke:#181818;stroke-width:0.5;" x1="521.51" x2="638.8323" y1="590.79" y2="590.79"/><text fill="#000000" font-family="sans-serif" font-size="14" lengthAdjust="spacing" textLength="50.4561" x="526.51" y="607.7851">ACTIVE</text><text fill="#000000" font-family="sans-serif" font-size="14" lengthAdjust="spacing" textLength="67.9766" x="526.51" y="624.082">REVOKED</text><line style="stroke:#181818;stroke-width:0.5;" x1="521.51" x2="638.8323" y1="631.3838" y2="631.3838"/></g><!--class Device--><g class="entity" data-entity="Device" data-source-line="21" data-uid="ent0005" id="entity_Device"><rect fill="#F1F1F1" height="210.9688" rx="2.5" ry="2.5" style="stroke:#181818;stroke-width:0.5;" width="286.9961" x="166.68" y="7"/><ellipse cx="281.9886" cy="23" fill="#ADD1B2" rx="11" ry="11" style="stroke:#181818;stroke-width:1;"/><path d="M284.9573,28.6406 Q284.3792,28.9375 283.7386,29.0781 Q283.098,29.2344 282.3948,29.2344 Q279.8948,29.2344 278.5667,27.5938 Q277.2542,25.9375 277.2542,22.8125 Q277.2542,19.6875 278.5667,18.0313 Q279.8948,16.375 282.3948,16.375 Q283.098,16.375 283.7386,16.5313 Q284.3948,16.6875 284.9573,16.9844 L284.9573,19.7031 Q284.3323,19.125 283.7386,18.8594 Q283.1448,18.5781 282.5198,18.5781 Q281.1761,18.5781 280.4886,19.6563 Q279.8011,20.7188 279.8011,22.8125 Q279.8011,24.9063 280.4886,25.9844 Q281.1761,27.0469 282.5198,27.0469 Q283.1448,27.0469 283.7386,26.7813 Q284.3323,26.5 284.9573,25.9219 L284.9573,28.6406 Z " fill="#000000"/><text fill="#000000" font-family="sans-serif" font-size="14" lengthAdjust="spacing" textLength="47.8789" x="302.4886" y="27.8467">Device</text><line style="stroke:#181818;stroke-width:0.5;" x1="167.68" x2="452.6761" y1="39" y2="39"/><ellipse cx="177.68" cy="52.6484" fill="none" rx="3" ry="3" style="stroke:#038048;stroke-width:1;"/><text fill="#000000" font-family="sans-serif" font-size="14" lengthAdjust="spacing" textLength="44.8848" x="186.68" y="55.9951">Id : int</text><ellipse cx="177.68" cy="68.9453" fill="none" rx="3" ry="3" style="stroke:#038048;stroke-width:1;"/><text fill="#000000" font-family="sans-serif" font-size="14" lengthAdjust="spacing" textLength="95.1084" x="186.68" y="72.292">Name : string</text><ellipse cx="177.68" cy="85.2422" fill="none" rx="3" ry="3" style="stroke:#038048;stroke-width:1;"/><text fill="#000000" font-family="sans-serif" font-size="14" lengthAdjust="spacing" textLength="145.8994" x="186.68" y="88.5889">MacAddress : string?</text><ellipse cx="177.68" cy="101.5391" fill="none" rx="3" ry="3" style="stroke:#038048;stroke-width:1;"/><text fill="#000000" font-family="sans-serif" font-size="14" lengthAdjust="spacing" textLength="140.9707" x="186.68" y="104.8857">Description : string?</text><ellipse cx="177.68" cy="117.8359" fill="none" rx="3" ry="3" style="stroke:#038048;stroke-width:1;"/><text fill="#000000" font-family="sans-serif" font-size="14" lengthAdjust="spacing" textLength="87.5889" x="186.68" y="121.1826">PlantId : int?</text><ellipse cx="177.68" cy="134.1328" fill="none" rx="3" ry="3" style="stroke:#038048;stroke-width:1;"/><text fill="#000000" font-family="sans-serif" font-size="14" lengthAdjust="spacing" textLength="77.8682" x="186.68" y="137.4795">CropId : int</text><ellipse cx="177.68" cy="150.4297" fill="none" rx="3" ry="3" style="stroke:#038048;stroke-width:1;"/><text fill="#000000" font-family="sans-serif" font-size="14" lengthAdjust="spacing" textLength="260.9961" x="186.68" y="153.7764">DataCollectionIntervalMinutes : short</text><ellipse cx="177.68" cy="166.7266" fill="none" rx="3" ry="3" style="stroke:#038048;stroke-width:1;"/><text fill="#000000" font-family="sans-serif" font-size="14" lengthAdjust="spacing" textLength="172.6074" x="186.68" y="170.0732">RegisteredAt : DateTime</text><ellipse cx="177.68" cy="183.0234" fill="none" rx="3" ry="3" style="stroke:#038048;stroke-width:1;"/><text fill="#000000" font-family="sans-serif" font-size="14" lengthAdjust="spacing" textLength="156.4268" x="186.68" y="186.3701">UpdatedAt : DateTime</text><ellipse cx="177.68" cy="199.3203" fill="none" rx="3" ry="3" style="stroke:#038048;stroke-width:1;"/><text fill="#000000" font-family="sans-serif" font-size="14" lengthAdjust="spacing" textLength="150.7188" x="186.68" y="202.667">Status : DeviceStatus</text><line style="stroke:#181818;stroke-width:0.5;" x1="167.68" x2="452.6761" y1="209.9688" y2="209.9688"/></g><!--class DeviceActivation--><g class="entity" data-entity="DeviceActivation" data-source-line="37" data-uid="ent0006" id="entity_DeviceActivation"><rect fill="#F1F1F1" height="162.0781" rx="2.5" ry="2.5" style="stroke:#181818;stroke-width:0.5;" width="199.1748" x="210.59" y="311.26"/><ellipse cx="247.6224" cy="327.26" fill="#ADD1B2" rx="11" ry="11" style="stroke:#181818;stroke-width:1;"/><path d="M250.5912,332.9006 Q250.013,333.1975 249.3724,333.3381 Q248.7318,333.4944 248.0287,333.4944 Q245.5287,333.4944 244.2005,331.8538 Q242.888,330.1975 242.888,327.0725 Q242.888,323.9475 244.2005,322.2913 Q245.5287,320.635 248.0287,320.635 Q248.7318,320.635 249.3724,320.7913 Q250.0287,320.9475 250.5912,321.2444 L250.5912,323.9631 Q249.9662,323.385 249.3724,323.1194 Q248.7787,322.8381 248.1537,322.8381 Q246.8099,322.8381 246.1224,323.9163 Q245.4349,324.9788 245.4349,327.0725 Q245.4349,329.1663 246.1224,330.2444 Q246.8099,331.3069 248.1537,331.3069 Q248.7787,331.3069 249.3724,331.0413 Q249.9662,330.76 250.5912,330.1819 L250.5912,332.9006 Z " fill="#000000"/><text fill="#000000" font-family="sans-serif" font-size="14" lengthAdjust="spacing" textLength="118.2139" x="266.5185" y="332.1067">DeviceActivation</text><line style="stroke:#181818;stroke-width:0.5;" x1="211.59" x2="408.7648" y1="343.26" y2="343.26"/><ellipse cx="221.59" cy="356.9084" fill="none" rx="3" ry="3" style="stroke:#038048;stroke-width:1;"/><text fill="#000000" font-family="sans-serif" font-size="14" lengthAdjust="spacing" textLength="44.8848" x="230.59" y="360.2551">Id : int</text><ellipse cx="221.59" cy="373.2053" fill="none" rx="3" ry="3" style="stroke:#038048;stroke-width:1;"/><text fill="#000000" font-family="sans-serif" font-size="14" lengthAdjust="spacing" textLength="92.7637" x="230.59" y="376.552">DeviceId : int</text><ellipse cx="221.59" cy="389.5022" fill="none" rx="3" ry="3" style="stroke:#038048;stroke-width:1;"/><text fill="#000000" font-family="sans-serif" font-size="14" lengthAdjust="spacing" textLength="159.9814" x="230.59" y="392.8489">ActivationCode : string</text><ellipse cx="221.59" cy="405.7991" fill="none" rx="3" ry="3" style="stroke:#038048;stroke-width:1;"/><text fill="#000000" font-family="sans-serif" font-size="14" lengthAdjust="spacing" textLength="152.5508" x="230.59" y="409.1457">CreatedAt : DateTime</text><ellipse cx="221.59" cy="422.0959" fill="none" rx="3" ry="3" style="stroke:#038048;stroke-width:1;"/><text fill="#000000" font-family="sans-serif" font-size="14" lengthAdjust="spacing" textLength="148.4082" x="230.59" y="425.4426">ExpiresAt : DateTime</text><ellipse cx="221.59" cy="438.3928" fill="none" rx="3" ry="3" style="stroke:#038048;stroke-width:1;"/><text fill="#000000" font-family="sans-serif" font-size="14" lengthAdjust="spacing" textLength="170.7754" x="230.59" y="441.7395">ActivatedAt : DateTime?</text><ellipse cx="221.59" cy="454.6897" fill="none" rx="3" ry="3" style="stroke:#038048;stroke-width:1;"/><text fill="#000000" font-family="sans-serif" font-size="14" lengthAdjust="spacing" textLength="173.1748" x="230.59" y="458.0364">Status : ActivationStatus</text><line style="stroke:#181818;stroke-width:0.5;" x1="211.59" x2="408.7648" y1="465.3381" y2="465.3381"/></g><!--class DeviceToken--><g class="entity" data-entity="DeviceToken" data-source-line="47" data-uid="ent0007" id="entity_DeviceToken"><rect fill="#F1F1F1" height="194.6719" rx="2.5" ry="2.5" style="stroke:#181818;stroke-width:0.5;" width="270.9248" x="444.71" y="294.97"/><ellipse cx="530.6275" cy="310.97" fill="#ADD1B2" rx="11" ry="11" style="stroke:#181818;stroke-width:1;"/><path d="M533.5962,316.6106 Q533.0181,316.9075 532.3775,317.0481 Q531.7369,317.2044 531.0337,317.2044 Q528.5337,317.2044 527.2056,315.5637 Q525.8931,313.9075 525.8931,310.7825 Q525.8931,307.6575 527.2056,306.0012 Q528.5337,304.345 531.0337,304.345 Q531.7369,304.345 532.3775,304.5012 Q533.0337,304.6575 533.5962,304.9544 L533.5962,307.6731 Q532.9712,307.095 532.3775,306.8294 Q531.7837,306.5481 531.1587,306.5481 Q529.815,306.5481 529.1275,307.6262 Q528.44,308.6887 528.44,310.7825 Q528.44,312.8762 529.1275,313.9544 Q529.815,315.0169 531.1587,315.0169 Q531.7837,315.0169 532.3775,314.7512 Q532.9712,314.47 533.5962,313.8919 L533.5962,316.6106 Z " fill="#000000"/><text fill="#000000" font-family="sans-serif" font-size="14" lengthAdjust="spacing" textLength="90.5898" x="551.1275" y="315.8167">DeviceToken</text><line style="stroke:#181818;stroke-width:0.5;" x1="445.71" x2="714.6348" y1="326.97" y2="326.97"/><ellipse cx="455.71" cy="340.6184" fill="none" rx="3" ry="3" style="stroke:#038048;stroke-width:1;"/><text fill="#000000" font-family="sans-serif" font-size="14" lengthAdjust="spacing" textLength="44.8848" x="464.71" y="343.9651">Id : int</text><ellipse cx="455.71" cy="356.9153" fill="none" rx="3" ry="3" style="stroke:#038048;stroke-width:1;"/><text fill="#000000" font-family="sans-serif" font-size="14" lengthAdjust="spacing" textLength="92.7637" x="464.71" y="360.262">DeviceId : int</text><ellipse cx="455.71" cy="373.2122" fill="none" rx="3" ry="3" style="stroke:#038048;stroke-width:1;"/><text fill="#000000" font-family="sans-serif" font-size="14" lengthAdjust="spacing" textLength="144.6895" x="464.71" y="376.5589">AccessToken : string</text><ellipse cx="455.71" cy="389.5091" fill="none" rx="3" ry="3" style="stroke:#038048;stroke-width:1;"/><text fill="#000000" font-family="sans-serif" font-size="14" lengthAdjust="spacing" textLength="150.3223" x="464.71" y="392.8557">RefreshToken : string</text><ellipse cx="455.71" cy="405.8059" fill="none" rx="3" ry="3" style="stroke:#038048;stroke-width:1;"/><text fill="#000000" font-family="sans-serif" font-size="14" lengthAdjust="spacing" textLength="152.5508" x="464.71" y="409.1526">CreatedAt : DateTime</text><ellipse cx="455.71" cy="422.1028" fill="none" rx="3" ry="3" style="stroke:#038048;stroke-width:1;"/><text fill="#000000" font-family="sans-serif" font-size="14" lengthAdjust="spacing" textLength="239.292" x="464.71" y="425.4495">AccessTokenExpiresAt : DateTime</text><ellipse cx="455.71" cy="438.3997" fill="none" rx="3" ry="3" style="stroke:#038048;stroke-width:1;"/><text fill="#000000" font-family="sans-serif" font-size="14" lengthAdjust="spacing" textLength="244.9248" x="464.71" y="441.7464">RefreshTokenExpiresAt : DateTime</text><ellipse cx="455.71" cy="454.6966" fill="none" rx="3" ry="3" style="stroke:#038048;stroke-width:1;"/><text fill="#000000" font-family="sans-serif" font-size="14" lengthAdjust="spacing" textLength="165.0674" x="464.71" y="458.0432">RevokedAt : DateTime?</text><ellipse cx="455.71" cy="470.9934" fill="none" rx="3" ry="3" style="stroke:#038048;stroke-width:1;"/><text fill="#000000" font-family="sans-serif" font-size="14" lengthAdjust="spacing" textLength="145.5508" x="464.71" y="474.3401">Status : TokenStatus</text><line style="stroke:#181818;stroke-width:0.5;" x1="445.71" x2="714.6348" y1="481.6419" y2="481.6419"/></g><!--reverse link Device to DeviceActivation--><g class="link" data-entity-1="Device" data-entity-2="DeviceActivation" data-source-line="60" data-uid="lnk8" id="link_Device_DeviceActivation"><path codeLine="60" d="M310.18,230.12 C310.18,260.88 310.18,282.04 310.18,311.02" fill="none" id="Device-backto-DeviceActivation" style="stroke:#181818;stroke-width:1;"/><polygon fill="#181818" points="310.18,218.12,306.18,224.12,310.18,230.12,314.18,224.12,310.18,218.12" style="stroke:#181818;stroke-width:1;"/><text fill="#000000" font-family="sans-serif" font-size="13" lengthAdjust="spacing" textLength="35.7881" x="311.18" y="261.0369">Tiene</text><text fill="#000000" font-family="sans-serif" font-size="13" lengthAdjust="spacing" textLength="8.271" x="301.9084" y="238.1464">1</text><text fill="#000000" font-family="sans-serif" font-size="13" lengthAdjust="spacing" textLength="6.5" x="303.9353" y="300.1859">*</text></g><!--reverse link Device to DeviceToken--><g class="link" data-entity-1="Device" data-entity-2="DeviceToken" data-source-line="61" data-uid="lnk9" id="link_Device_DeviceToken"><path codeLine="61" d="M420.2325,226.7263 C444.5925,251.7963 462.14,269.85 486.14,294.55" fill="none" id="Device-backto-DeviceToken" style="stroke:#181818;stroke-width:1;"/><polygon fill="#181818" points="411.87,218.12,413.1825,225.2106,420.2325,226.7263,418.92,219.6356,411.87,218.12" style="stroke:#181818;stroke-width:1;"/><text fill="#000000" font-family="sans-serif" font-size="13" lengthAdjust="spacing" textLength="38.562" x="455.18" y="261.0369">Posee</text><text fill="#000000" font-family="sans-serif" font-size="13" lengthAdjust="spacing" textLength="8.271" x="410.7485" y="238.1464">1</text><text fill="#000000" font-family="sans-serif" font-size="13" lengthAdjust="spacing" textLength="6.5" x="473.0325" y="283.892">*</text></g><!--link Device to DeviceStatus--><g class="link" data-entity-1="Device" data-entity-2="DeviceStatus" data-source-line="63" data-uid="lnk10" id="link_Device_DeviceStatus"><path codeLine="63" d="M227.69,218.12 C196.29,257.96 165.434,297.0977 138.944,330.7077" fill="none" id="Device-to-DeviceStatus" style="stroke:#181818;stroke-width:1;stroke-dasharray:7,7;"/><polygon fill="#181818" points="135.23,335.42,143.9426,330.8276,138.325,331.4931,137.6595,325.8755,135.23,335.42" style="stroke:#181818;stroke-width:1;"/></g><!--link DeviceActivation to ActivationStatus--><g class="link" data-entity-1="DeviceActivation" data-entity-2="ActivationStatus" data-source-line="64" data-uid="lnk11" id="link_DeviceActivation_ActivationStatus"><path codeLine="64" d="M310.18,473.65 C310.18,499.53 310.18,521.39 310.18,544.17" fill="none" id="DeviceActivation-to-ActivationStatus" style="stroke:#181818;stroke-width:1;stroke-dasharray:7,7;"/><polygon fill="#181818" points="310.18,550.17,314.18,541.17,310.18,545.17,306.18,541.17,310.18,550.17" style="stroke:#181818;stroke-width:1;"/></g><!--link DeviceToken to TokenStatus--><g class="link" data-entity-1="DeviceToken" data-entity-2="TokenStatus" data-source-line="65" data-uid="lnk12" id="link_DeviceToken_TokenStatus"><path codeLine="65" d="M580.18,490 C580.18,514.23 580.18,532.89 580.18,552.52" fill="none" id="DeviceToken-to-TokenStatus" style="stroke:#181818;stroke-width:1;stroke-dasharray:7,7;"/><polygon fill="#181818" points="580.18,558.52,584.18,549.52,580.18,553.52,576.18,549.52,580.18,558.52" style="stroke:#181818;stroke-width:1;"/></g><!--SRC=[bLJ1Rfmm4Btp5TPUDasqaNADgeqGM9MLu4M4HBrLBamIgs1lmAmgLVsaVaL_h8CnWWLsg-p9dlVcpRuP3skosMm8vK_HOtloG3Kb2U4WCtWqmZGr-UKH_CMKXun_-UO7ANlsKxRZDcolr1uP7rqYd_6KSfy7rFljTQf-PkH16AdLah8z1xieVg0f3UsDVerPWkTU8DK_u3XtL36XpxlxZhnsdb8M-Y7jV6M5g6jdp2LV4PQJMoALSLSkIi10RIgfNbqi4fcVvnLWSe_SEIY4EglalZKqm-92ADFBzy6Wqlj9oL0O4UYYWAoLOSf0TH1595LZm5PyqrNFJU1LraY0t3S8OIgaiWI7Fkrp32n2hcMtHtErs1f52v5XQQnseJIfWPGDe1UXIAPBJGJQ-juONHFntlpzyycbNJcjOQQjFXkiV9xYsqcc7UPoaeMsxIJ7KnkaJisluqs2GrgWyzbuWmfETOt-t4kS-nBaD2TvTzDsJn_yr97r-K4p6Rx4Bc_Y984N_BTlYzWPboF5CuR7ucTf1sJyfokZBHwMDQ4FVe0V5RUjRazNDojoYUZgSZL_1AWaGS5fRj-AMDS0Ni-xljuUxy5Ck6NCHZUMR0aZ5_y0]--></g></svg>