<svg xmlns="http://www.w3.org/2000/svg" xmlns:xlink="http://www.w3.org/1999/xlink" contentStyleType="text/css" data-diagram-type="CLASS" height="1042px" preserveAspectRatio="none" style="width:1765px;height:1042px;background:#FFFFFF;" version="1.1" viewBox="0 0 1765 1042" width="1765px" zoomAndPan="magnify"><defs/><g><!--class PlantStatus--><g class="entity" data-entity="PlantStatus" data-source-line="2" data-uid="ent0002" id="entity_PlantStatus"><rect fill="#F1F1F1" height="129.4844" rx="2.5" ry="2.5" style="stroke:#181818;stroke-width:0.5;" width="127.5137" x="419.56" y="857.02"/><ellipse cx="441.593" cy="873.02" fill="#EB937F" rx="11" ry="11" style="stroke:#181818;stroke-width:1;"/><path d="M445.7024,879.02 L437.9836,879.02 L437.9836,866.6294 L445.7024,866.6294 L445.7024,868.7856 L440.4368,868.7856 L440.4368,871.4575 L445.2024,871.4575 L445.2024,873.6138 L440.4368,873.6138 L440.4368,876.8638 L445.7024,876.8638 L445.7024,879.02 Z " fill="#000000"/><text fill="#000000" font-family="sans-serif" font-size="14" lengthAdjust="spacing" textLength="79.8848" x="457.1559" y="877.8667">PlantStatus</text><line style="stroke:#181818;stroke-width:0.5;" x1="420.56" x2="546.0737" y1="889.02" y2="889.02"/><text fill="#000000" font-family="sans-serif" font-size="14" lengthAdjust="spacing" textLength="61.5986" x="425.56" y="906.0151">OPTIMAL</text><text fill="#000000" font-family="sans-serif" font-size="14" lengthAdjust="spacing" textLength="95.5732" x="425.56" y="922.312">MILD_STRESS</text><text fill="#000000" font-family="sans-serif" font-size="14" lengthAdjust="spacing" textLength="115.5137" x="425.56" y="938.6089">SEVERE_STRESS</text><text fill="#000000" font-family="sans-serif" font-size="14" lengthAdjust="spacing" textLength="92.9688" x="425.56" y="954.9057">RECOVERING</text><text fill="#000000" font-family="sans-serif" font-size="14" lengthAdjust="spacing" textLength="75.708" x="425.56" y="971.2026">UNKNOWN</text><line style="stroke:#181818;stroke-width:0.5;" x1="420.56" x2="546.0737" y1="978.5044" y2="978.5044"/></g><!--class DeviceStatus--><g class="entity" data-entity="DeviceStatus" data-source-line="10" data-uid="ent0003" id="entity_DeviceStatus"><rect fill="#F1F1F1" height="113.1875" rx="2.5" ry="2.5" style="stroke:#181818;stroke-width:0.5;" width="168.3516" x="1531.14" y="865.16"/><ellipse cx="1565.8776" cy="881.16" fill="#EB937F" rx="11" ry="11" style="stroke:#181818;stroke-width:1;"/><path d="M1569.987,887.16 L1562.2682,887.16 L1562.2682,874.7694 L1569.987,874.7694 L1569.987,876.9256 L1564.7213,876.9256 L1564.7213,879.5975 L1569.487,879.5975 L1569.487,881.7538 L1564.7213,881.7538 L1564.7213,885.0038 L1569.987,885.0038 L1569.987,887.16 Z " fill="#000000"/><text fill="#000000" font-family="sans-serif" font-size="14" lengthAdjust="spacing" textLength="92.4902" x="1584.2637" y="886.0067">DeviceStatus</text><line style="stroke:#181818;stroke-width:0.5;" x1="1532.14" x2="1698.4916" y1="897.16" y2="897.16"/><text fill="#000000" font-family="sans-serif" font-size="14" lengthAdjust="spacing" textLength="156.3516" x="1537.14" y="914.1551">PENDING_ACTIVATION</text><text fill="#000000" font-family="sans-serif" font-size="14" lengthAdjust="spacing" textLength="50.4561" x="1537.14" y="930.452">ACTIVE</text><text fill="#000000" font-family="sans-serif" font-size="14" lengthAdjust="spacing" textLength="65.0576" x="1537.14" y="946.7489">INACTIVE</text><text fill="#000000" font-family="sans-serif" font-size="14" lengthAdjust="spacing" textLength="102.7988" x="1537.14" y="963.0457">MAINTENANCE</text><line style="stroke:#181818;stroke-width:0.5;" x1="1532.14" x2="1698.4916" y1="970.3475" y2="970.3475"/></g><!--class ExperimentalGroupType--><g class="entity" data-entity="ExperimentalGroupType" data-source-line="17" data-uid="ent0004" id="entity_ExperimentalGroupType"><rect fill="#F1F1F1" height="96.8906" rx="2.5" ry="2.5" style="stroke:#181818;stroke-width:0.5;" width="202.625" x="7" y="577.19"/><ellipse cx="22" cy="593.19" fill="#EB937F" rx="11" ry="11" style="stroke:#181818;stroke-width:1;"/><path d="M26.1094,599.19 L18.3906,599.19 L18.3906,586.7994 L26.1094,586.7994 L26.1094,588.9556 L20.8438,588.9556 L20.8438,591.6275 L25.6094,591.6275 L25.6094,593.7838 L20.8438,593.7838 L20.8438,597.0338 L26.1094,597.0338 L26.1094,599.19 Z " fill="#000000"/><text fill="#000000" font-family="sans-serif" font-size="14" lengthAdjust="spacing" textLength="170.625" x="36" y="598.0367">ExperimentalGroupType</text><line style="stroke:#181818;stroke-width:0.5;" x1="8" x2="208.625" y1="609.19" y2="609.19"/><text fill="#000000" font-family="sans-serif" font-size="14" lengthAdjust="spacing" textLength="86.625" x="13" y="626.1851">MONITORED</text><text fill="#000000" font-family="sans-serif" font-size="14" lengthAdjust="spacing" textLength="68.3662" x="13" y="642.482">CONTROL</text><text fill="#000000" font-family="sans-serif" font-size="14" lengthAdjust="spacing" textLength="53.7852" x="13" y="658.7789">STRESS</text><line style="stroke:#181818;stroke-width:0.5;" x1="8" x2="208.625" y1="666.0806" y2="666.0806"/></g><!--class Crop--><g class="entity" data-entity="Crop" data-source-line="24" data-uid="ent0005" id="entity_Crop"><rect fill="#F1F1F1" height="145.7813" rx="2.5" ry="2.5" style="stroke:#181818;stroke-width:0.5;" width="182.4268" x="1190.1" y="7"/><ellipse cx="1260.5717" cy="23" fill="#ADD1B2" rx="11" ry="11" style="stroke:#181818;stroke-width:1;"/><path d="M1263.5404,28.6406 Q1262.9623,28.9375 1262.3217,29.0781 Q1261.6811,29.2344 1260.9779,29.2344 Q1258.4779,29.2344 1257.1498,27.5938 Q1255.8373,25.9375 1255.8373,22.8125 Q1255.8373,19.6875 1257.1498,18.0313 Q1258.4779,16.375 1260.9779,16.375 Q1261.6811,16.375 1262.3217,16.5313 Q1262.9779,16.6875 1263.5404,16.9844 L1263.5404,19.7031 Q1262.9154,19.125 1262.3217,18.8594 Q1261.7279,18.5781 1261.1029,18.5781 Q1259.7592,18.5781 1259.0717,19.6563 Q1258.3842,20.7188 1258.3842,22.8125 Q1258.3842,24.9063 1259.0717,25.9844 Q1259.7592,27.0469 1261.1029,27.0469 Q1261.7279,27.0469 1262.3217,26.7813 Q1262.9154,26.5 1263.5404,25.9219 L1263.5404,28.6406 Z " fill="#000000"/><text fill="#000000" font-family="sans-serif" font-size="14" lengthAdjust="spacing" textLength="32.9834" x="1281.0717" y="27.8467">Crop</text><line style="stroke:#181818;stroke-width:0.5;" x1="1191.1" x2="1371.5268" y1="39" y2="39"/><ellipse cx="1201.1" cy="52.6484" fill="none" rx="3" ry="3" style="stroke:#038048;stroke-width:1;"/><text fill="#000000" font-family="sans-serif" font-size="14" lengthAdjust="spacing" textLength="44.8848" x="1210.1" y="55.9951">Id : int</text><ellipse cx="1201.1" cy="68.9453" fill="none" rx="3" ry="3" style="stroke:#038048;stroke-width:1;"/><text fill="#000000" font-family="sans-serif" font-size="14" lengthAdjust="spacing" textLength="95.1084" x="1210.1" y="72.292">Name : string</text><ellipse cx="1201.1" cy="85.2422" fill="none" rx="3" ry="3" style="stroke:#038048;stroke-width:1;"/><text fill="#000000" font-family="sans-serif" font-size="14" lengthAdjust="spacing" textLength="117.5439" x="1210.1" y="88.5889">Address : string?</text><ellipse cx="1201.1" cy="101.5391" fill="none" rx="3" ry="3" style="stroke:#038048;stroke-width:1;"/><text fill="#000000" font-family="sans-serif" font-size="14" lengthAdjust="spacing" textLength="122.5479" x="1210.1" y="104.8857">CityName : string</text><ellipse cx="1201.1" cy="117.8359" fill="none" rx="3" ry="3" style="stroke:#038048;stroke-width:1;"/><text fill="#000000" font-family="sans-serif" font-size="14" lengthAdjust="spacing" textLength="152.5508" x="1210.1" y="121.1826">CreatedAt : DateTime</text><ellipse cx="1201.1" cy="134.1328" fill="none" rx="3" ry="3" style="stroke:#038048;stroke-width:1;"/><text fill="#000000" font-family="sans-serif" font-size="14" lengthAdjust="spacing" textLength="156.4268" x="1210.1" y="137.4795">UpdatedAt : DateTime</text><line style="stroke:#181818;stroke-width:0.5;" x1="1191.1" x2="1371.5268" y1="144.7813" y2="144.7813"/></g><!--class Plant--><g class="entity" data-entity="Plant" data-source-line="37" data-uid="ent0006" id="entity_Plant"><rect fill="#F1F1F1" height="178.375" rx="2.5" ry="2.5" style="stroke:#181818;stroke-width:0.5;" width="346.5303" x="727.05" y="229.78"/><ellipse cx="878.4284" cy="245.78" fill="#ADD1B2" rx="11" ry="11" style="stroke:#181818;stroke-width:1;"/><path d="M881.3972,251.4206 Q880.819,251.7175 880.1784,251.8581 Q879.5378,252.0144 878.8347,252.0144 Q876.3347,252.0144 875.0065,250.3738 Q873.694,248.7175 873.694,245.5925 Q873.694,242.4675 875.0065,240.8113 Q876.3347,239.155 878.8347,239.155 Q879.5378,239.155 880.1784,239.3113 Q880.8347,239.4675 881.3972,239.7644 L881.3972,242.4831 Q880.7722,241.905 880.1784,241.6394 Q879.5847,241.3581 878.9597,241.3581 Q877.6159,241.3581 876.9284,242.4363 Q876.2409,243.4988 876.2409,245.5925 Q876.2409,247.6863 876.9284,248.7644 Q877.6159,249.8269 878.9597,249.8269 Q879.5847,249.8269 880.1784,249.5613 Q880.7722,249.28 881.3972,248.7019 L881.3972,251.4206 Z " fill="#000000"/><text fill="#000000" font-family="sans-serif" font-size="14" lengthAdjust="spacing" textLength="35.2734" x="898.9284" y="250.6267">Plant</text><line style="stroke:#181818;stroke-width:0.5;" x1="728.05" x2="1072.5803" y1="261.78" y2="261.78"/><ellipse cx="738.05" cy="275.4284" fill="none" rx="3" ry="3" style="stroke:#038048;stroke-width:1;"/><text fill="#000000" font-family="sans-serif" font-size="14" lengthAdjust="spacing" textLength="44.8848" x="747.05" y="278.7751">Id : int</text><ellipse cx="738.05" cy="291.7253" fill="none" rx="3" ry="3" style="stroke:#038048;stroke-width:1;"/><text fill="#000000" font-family="sans-serif" font-size="14" lengthAdjust="spacing" textLength="95.1084" x="747.05" y="295.072">Name : string</text><ellipse cx="738.05" cy="308.0222" fill="none" rx="3" ry="3" style="stroke:#038048;stroke-width:1;"/><text fill="#000000" font-family="sans-serif" font-size="14" lengthAdjust="spacing" textLength="77.8682" x="747.05" y="311.3689">CropId : int</text><ellipse cx="738.05" cy="324.3191" fill="none" rx="3" ry="3" style="stroke:#038048;stroke-width:1;"/><text fill="#000000" font-family="sans-serif" font-size="14" lengthAdjust="spacing" textLength="138.1133" x="747.05" y="327.6657">Status : PlantStatus</text><ellipse cx="738.05" cy="340.6159" fill="none" rx="3" ry="3" style="stroke:#038048;stroke-width:1;"/><text fill="#000000" font-family="sans-serif" font-size="14" lengthAdjust="spacing" textLength="172.6074" x="747.05" y="343.9626">RegisteredAt : DateTime</text><ellipse cx="738.05" cy="356.9128" fill="none" rx="3" ry="3" style="stroke:#038048;stroke-width:1;"/><text fill="#000000" font-family="sans-serif" font-size="14" lengthAdjust="spacing" textLength="156.4268" x="747.05" y="360.2595">UpdatedAt : DateTime</text><ellipse cx="738.05" cy="373.2097" fill="none" rx="3" ry="3" style="stroke:#038048;stroke-width:1;"/><text fill="#000000" font-family="sans-serif" font-size="14" lengthAdjust="spacing" textLength="188.624" x="747.05" y="376.5564">ThermalMaskData : string?</text><ellipse cx="738.05" cy="389.5066" fill="none" rx="3" ry="3" style="stroke:#038048;stroke-width:1;"/><text fill="#000000" font-family="sans-serif" font-size="14" lengthAdjust="spacing" textLength="320.5303" x="747.05" y="392.8532">ExperimentalGroup : ExperimentalGroupType</text><line style="stroke:#181818;stroke-width:0.5;" x1="728.05" x2="1072.5803" y1="400.155" y2="400.155"/></g><!--class Device--><g class="entity" data-entity="Device" data-source-line="55" data-uid="ent0007" id="entity_Device"><rect fill="#F1F1F1" height="210.9688" rx="2.5" ry="2.5" style="stroke:#181818;stroke-width:0.5;" width="286.9961" x="1471.81" y="520.16"/><ellipse cx="1587.1186" cy="536.16" fill="#ADD1B2" rx="11" ry="11" style="stroke:#181818;stroke-width:1;"/><path d="M1590.0873,541.8006 Q1589.5092,542.0975 1588.8686,542.2381 Q1588.228,542.3944 1587.5248,542.3944 Q1585.0248,542.3944 1583.6967,540.7538 Q1582.3842,539.0975 1582.3842,535.9725 Q1582.3842,532.8475 1583.6967,531.1913 Q1585.0248,529.535 1587.5248,529.535 Q1588.228,529.535 1588.8686,529.6913 Q1589.5248,529.8475 1590.0873,530.1444 L1590.0873,532.8631 Q1589.4623,532.285 1588.8686,532.0194 Q1588.2748,531.7381 1587.6498,531.7381 Q1586.3061,531.7381 1585.6186,532.8163 Q1584.9311,533.8788 1584.9311,535.9725 Q1584.9311,538.0663 1585.6186,539.1444 Q1586.3061,540.2069 1587.6498,540.2069 Q1588.2748,540.2069 1588.8686,539.9413 Q1589.4623,539.66 1590.0873,539.0819 L1590.0873,541.8006 Z " fill="#000000"/><text fill="#000000" font-family="sans-serif" font-size="14" lengthAdjust="spacing" textLength="47.8789" x="1607.6186" y="541.0067">Device</text><line style="stroke:#181818;stroke-width:0.5;" x1="1472.81" x2="1757.8061" y1="552.16" y2="552.16"/><ellipse cx="1482.81" cy="565.8084" fill="none" rx="3" ry="3" style="stroke:#038048;stroke-width:1;"/><text fill="#000000" font-family="sans-serif" font-size="14" lengthAdjust="spacing" textLength="44.8848" x="1491.81" y="569.1551">Id : int</text><ellipse cx="1482.81" cy="582.1053" fill="none" rx="3" ry="3" style="stroke:#038048;stroke-width:1;"/><text fill="#000000" font-family="sans-serif" font-size="14" lengthAdjust="spacing" textLength="95.1084" x="1491.81" y="585.452">Name : string</text><ellipse cx="1482.81" cy="598.4022" fill="none" rx="3" ry="3" style="stroke:#038048;stroke-width:1;"/><text fill="#000000" font-family="sans-serif" font-size="14" lengthAdjust="spacing" textLength="145.8994" x="1491.81" y="601.7489">MacAddress : string?</text><ellipse cx="1482.81" cy="614.6991" fill="none" rx="3" ry="3" style="stroke:#038048;stroke-width:1;"/><text fill="#000000" font-family="sans-serif" font-size="14" lengthAdjust="spacing" textLength="140.9707" x="1491.81" y="618.0457">Description : string?</text><ellipse cx="1482.81" cy="630.9959" fill="none" rx="3" ry="3" style="stroke:#038048;stroke-width:1;"/><text fill="#000000" font-family="sans-serif" font-size="14" lengthAdjust="spacing" textLength="87.5889" x="1491.81" y="634.3426">PlantId : int?</text><ellipse cx="1482.81" cy="647.2928" fill="none" rx="3" ry="3" style="stroke:#038048;stroke-width:1;"/><text fill="#000000" font-family="sans-serif" font-size="14" lengthAdjust="spacing" textLength="77.8682" x="1491.81" y="650.6395">CropId : int</text><ellipse cx="1482.81" cy="663.5897" fill="none" rx="3" ry="3" style="stroke:#038048;stroke-width:1;"/><text fill="#000000" font-family="sans-serif" font-size="14" lengthAdjust="spacing" textLength="260.9961" x="1491.81" y="666.9364">DataCollectionIntervalMinutes : short</text><ellipse cx="1482.81" cy="679.8866" fill="none" rx="3" ry="3" style="stroke:#038048;stroke-width:1;"/><text fill="#000000" font-family="sans-serif" font-size="14" lengthAdjust="spacing" textLength="172.6074" x="1491.81" y="683.2332">RegisteredAt : DateTime</text><ellipse cx="1482.81" cy="696.1834" fill="none" rx="3" ry="3" style="stroke:#038048;stroke-width:1;"/><text fill="#000000" font-family="sans-serif" font-size="14" lengthAdjust="spacing" textLength="156.4268" x="1491.81" y="699.5301">UpdatedAt : DateTime</text><ellipse cx="1482.81" cy="712.4803" fill="none" rx="3" ry="3" style="stroke:#038048;stroke-width:1;"/><text fill="#000000" font-family="sans-serif" font-size="14" lengthAdjust="spacing" textLength="150.7188" x="1491.81" y="715.827">Status : DeviceStatus</text><line style="stroke:#181818;stroke-width:0.5;" x1="1472.81" x2="1757.8061" y1="723.1288" y2="723.1288"/></g><!--class EnvironmentalReading--><g class="entity" data-entity="EnvironmentalReading" data-source-line="74" data-uid="ent0008" id="entity_EnvironmentalReading"><rect fill="#F1F1F1" height="227.2656" rx="2.5" ry="2.5" style="stroke:#181818;stroke-width:0.5;" width="244.8936" x="954.87" y="808.12"/><ellipse cx="993.8404" cy="824.12" fill="#ADD1B2" rx="11" ry="11" style="stroke:#181818;stroke-width:1;"/><path d="M996.8092,829.7606 Q996.231,830.0575 995.5904,830.1981 Q994.9498,830.3544 994.2467,830.3544 Q991.7467,830.3544 990.4185,828.7138 Q989.106,827.0575 989.106,823.9325 Q989.106,820.8075 990.4185,819.1513 Q991.7467,817.495 994.2467,817.495 Q994.9498,817.495 995.5904,817.6513 Q996.2467,817.8075 996.8092,818.1044 L996.8092,820.8231 Q996.1842,820.245 995.5904,819.9794 Q994.9967,819.6981 994.3717,819.6981 Q993.0279,819.6981 992.3404,820.7763 Q991.6529,821.8388 991.6529,823.9325 Q991.6529,826.0263 992.3404,827.1044 Q993.0279,828.1669 994.3717,828.1669 Q994.9967,828.1669 995.5904,827.9013 Q996.1842,827.62 996.8092,827.0419 L996.8092,829.7606 Z " fill="#000000"/><text fill="#000000" font-family="sans-serif" font-size="14" lengthAdjust="spacing" textLength="159.626" x="1013.1672" y="828.9667">EnvironmentalReading</text><line style="stroke:#181818;stroke-width:0.5;" x1="955.87" x2="1198.7636" y1="840.12" y2="840.12"/><ellipse cx="965.87" cy="853.7684" fill="none" rx="3" ry="3" style="stroke:#038048;stroke-width:1;"/><text fill="#000000" font-family="sans-serif" font-size="14" lengthAdjust="spacing" textLength="56.8477" x="974.87" y="857.1151">Id : long</text><ellipse cx="965.87" cy="870.0653" fill="none" rx="3" ry="3" style="stroke:#038048;stroke-width:1;"/><text fill="#000000" font-family="sans-serif" font-size="14" lengthAdjust="spacing" textLength="92.7637" x="974.87" y="873.412">DeviceId : int</text><ellipse cx="965.87" cy="886.3622" fill="none" rx="3" ry="3" style="stroke:#038048;stroke-width:1;"/><text fill="#000000" font-family="sans-serif" font-size="14" lengthAdjust="spacing" textLength="87.5889" x="974.87" y="889.7089">PlantId : int?</text><ellipse cx="965.87" cy="902.6591" fill="none" rx="3" ry="3" style="stroke:#038048;stroke-width:1;"/><text fill="#000000" font-family="sans-serif" font-size="14" lengthAdjust="spacing" textLength="136.4385" x="974.87" y="906.0057">Temperature : float</text><ellipse cx="965.87" cy="918.9559" fill="none" rx="3" ry="3" style="stroke:#038048;stroke-width:1;"/><text fill="#000000" font-family="sans-serif" font-size="14" lengthAdjust="spacing" textLength="108.5479" x="974.87" y="922.3026">Humidity : float</text><ellipse cx="965.87" cy="935.2528" fill="none" rx="3" ry="3" style="stroke:#038048;stroke-width:1;"/><text fill="#000000" font-family="sans-serif" font-size="14" lengthAdjust="spacing" textLength="171.3086" x="974.87" y="938.5995">CityTemperature : float?</text><ellipse cx="965.87" cy="951.5497" fill="none" rx="3" ry="3" style="stroke:#038048;stroke-width:1;"/><text fill="#000000" font-family="sans-serif" font-size="14" lengthAdjust="spacing" textLength="143.418" x="974.87" y="954.8964">CityHumidity : float?</text><ellipse cx="965.87" cy="967.8466" fill="none" rx="3" ry="3" style="stroke:#038048;stroke-width:1;"/><text fill="#000000" font-family="sans-serif" font-size="14" lengthAdjust="spacing" textLength="215.25" x="974.87" y="971.1932">CityWeatherCondition : string?</text><ellipse cx="965.87" cy="984.1434" fill="none" rx="3" ry="3" style="stroke:#038048;stroke-width:1;"/><text fill="#000000" font-family="sans-serif" font-size="14" lengthAdjust="spacing" textLength="131.6191" x="974.87" y="987.4901">ExtraData : string?</text><ellipse cx="965.87" cy="1000.4403" fill="none" rx="3" ry="3" style="stroke:#038048;stroke-width:1;"/><text fill="#000000" font-family="sans-serif" font-size="14" lengthAdjust="spacing" textLength="209.4941" x="974.87" y="1003.787">RecordedAtServer : DateTime</text><ellipse cx="965.87" cy="1016.7372" fill="none" rx="3" ry="3" style="stroke:#038048;stroke-width:1;"/><text fill="#000000" font-family="sans-serif" font-size="14" lengthAdjust="spacing" textLength="218.8936" x="974.87" y="1020.0839">RecordedAtDevice : DateTime?</text><line style="stroke:#181818;stroke-width:0.5;" x1="955.87" x2="1198.7636" y1="1027.3856" y2="1027.3856"/></g><!--class ThermalCapture--><g class="entity" data-entity="ThermalCapture" data-source-line="88" data-uid="ent0009" id="entity_ThermalCapture"><rect fill="#F1F1F1" height="162.0781" rx="2.5" ry="2.5" style="stroke:#181818;stroke-width:0.5;" width="244.8936" x="1245.87" y="840.72"/><ellipse cx="1307.1303" cy="856.72" fill="#ADD1B2" rx="11" ry="11" style="stroke:#181818;stroke-width:1;"/><path d="M1310.099,862.3606 Q1309.5209,862.6575 1308.8803,862.7981 Q1308.2396,862.9544 1307.5365,862.9544 Q1305.0365,862.9544 1303.7084,861.3138 Q1302.3959,859.6575 1302.3959,856.5325 Q1302.3959,853.4075 1303.7084,851.7513 Q1305.0365,850.095 1307.5365,850.095 Q1308.2396,850.095 1308.8803,850.2513 Q1309.5365,850.4075 1310.099,850.7044 L1310.099,853.4231 Q1309.474,852.845 1308.8803,852.5794 Q1308.2865,852.2981 1307.6615,852.2981 Q1306.3178,852.2981 1305.6303,853.3763 Q1304.9428,854.4388 1304.9428,856.5325 Q1304.9428,858.6263 1305.6303,859.7044 Q1306.3178,860.7669 1307.6615,860.7669 Q1308.2865,860.7669 1308.8803,860.5013 Q1309.474,860.22 1310.099,859.6419 L1310.099,862.3606 Z " fill="#000000"/><text fill="#000000" font-family="sans-serif" font-size="14" lengthAdjust="spacing" textLength="113.873" x="1327.6303" y="861.5667">ThermalCapture</text><line style="stroke:#181818;stroke-width:0.5;" x1="1246.87" x2="1489.7636" y1="872.72" y2="872.72"/><ellipse cx="1256.87" cy="886.3684" fill="none" rx="3" ry="3" style="stroke:#038048;stroke-width:1;"/><text fill="#000000" font-family="sans-serif" font-size="14" lengthAdjust="spacing" textLength="56.8477" x="1265.87" y="889.7151">Id : long</text><ellipse cx="1256.87" cy="902.6653" fill="none" rx="3" ry="3" style="stroke:#038048;stroke-width:1;"/><text fill="#000000" font-family="sans-serif" font-size="14" lengthAdjust="spacing" textLength="92.7637" x="1265.87" y="906.012">DeviceId : int</text><ellipse cx="1256.87" cy="918.9622" fill="none" rx="3" ry="3" style="stroke:#038048;stroke-width:1;"/><text fill="#000000" font-family="sans-serif" font-size="14" lengthAdjust="spacing" textLength="87.5889" x="1265.87" y="922.3089">PlantId : int?</text><ellipse cx="1256.87" cy="935.2591" fill="none" rx="3" ry="3" style="stroke:#038048;stroke-width:1;"/><text fill="#000000" font-family="sans-serif" font-size="14" lengthAdjust="spacing" textLength="180.8721" x="1265.87" y="938.6057">ThermalDataStats : string</text><ellipse cx="1256.87" cy="951.5559" fill="none" rx="3" ry="3" style="stroke:#038048;stroke-width:1;"/><text fill="#000000" font-family="sans-serif" font-size="14" lengthAdjust="spacing" textLength="163.9668" x="1265.87" y="954.9026">RgbImagePath : string?</text><ellipse cx="1256.87" cy="967.8528" fill="none" rx="3" ry="3" style="stroke:#038048;stroke-width:1;"/><text fill="#000000" font-family="sans-serif" font-size="14" lengthAdjust="spacing" textLength="209.4941" x="1265.87" y="971.1995">RecordedAtServer : DateTime</text><ellipse cx="1256.87" cy="984.1497" fill="none" rx="3" ry="3" style="stroke:#038048;stroke-width:1;"/><text fill="#000000" font-family="sans-serif" font-size="14" lengthAdjust="spacing" textLength="218.8936" x="1265.87" y="987.4964">RecordedAtDevice : DateTime?</text><line style="stroke:#181818;stroke-width:0.5;" x1="1246.87" x2="1489.7636" y1="994.7981" y2="994.7981"/></g><!--class AnalysisResult--><g class="entity" data-entity="AnalysisResult" data-source-line="98" data-uid="ent0010" id="entity_AnalysisResult"><rect fill="#F1F1F1" height="210.9688" rx="2.5" ry="2.5" style="stroke:#181818;stroke-width:0.5;" width="228.8359" x="535.89" y="520.16"/><ellipse cx="595.2738" cy="536.16" fill="#ADD1B2" rx="11" ry="11" style="stroke:#181818;stroke-width:1;"/><path d="M598.2425,541.8006 Q597.6644,542.0975 597.0238,542.2381 Q596.3832,542.3944 595.68,542.3944 Q593.18,542.3944 591.8519,540.7538 Q590.5394,539.0975 590.5394,535.9725 Q590.5394,532.8475 591.8519,531.1913 Q593.18,529.535 595.68,529.535 Q596.3832,529.535 597.0238,529.6913 Q597.68,529.8475 598.2425,530.1444 L598.2425,532.8631 Q597.6175,532.285 597.0238,532.0194 Q596.43,531.7381 595.805,531.7381 Q594.4613,531.7381 593.7738,532.8163 Q593.0863,533.8788 593.0863,535.9725 Q593.0863,538.0663 593.7738,539.1444 Q594.4613,540.2069 595.805,540.2069 Q596.43,540.2069 597.0238,539.9413 Q597.6175,539.66 598.2425,539.0819 L598.2425,541.8006 Z " fill="#000000"/><text fill="#000000" font-family="sans-serif" font-size="14" lengthAdjust="spacing" textLength="101.5684" x="615.7738" y="541.0067">AnalysisResult</text><line style="stroke:#181818;stroke-width:0.5;" x1="536.89" x2="763.7259" y1="552.16" y2="552.16"/><ellipse cx="546.89" cy="565.8084" fill="none" rx="3" ry="3" style="stroke:#038048;stroke-width:1;"/><text fill="#000000" font-family="sans-serif" font-size="14" lengthAdjust="spacing" textLength="56.8477" x="555.89" y="569.1551">Id : long</text><ellipse cx="546.89" cy="582.1053" fill="none" rx="3" ry="3" style="stroke:#038048;stroke-width:1;"/><text fill="#000000" font-family="sans-serif" font-size="14" lengthAdjust="spacing" textLength="80.1582" x="555.89" y="585.452">PlantId : int</text><ellipse cx="546.89" cy="598.4022" fill="none" rx="3" ry="3" style="stroke:#038048;stroke-width:1;"/><text fill="#000000" font-family="sans-serif" font-size="14" lengthAdjust="spacing" textLength="163.584" x="555.89" y="601.7489">RecordedAt : DateTime</text><ellipse cx="546.89" cy="614.6991" fill="none" rx="3" ry="3" style="stroke:#038048;stroke-width:1;"/><text fill="#000000" font-family="sans-serif" font-size="14" lengthAdjust="spacing" textLength="124.4414" x="555.89" y="618.0457">CwsiValue : float?</text><ellipse cx="546.89" cy="630.9959" fill="none" rx="3" ry="3" style="stroke:#038048;stroke-width:1;"/><text fill="#000000" font-family="sans-serif" font-size="14" lengthAdjust="spacing" textLength="138.1133" x="555.89" y="634.3426">Status : PlantStatus</text><ellipse cx="546.89" cy="647.2928" fill="none" rx="3" ry="3" style="stroke:#038048;stroke-width:1;"/><text fill="#000000" font-family="sans-serif" font-size="14" lengthAdjust="spacing" textLength="196.834" x="555.89" y="650.6395">CanopyTemperature : float?</text><ellipse cx="546.89" cy="663.5897" fill="none" rx="3" ry="3" style="stroke:#038048;stroke-width:1;"/><text fill="#000000" font-family="sans-serif" font-size="14" lengthAdjust="spacing" textLength="202.8359" x="555.89" y="666.9364">AmbientTemperature : float?</text><ellipse cx="546.89" cy="679.8866" fill="none" rx="3" ry="3" style="stroke:#038048;stroke-width:1;"/><text fill="#000000" font-family="sans-serif" font-size="14" lengthAdjust="spacing" textLength="79.8506" x="555.89" y="683.2332">Vpd : float?</text><ellipse cx="546.89" cy="696.1834" fill="none" rx="3" ry="3" style="stroke:#038048;stroke-width:1;"/><text fill="#000000" font-family="sans-serif" font-size="14" lengthAdjust="spacing" textLength="145.9609" x="555.89" y="699.5301">BaselineTwet : float?</text><ellipse cx="546.89" cy="712.4803" fill="none" rx="3" ry="3" style="stroke:#038048;stroke-width:1;"/><text fill="#000000" font-family="sans-serif" font-size="14" lengthAdjust="spacing" textLength="143.3359" x="555.89" y="715.827">BaselineTdry : float?</text><line style="stroke:#181818;stroke-width:0.5;" x1="536.89" x2="763.7259" y1="723.1288" y2="723.1288"/></g><!--class PlantStatusHistory--><g class="entity" data-entity="PlantStatusHistory" data-source-line="111" data-uid="ent0011" id="entity_PlantStatusHistory"><rect fill="#F1F1F1" height="145.7813" rx="2.5" ry="2.5" style="stroke:#181818;stroke-width:0.5;" width="185.3252" x="244.65" y="552.75"/><ellipse cx="270.2852" cy="568.75" fill="#ADD1B2" rx="11" ry="11" style="stroke:#181818;stroke-width:1;"/><path d="M273.254,574.3906 Q272.6758,574.6875 272.0352,574.8281 Q271.3946,574.9844 270.6915,574.9844 Q268.1915,574.9844 266.8633,573.3438 Q265.5508,571.6875 265.5508,568.5625 Q265.5508,565.4375 266.8633,563.7813 Q268.1915,562.125 270.6915,562.125 Q271.3946,562.125 272.0352,562.2813 Q272.6915,562.4375 273.254,562.7344 L273.254,565.4531 Q272.629,564.875 272.0352,564.6094 Q271.4415,564.3281 270.8165,564.3281 Q269.4727,564.3281 268.7852,565.4063 Q268.0977,566.4688 268.0977,568.5625 Q268.0977,570.6563 268.7852,571.7344 Q269.4727,572.7969 270.8165,572.7969 Q271.4415,572.7969 272.0352,572.5313 Q272.629,572.25 273.254,571.6719 L273.254,574.3906 Z " fill="#000000"/><text fill="#000000" font-family="sans-serif" font-size="14" lengthAdjust="spacing" textLength="129.6914" x="286.6486" y="573.5967">PlantStatusHistory</text><line style="stroke:#181818;stroke-width:0.5;" x1="245.65" x2="428.9752" y1="584.75" y2="584.75"/><ellipse cx="255.65" cy="598.3984" fill="none" rx="3" ry="3" style="stroke:#038048;stroke-width:1;"/><text fill="#000000" font-family="sans-serif" font-size="14" lengthAdjust="spacing" textLength="56.8477" x="264.65" y="601.7451">Id : long</text><ellipse cx="255.65" cy="614.6953" fill="none" rx="3" ry="3" style="stroke:#038048;stroke-width:1;"/><text fill="#000000" font-family="sans-serif" font-size="14" lengthAdjust="spacing" textLength="80.1582" x="264.65" y="618.042">PlantId : int</text><ellipse cx="255.65" cy="630.9922" fill="none" rx="3" ry="3" style="stroke:#038048;stroke-width:1;"/><text fill="#000000" font-family="sans-serif" font-size="14" lengthAdjust="spacing" textLength="138.1133" x="264.65" y="634.3389">Status : PlantStatus</text><ellipse cx="255.65" cy="647.2891" fill="none" rx="3" ry="3" style="stroke:#038048;stroke-width:1;"/><text fill="#000000" font-family="sans-serif" font-size="14" lengthAdjust="spacing" textLength="146.4873" x="264.65" y="650.6357">Observation : string?</text><ellipse cx="255.65" cy="663.5859" fill="none" rx="3" ry="3" style="stroke:#038048;stroke-width:1;"/><text fill="#000000" font-family="sans-serif" font-size="14" lengthAdjust="spacing" textLength="84.2256" x="264.65" y="666.9326">UserId : int?</text><ellipse cx="255.65" cy="679.8828" fill="none" rx="3" ry="3" style="stroke:#038048;stroke-width:1;"/><text fill="#000000" font-family="sans-serif" font-size="14" lengthAdjust="spacing" textLength="159.3252" x="264.65" y="683.2295">ChangedAt : DateTime</text><line style="stroke:#181818;stroke-width:0.5;" x1="245.65" x2="428.9752" y1="690.5313" y2="690.5313"/></g><!--class Observation--><g class="entity" data-entity="Observation" data-source-line="120" data-uid="ent0012" id="entity_Observation"><rect fill="#F1F1F1" height="145.7813" rx="2.5" ry="2.5" style="stroke:#181818;stroke-width:0.5;" width="201.5947" x="799.52" y="552.75"/><ellipse cx="853.4419" cy="568.75" fill="#ADD1B2" rx="11" ry="11" style="stroke:#181818;stroke-width:1;"/><path d="M856.4106,574.3906 Q855.8325,574.6875 855.1919,574.8281 Q854.5513,574.9844 853.8481,574.9844 Q851.3481,574.9844 850.02,573.3438 Q848.7075,571.6875 848.7075,568.5625 Q848.7075,565.4375 850.02,563.7813 Q851.3481,562.125 853.8481,562.125 Q854.5513,562.125 855.1919,562.2813 Q855.8481,562.4375 856.4106,562.7344 L856.4106,565.4531 Q855.7856,564.875 855.1919,564.6094 Q854.5981,564.3281 853.9731,564.3281 Q852.6294,564.3281 851.9419,565.4063 Q851.2544,566.4688 851.2544,568.5625 Q851.2544,570.6563 851.9419,571.7344 Q852.6294,572.7969 853.9731,572.7969 Q854.5981,572.7969 855.1919,572.5313 Q855.7856,572.25 856.4106,571.6719 L856.4106,574.3906 Z " fill="#000000"/><text fill="#000000" font-family="sans-serif" font-size="14" lengthAdjust="spacing" textLength="85.251" x="873.9419" y="573.5967">Observation</text><line style="stroke:#181818;stroke-width:0.5;" x1="800.52" x2="1000.1147" y1="584.75" y2="584.75"/><ellipse cx="810.52" cy="598.3984" fill="none" rx="3" ry="3" style="stroke:#038048;stroke-width:1;"/><text fill="#000000" font-family="sans-serif" font-size="14" lengthAdjust="spacing" textLength="44.8848" x="819.52" y="601.7451">Id : int</text><ellipse cx="810.52" cy="614.6953" fill="none" rx="3" ry="3" style="stroke:#038048;stroke-width:1;"/><text fill="#000000" font-family="sans-serif" font-size="14" lengthAdjust="spacing" textLength="80.1582" x="819.52" y="618.042">PlantId : int</text><ellipse cx="810.52" cy="630.9922" fill="none" rx="3" ry="3" style="stroke:#038048;stroke-width:1;"/><text fill="#000000" font-family="sans-serif" font-size="14" lengthAdjust="spacing" textLength="76.7949" x="819.52" y="634.3389">UserId : int</text><ellipse cx="810.52" cy="647.2891" fill="none" rx="3" ry="3" style="stroke:#038048;stroke-width:1;"/><text fill="#000000" font-family="sans-serif" font-size="14" lengthAdjust="spacing" textLength="133.54" x="819.52" y="650.6357">Description : string</text><ellipse cx="810.52" cy="663.5859" fill="none" rx="3" ry="3" style="stroke:#038048;stroke-width:1;"/><text fill="#000000" font-family="sans-serif" font-size="14" lengthAdjust="spacing" textLength="175.5947" x="819.52" y="666.9326">SubjectiveRating : short?</text><ellipse cx="810.52" cy="679.8828" fill="none" rx="3" ry="3" style="stroke:#038048;stroke-width:1;"/><text fill="#000000" font-family="sans-serif" font-size="14" lengthAdjust="spacing" textLength="152.5508" x="819.52" y="683.2295">CreatedAt : DateTime</text><line style="stroke:#181818;stroke-width:0.5;" x1="800.52" x2="1000.1147" y1="690.5313" y2="690.5313"/></g><!--reverse link Crop to Plant--><g class="link" data-entity-1="Crop" data-entity-2="Plant" data-source-line="133" data-uid="lnk13" id="link_Crop_Plant"><path codeLine="133" d="M1179.8608,144.0188 C1135.7208,171.4788 1091.91,198.74 1042.54,229.47" fill="none" id="Crop-backto-Plant" style="stroke:#181818;stroke-width:1;"/><polygon fill="#181818" points="1190.05,137.68,1182.8425,137.453,1179.8608,144.0188,1187.0683,144.2458,1190.05,137.68" style="stroke:#181818;stroke-width:1;"/><text fill="#000000" font-family="sans-serif" font-size="13" lengthAdjust="spacing" textLength="58.2144" x="1114.31" y="195.8469">Contiene</text><text fill="#000000" font-family="sans-serif" font-size="13" lengthAdjust="spacing" textLength="8.271" x="1173.8749" y="139.0743">1</text><text fill="#000000" font-family="sans-serif" font-size="13" lengthAdjust="spacing" textLength="6.5" x="1047.6544" y="218.8127">*</text></g><!--link Crop to Device--><g class="link" data-entity-1="Crop" data-entity-2="Device" data-source-line="134" data-uid="lnk14" id="link_Crop_Device"><path codeLine="134" d="M1353.55,152.96 C1417.89,220.99 1510.13,328.66 1565.31,438.16 C1578.06,463.45 1587.84,492.36 1595.22,519.75" fill="none" id="Crop-Device" style="stroke:#181818;stroke-width:1;"/><text fill="#000000" font-family="sans-serif" font-size="13" lengthAdjust="spacing" textLength="58.2144" x="1549.31" y="323.5369">Contiene</text><text fill="#000000" font-family="sans-serif" font-size="13" lengthAdjust="spacing" textLength="8.271" x="1352.2804" y="172.9645">1</text><text fill="#000000" font-family="sans-serif" font-size="13" lengthAdjust="spacing" textLength="6.5" x="1587.6856" y="509.2027">*</text></g><!--reverse link Plant to Device--><g class="link" data-entity-1="Plant" data-entity-2="Device" data-source-line="136" data-uid="lnk15" id="link_Plant_Device"><path codeLine="136" d="M1085.5729,360.8947 C1161.3929,380.3647 1238.68,404.23 1315.31,438.16 C1368.44,461.68 1423.34,493.34 1471.42,523.88" fill="none" id="Plant-backto-Device" style="stroke:#181818;stroke-width:1;"/><polygon fill="none" points="1073.95,357.91,1078.7666,363.2766,1085.5729,360.8947,1080.7563,355.528,1073.95,357.91" style="stroke:#181818;stroke-width:1;"/><text fill="#000000" font-family="sans-serif" font-size="13" lengthAdjust="spacing" textLength="70.6494" x="1448.4169" y="451.2269">Asociado a</text><path d="M1414.31,460.2928 L1414.31,485.2928 L1552.31,485.2928 L1552.31,470.2928 L1542.31,460.2928 L1414.31,460.2928" fill="#FEFFDD" style="stroke:#181818;stroke-width:0.5;"/><path d="M1542.31,460.2928 L1542.31,470.2928 L1552.31,470.2928 L1542.31,460.2928" fill="#FEFFDD" style="stroke:#181818;stroke-width:0.5;"/><text fill="#000000" font-family="sans-serif" font-size="13" lengthAdjust="spacing" textLength="117.8633" x="1420.31" y="477.3597">OnDelete(SetNull)</text><text fill="#000000" font-family="sans-serif" font-size="13" lengthAdjust="spacing" textLength="8.271" x="1081.4497" y="356.3062">1</text><text fill="#000000" font-family="sans-serif" font-size="13" lengthAdjust="spacing" textLength="6.5" x="1457.4007" y="514.9751">*</text></g><!--link Plant to EnvironmentalReading--><g class="link" data-entity-1="Plant" data-entity-2="EnvironmentalReading" data-source-line="140" data-uid="lnk16" id="link_Plant_EnvironmentalReading"><path codeLine="140" d="M962.48,408.51 C983.31,442.08 1004.68,481.54 1018.31,520.16 C1051.37,613.79 1065.91,726.05 1072.3,807.88" fill="none" id="Plant-EnvironmentalReading" style="stroke:#181818;stroke-width:1;"/><text fill="#000000" font-family="sans-serif" font-size="13" lengthAdjust="spacing" textLength="47.6201" x="1113.9316" y="612.7069">Genera</text><path d="M1068.31,621.7728 L1068.31,646.7728 L1206.31,646.7728 L1206.31,631.7728 L1196.31,621.7728 L1068.31,621.7728" fill="#FEFFDD" style="stroke:#181818;stroke-width:0.5;"/><path d="M1196.31,621.7728 L1196.31,631.7728 L1206.31,631.7728 L1196.31,621.7728" fill="#FEFFDD" style="stroke:#181818;stroke-width:0.5;"/><text fill="#000000" font-family="sans-serif" font-size="13" lengthAdjust="spacing" textLength="117.8633" x="1074.31" y="638.8397">OnDelete(SetNull)</text><text fill="#000000" font-family="sans-serif" font-size="13" lengthAdjust="spacing" textLength="8.271" x="959.1258" y="428.3153">1</text><text fill="#000000" font-family="sans-serif" font-size="13" lengthAdjust="spacing" textLength="6.5" x="1065.8024" y="797.1757">*</text></g><!--link Plant to ThermalCapture--><g class="link" data-entity-1="Plant" data-entity-2="ThermalCapture" data-source-line="143" data-uid="lnk17" id="link_Plant_ThermalCapture"><path codeLine="143" d="M1073.99,400.44 C1126.47,431.66 1180.43,471.72 1219.31,520.16 C1295.52,615.08 1268.27,664.26 1311.31,778.12 C1318.95,798.33 1327.46,820.03 1335.53,840.25" fill="none" id="Plant-ThermalCapture" style="stroke:#181818;stroke-width:1;"/><text fill="#000000" font-family="sans-serif" font-size="13" lengthAdjust="spacing" textLength="47.6201" x="1345.9316" y="612.7069">Genera</text><path d="M1300.31,621.7728 L1300.31,646.7728 L1438.31,646.7728 L1438.31,631.7728 L1428.31,621.7728 L1300.31,621.7728" fill="#FEFFDD" style="stroke:#181818;stroke-width:0.5;"/><path d="M1428.31,621.7728 L1428.31,631.7728 L1438.31,631.7728 L1428.31,621.7728" fill="#FEFFDD" style="stroke:#181818;stroke-width:0.5;"/><text fill="#000000" font-family="sans-serif" font-size="13" lengthAdjust="spacing" textLength="117.8633" x="1306.31" y="638.8397">OnDelete(SetNull)</text><text fill="#000000" font-family="sans-serif" font-size="13" lengthAdjust="spacing" textLength="8.271" x="1081.4914" y="400.6304">1</text><text fill="#000000" font-family="sans-serif" font-size="13" lengthAdjust="spacing" textLength="6.5" x="1326.4761" y="829.6734">*</text></g><!--link Plant to AnalysisResult--><g class="link" data-entity-1="Plant" data-entity-2="AnalysisResult" data-source-line="146" data-uid="lnk18" id="link_Plant_AnalysisResult"><path codeLine="146" d="M827.67,408.5 C799.12,443.29 766.13,483.49 736.4,519.72" fill="none" id="Plant-AnalysisResult" style="stroke:#181818;stroke-width:1;"/><text fill="#000000" font-family="sans-serif" font-size="13" lengthAdjust="spacing" textLength="8.271" x="813.5731" y="428.3045">1</text><text fill="#000000" font-family="sans-serif" font-size="13" lengthAdjust="spacing" textLength="6.5" x="735.9995" y="509.1707">*</text></g><!--link Plant to PlantStatusHistory--><g class="link" data-entity-1="Plant" data-entity-2="PlantStatusHistory" data-source-line="147" data-uid="lnk19" id="link_Plant_PlantStatusHistory"><path codeLine="147" d="M726.68,336.38 C639.22,351.67 535.47,381.19 457.31,438.16 C417.64,467.07 387.72,513.44 367.68,552.71" fill="none" id="Plant-PlantStatusHistory" style="stroke:#181818;stroke-width:1;"/><text fill="#000000" font-family="sans-serif" font-size="13" lengthAdjust="spacing" textLength="8.271" x="710.637" y="333.8991">1</text><text fill="#000000" font-family="sans-serif" font-size="13" lengthAdjust="spacing" textLength="6.5" x="364.528" y="541.4893">*</text></g><!--link Plant to Observation--><g class="link" data-entity-1="Plant" data-entity-2="Observation" data-source-line="148" data-uid="lnk20" id="link_Plant_Observation"><path codeLine="148" d="M900.31,408.5 C900.31,454.18 900.31,509.2 900.31,552.3" fill="none" id="Plant-Observation" style="stroke:#181818;stroke-width:1;"/><text fill="#000000" font-family="sans-serif" font-size="13" lengthAdjust="spacing" textLength="8.271" x="892.0016" y="428.3045">1</text><text fill="#000000" font-family="sans-serif" font-size="13" lengthAdjust="spacing" textLength="6.5" x="894.0472" y="541.6681">*</text></g><!--link Device to EnvironmentalReading--><g class="link" data-entity-1="Device" data-entity-2="EnvironmentalReading" data-source-line="151" data-uid="lnk21" id="link_Device_EnvironmentalReading"><path codeLine="151" d="M1471.32,717.94 C1462.62,722.58 1453.91,727.01 1445.31,731.12 C1352.99,775.27 1318.56,759.88 1228.31,808.12 C1218.94,813.14 1209.51,818.69 1200.2,824.57" fill="none" id="Device-EnvironmentalReading" style="stroke:#181818;stroke-width:1;"/><text fill="#000000" font-family="sans-serif" font-size="13" lengthAdjust="spacing" textLength="54.0757" x="1363.31" y="774.1869">Registra</text><text fill="#000000" font-family="sans-serif" font-size="13" lengthAdjust="spacing" textLength="8.271" x="1455.6964" y="719.3826">1</text><text fill="#000000" font-family="sans-serif" font-size="13" lengthAdjust="spacing" textLength="6.5" x="1207.8862" y="815.2618">*</text></g><!--link Device to ThermalCapture--><g class="link" data-entity-1="Device" data-entity-2="ThermalCapture" data-source-line="152" data-uid="lnk22" id="link_Device_ThermalCapture"><path codeLine="152" d="M1527.19,731.58 C1497.12,767.38 1464,806.81 1435.82,840.37" fill="none" id="Device-ThermalCapture" style="stroke:#181818;stroke-width:1;"/><text fill="#000000" font-family="sans-serif" font-size="13" lengthAdjust="spacing" textLength="54.0757" x="1499.31" y="774.1869">Registra</text><text fill="#000000" font-family="sans-serif" font-size="13" lengthAdjust="spacing" textLength="8.271" x="1513.0099" y="751.2728">1</text><text fill="#000000" font-family="sans-serif" font-size="13" lengthAdjust="spacing" textLength="6.5" x="1435.5871" y="829.5261">*</text></g><!--link Plant to PlantStatus--><g class="link" data-entity-1="Plant" data-entity-2="PlantStatus" data-source-line="155" data-uid="lnk23" id="link_Plant_PlantStatus"><path codeLine="155" d="M726.72,368.84 C650.13,399.58 566.67,447.56 518.31,520.16 C450.48,621.98 458.2635,766.1914 470.4635,850.7814" fill="none" id="Plant-to-PlantStatus" style="stroke:#181818;stroke-width:1;stroke-dasharray:7,7;"/><polygon fill="#181818" points="471.32,856.72,473.9943,847.2412,470.6063,851.7712,466.0762,848.3832,471.32,856.72" style="stroke:#181818;stroke-width:1;"/></g><!--link Plant to ExperimentalGroupType--><g class="link" data-entity-1="Plant" data-entity-2="ExperimentalGroupType" data-source-line="156" data-uid="lnk24" id="link_Plant_ExperimentalGroupType"><path codeLine="156" d="M726.8,343.01 C583.44,368.44 379.48,419.87 227.31,520.16 C202.41,536.57 181.6468,553.779 160.9168,572.839" fill="none" id="Plant-to-ExperimentalGroupType" style="stroke:#181818;stroke-width:1;stroke-dasharray:7,7;"/><polygon fill="#181818" points="156.5,576.9,165.8326,573.753,160.1807,573.5158,160.4179,567.864,156.5,576.9" style="stroke:#181818;stroke-width:1;"/></g><!--link Device to DeviceStatus--><g class="link" data-entity-1="Device" data-entity-2="DeviceStatus" data-source-line="157" data-uid="lnk25" id="link_Device_DeviceStatus"><path codeLine="157" d="M1615.31,731.58 C1615.31,776.62 1615.31,821.41 1615.31,859.02" fill="none" id="Device-to-DeviceStatus" style="stroke:#181818;stroke-width:1;stroke-dasharray:7,7;"/><polygon fill="#181818" points="1615.31,865.02,1619.31,856.02,1615.31,860.02,1611.31,856.02,1615.31,865.02" style="stroke:#181818;stroke-width:1;"/></g><!--link AnalysisResult to PlantStatus--><g class="link" data-entity-1="AnalysisResult" data-entity-2="PlantStatus" data-source-line="158" data-uid="lnk26" id="link_AnalysisResult_PlantStatus"><path codeLine="158" d="M590.73,731.58 C567.03,773.32 543.4822,814.7822 522.7322,851.3322" fill="none" id="AnalysisResult-to-PlantStatus" style="stroke:#181818;stroke-width:1;stroke-dasharray:7,7;"/><polygon fill="#181818" points="519.77,856.55,527.6918,850.6981,522.2385,852.2018,520.7348,846.7485,519.77,856.55" style="stroke:#181818;stroke-width:1;"/></g><!--link PlantStatusHistory to PlantStatus--><g class="link" data-entity-1="PlantStatusHistory" data-entity-2="PlantStatus" data-source-line="159" data-uid="lnk27" id="link_PlantStatusHistory_PlantStatus"><path codeLine="159" d="M373.22,698.97 C397.19,747.27 425.7829,804.8554 448.8529,851.3454" fill="none" id="PlantStatusHistory-to-PlantStatus" style="stroke:#181818;stroke-width:1;stroke-dasharray:7,7;"/><polygon fill="#181818" points="451.52,856.72,451.1025,846.88,449.2974,852.2411,443.9363,850.4361,451.52,856.72" style="stroke:#181818;stroke-width:1;"/></g><!--SRC=[jLVDRjiu4BxxAOXSqZP8WBq6HGAjHAJ2nf8XAIbwAcXfrj568hKabJOe-aXzYhxO3YNQ-hLJercVn9blXZF3ZyFnAJa_FoSqk5l6vci1l2x9gc1SnvhfMf5l2uA_S9NuI-Us-LxwjzxdE8be73VhcDxJYFOb4NL3bFd1JREy2_uAme_1ulkYTU_1Kvx2mF-A1Xx2FpjkujyxYHy6ZRXPqkRJ3tgBfUC72GsSmAKxh_Hh1J8lWMjMt4XHLybp1TRzCWpy98oerwpSC4YYi4t6HerEJcqb4jzpF1gJ5SRl-YldbhQLIGkc576bgApJC-9dv9BaNDjbm4f0WT8ovnihSx9C0jfjnTTMxkRwUGxlIc0QCaUZmiEl13EoghigcrUTaWWAbkQ2Wo9lk20AI5a3-cMSfA8KXE4MwreBHTY_zSyVRwtPcJqA4vxlYgA0LAENzwtqQeTg-306DS8EOmeJWzQOYa7sbwQwRVKQcsFAPzoCO9OtbtsMMbK4crnfa4VMxuma3o1BLYoPUaGDcvpMX5k8cENRv3oEh3JbJxaKlFKQ0SjiEVisSvZEGxXM89-OGOuDUweERrDtMQLhEOblg1qnegtz1oova3dCygCFUUxC7SwAPvMh25HTJ9Wrr5vrz6chTGn_bYpTTmCzKAdCAxFZHDV4ldL_lP-BXYnTu3xNfhx5CkUrRkgX7eJKlqlE7U7xVVCbeZaOqJmBnlghaMKY7c6FKQDwJR8UHxwP9krHuZb969DF15-Xm7nrlNfkxo5v2h5ZIflXw7ndUP10YJUVcPXGyNSXs1R-eIxp31lxI6nw_OnH_oaOM_Pr7_55m4guWYDYZgtqAtRwsRuLGIfaPcWL8pD1JidL8UpbwX3NtSKRdiHhrB1rQ88sV5RZUnjjrdx9Dh32rF-th8PzPczMWmGc6qmtTx-e_9uLzUIW3xnSBkEYEaGIfrpdoEC3YFig6ul-P0gAd4Fo1VHUNIPxh1k-r8FkVLHz3gJQUuKc9tk7gadRVM1yCwxqBiw-jptlmbny_OqEl0VRREhrFwOdFK74p4IpxUpNXuOs3D6sguZUEYwEj7QGN0pcDJEcrIaUA2kmYJVZvSaV9-GTsfsyEx4J4yvJWcia07G82zWHV8TOj3O68yOWHuaqPnbEX0ikD13C5KdmU4b2xa416jxWq1RKHV5s56O611ye720tk8L43ufKGhRXzJQq-yrstajoqzY-lFF4twZ__8QdqPsV0cQ8FmNrMVThXMfFO64FukLIjTC2fZYrc1HZXnr6ac9m5FyPAHl_nSNLu3fsqlbHrkvi08F9OrJ2MRV30euW_m40]--></g></svg>