<svg xmlns="http://www.w3.org/2000/svg" xmlns:xlink="http://www.w3.org/1999/xlink" contentStyleType="text/css" data-diagram-type="CLASS" height="1632px" preserveAspectRatio="none" style="width:1504px;height:1632px;background:#FFFFFF;" version="1.1" viewBox="0 0 1504 1632" width="1504px" zoomAndPan="magnify"><title>Diagrama de Clases Vertical: Interacción con Dispositivos</title><defs/><g><g class="title" data-source-line="2"><text fill="#000000" font-family="sans-serif" font-size="14" font-weight="bold" lengthAdjust="spacing" textLength="455.2598" x="517.4482" y="22.9951">Diagrama de Clases Vertical: Interacción con Dispositivos</text></g><!--cluster Dependencias--><g class="cluster" data-entity="Dependencias" data-source-line="16" data-uid="ent0002" id="cluster_Dependencias"><path d="M1285.2732,79.2898 C1290.954,69.1187 1296.9258,68.888 1303.8947,78.0491 C1307.5129,70.5058 1314.9245,67.7777 1320.2942,76.2563 C1325.493,66.5492 1335.1757,67.741 1340.7045,75.8789 C1345.5685,67.4852 1350.8236,66.2564 1357.5232,73.9612 C1363.6411,64.5245 1370.0557,62.6736 1378.4943,71.261 C1384.8835,62.9732 1391.7529,65.4788 1395.3144,74.0776 C1401.3205,65.4441 1409.0992,66.7436 1413.5388,75.7005 C1419.8596,66.2502 1430.2081,66.4622 1434.5124,77.7409 C1439.9734,71.323 1448.1396,70.687 1451.2318,80.2233 C1460.7172,70.1309 1470.8909,73.7051 1475.92,85.2969 C1477.2326,84.4322 1478.3128,85.0308 1478.4873,86.5319 C1486.7895,90.7072 1487.8217,100.105 1480.4209,105.8519 C1489.2086,111.9575 1487.3553,119.0969 1479.2265,124.0948 C1487.9109,129.5799 1487.6271,136.8294 1480.0402,143.0143 C1488.155,146.5176 1488.3888,152.2977 1482.874,158.3239 C1491.4112,163.3842 1491.2771,170.7325 1484.2309,176.9292 C1493.6683,181.5806 1494.4082,190.2189 1485.8499,196.3691 C1494.9725,200.3663 1494.5487,207.4211 1486.8948,212.5047 C1495.8178,218.6632 1497.1561,228.8818 1485.2493,233.3999 C1494.0523,238.6082 1493.5468,246.5017 1484.2618,250.6761 C1492.7949,255.863 1491.9072,265.1107 1483.5772,269.6906 C1491.4705,275.8671 1490.255,282.2422 1481.7129,286.6075 C1490.373,292.2732 1488.9377,297.7769 1481.3321,303.0663 C1488.9569,310.1937 1487.3971,317.4821 1478.6407,322.3196 C1486.7083,334.2545 1482.4752,343.1281 1468.92,346.2969 C1469.8495,345.8999 1470.5537,346.4912 1470.4002,347.4658 C1466.4642,356.7773 1457.251,358.7534 1451.4928,349.302 C1448.0166,358.5777 1441.5456,360.2971 1434.3177,353.2495 C1428.0981,363.9484 1419.6812,362.362 1413.9207,352.7875 C1410.2904,361.6113 1401.448,364.0075 1395.6316,355.0341 C1391.7213,364.5618 1384.3755,367.1735 1376.5095,359.4083 C1369.5388,365.6195 1362.9576,363.5717 1359.5012,355.2854 C1352.4776,362.5241 1345.51,361.4408 1340.7684,352.623 C1335.0203,362.4857 1328.0233,362.5646 1321.8948,352.9924 C1315.8034,363.1358 1307.0129,361.6827 1302.3909,351.577 C1288.7629,360.528 1277.2627,355.6048 1274.93,339.2969 C1276.8305,339.6682 1277.1857,340.7464 1276.1336,342.3008 C1267.3355,336.0773 1266.7657,329.5454 1275.9667,323.165 C1268.8144,316.8537 1268.1089,310.726 1276.4955,304.8637 C1267.2315,300.1251 1266.4953,291.1448 1275.3164,285.3153 C1267.2363,279.7512 1267.0317,272.9413 1275.0115,267.1083 C1266.0176,264.3887 1265.739,256.876 1272.2954,251.4577 C1264.0587,244.9148 1262.0861,236.5969 1273.1961,230.9017 C1266.8935,226.4044 1265.0583,219.4844 1273.6316,215.4051 C1264.7351,209.5074 1265.9073,200.1592 1274.6568,195.1548 C1265.6115,190.272 1266.5549,185.3229 1273.3323,179.1321 C1265.4709,173.1845 1264.903,166.2371 1274.3988,161.3293 C1265.9547,156.3564 1263.5877,147.8821 1273.607,142.147 C1266.7002,135.7159 1268.2347,126.9012 1276.7461,122.9976 C1268.7835,119.084 1268.3698,111.7942 1275.29,106.5621 C1265.0867,94.4937 1265.946,84.2134 1281.93,78.2969 C1283.2852,76.9704 1284.808,77.6198 1285.2732,79.2898" fill="none" style="stroke:#181818;stroke-width:1;"/><text fill="#000000" font-family="sans-serif" font-size="14" font-weight="bold" lengthAdjust="spacing" textLength="110.9609" x="1319.9445" y="96.292">Dependencias</text></g><!--cluster DTOs de API de Dispositivo--><g class="cluster" data-entity="DTOs de API de Dispositivo" data-source-line="24" data-uid="ent0007" id="cluster_DTOs de API de Dispositivo"><rect fill="none" height="1278" rx="2.5" ry="2.5" style="stroke:#181818;stroke-width:1;" width="301.68" x="916.79" y="348.2969"/><text fill="#000000" font-family="sans-serif" font-size="14" font-weight="bold" lengthAdjust="spacing" textLength="213.999" x="960.6305" y="363.292">DTOs de API de Dispositivo</text></g><!--cluster Servicios de Interacci?n con Dispositivo--><g class="cluster" data-entity="Servicios de Interacci.n con Dispositivo" data-source-line="82" data-uid="ent0017" id="cluster_Servicios de Interacci.n con Dispositivo"><rect fill="none" height="280" rx="2.5" ry="2.5" style="stroke:#181818;stroke-width:1;" width="1226.93" x="7" y="44.2969"/><path d="M331.8086,44.2969 L331.8086,53.5938 L321.8086,63.5938 L7,63.5938" fill="none" style="stroke:#181818;stroke-width:1;"/><text fill="#000000" font-family="sans-serif" font-size="14" font-weight="bold" lengthAdjust="spacing" textLength="314.8086" x="10" y="58.292">Servicios de Interacción con Dispositivo</text></g><!--class IWeatherService--><g class="entity" data-entity="IWeatherService" data-source-line="17" data-uid="ent0003" id="entity_IWeatherService"><rect fill="#F1F1F1" height="32" rx="2.5" ry="2.5" style="stroke:#181818;stroke-width:0.5;" width="147.6367" x="1301.61" y="306.2969"/><ellipse cx="1316.61" cy="322.2969" fill="#B4A7E5" rx="11" ry="11" style="stroke:#181818;stroke-width:1;"/><path d="M1312.5319,318.0625 L1312.5319,315.9063 L1319.9225,315.9063 L1319.9225,318.0625 L1317.4538,318.0625 L1317.4538,326.1406 L1319.9225,326.1406 L1319.9225,328.2969 L1312.5319,328.2969 L1312.5319,326.1406 L1315.0006,326.1406 L1315.0006,318.0625 L1312.5319,318.0625 Z " fill="#000000"/><text fill="#000000" font-family="sans-serif" font-size="14" font-style="italic" lengthAdjust="spacing" textLength="115.6367" x="1330.61" y="327.1436">IWeatherService</text></g><!--class IFileStorageService--><g class="entity" data-entity="IFileStorageService" data-source-line="18" data-uid="ent0004" id="entity_IFileStorageService"><rect fill="#F1F1F1" height="32" rx="2.5" ry="2.5" style="stroke:#181818;stroke-width:0.5;" width="167.0918" x="1291.88" y="239.2969"/><ellipse cx="1306.88" cy="255.2969" fill="#B4A7E5" rx="11" ry="11" style="stroke:#181818;stroke-width:1;"/><path d="M1302.8019,251.0625 L1302.8019,248.9063 L1310.1925,248.9063 L1310.1925,251.0625 L1307.7238,251.0625 L1307.7238,259.1406 L1310.1925,259.1406 L1310.1925,261.2969 L1302.8019,261.2969 L1302.8019,259.1406 L1305.2706,259.1406 L1305.2706,251.0625 L1302.8019,251.0625 Z " fill="#000000"/><text fill="#000000" font-family="sans-serif" font-size="14" font-style="italic" lengthAdjust="spacing" textLength="135.0918" x="1320.88" y="260.1436">IFileStorageService</text></g><!--class ApplicationDbContext--><g class="entity" data-entity="ApplicationDbContext" data-source-line="19" data-uid="ent0005" id="entity_ApplicationDbContext"><rect fill="#F1F1F1" height="32" rx="2.5" ry="2.5" style="stroke:#181818;stroke-width:0.5;" width="184.9814" x="1282.93" y="172.2969"/><ellipse cx="1297.93" cy="188.2969" fill="#B4A7E5" rx="11" ry="11" style="stroke:#181818;stroke-width:1;"/><path d="M1293.8519,184.0625 L1293.8519,181.9063 L1301.2425,181.9063 L1301.2425,184.0625 L1298.7738,184.0625 L1298.7738,192.1406 L1301.2425,192.1406 L1301.2425,194.2969 L1293.8519,194.2969 L1293.8519,192.1406 L1296.3206,192.1406 L1296.3206,184.0625 L1293.8519,184.0625 Z " fill="#000000"/><text fill="#000000" font-family="sans-serif" font-size="14" font-style="italic" lengthAdjust="spacing" textLength="152.9814" x="1311.93" y="193.1436">ApplicationDbContext</text></g><!--class TokenSettings--><g class="entity" data-entity="TokenSettings" data-source-line="20" data-uid="ent0006" id="entity_TokenSettings"><rect fill="#F1F1F1" height="32" rx="2.5" ry="2.5" style="stroke:#181818;stroke-width:0.5;" width="179.9746" x="1285.44" y="105.2969"/><ellipse cx="1300.44" cy="121.2969" fill="#B4A7E5" rx="11" ry="11" style="stroke:#181818;stroke-width:1;"/><path d="M1296.3619,117.0625 L1296.3619,114.9063 L1303.7525,114.9063 L1303.7525,117.0625 L1301.2838,117.0625 L1301.2838,125.1406 L1303.7525,125.1406 L1303.7525,127.2969 L1296.3619,127.2969 L1296.3619,125.1406 L1298.8306,125.1406 L1298.8306,117.0625 L1296.3619,117.0625 Z " fill="#000000"/><text fill="#000000" font-family="sans-serif" font-size="14" font-style="italic" lengthAdjust="spacing" textLength="58.1465" x="1314.44" y="126.1436">IOptions</text><rect fill="#FFFFFF" height="15.9688" style="stroke:#181818;stroke-width:1;stroke-dasharray:2,2;" width="87.8281" x="1380.5865" y="102.2969"/><text fill="#000000" font-family="sans-serif" font-size="12" font-style="italic" lengthAdjust="spacing" textLength="85.8281" x="1381.5865" y="114.4355">TokenSettings</text></g><!--class DeviceActivationRequestDto--><g class="entity" data-entity="DeviceActivationRequestDto" data-source-line="25" data-uid="ent0008" id="entity_DeviceActivationRequestDto"><rect fill="#F1F1F1" height="88.8906" rx="2.5" ry="2.5" style="stroke:#181818;stroke-width:0.5;" width="232.5459" x="951.36" y="523.8469"/><ellipse cx="966.36" cy="539.8469" fill="#ADD1B2" rx="11" ry="11" style="stroke:#181818;stroke-width:1;"/><path d="M969.3288,545.4875 Q968.7506,545.7844 968.11,545.925 Q967.4694,546.0813 966.7663,546.0813 Q964.2663,546.0813 962.9381,544.4406 Q961.6256,542.7844 961.6256,539.6594 Q961.6256,536.5344 962.9381,534.8781 Q964.2663,533.2219 966.7663,533.2219 Q967.4694,533.2219 968.11,533.3781 Q968.7663,533.5344 969.3288,533.8313 L969.3288,536.55 Q968.7038,535.9719 968.11,535.7063 Q967.5163,535.425 966.8913,535.425 Q965.5475,535.425 964.86,536.5031 Q964.1725,537.5656 964.1725,539.6594 Q964.1725,541.7531 964.86,542.8313 Q965.5475,543.8938 966.8913,543.8938 Q967.5163,543.8938 968.11,543.6281 Q968.7038,543.3469 969.3288,542.7688 L969.3288,545.4875 Z " fill="#000000"/><text fill="#000000" font-family="sans-serif" font-size="14" lengthAdjust="spacing" textLength="200.5459" x="980.36" y="544.6936">DeviceActivationRequestDto</text><line style="stroke:#181818;stroke-width:0.5;" x1="952.36" x2="1182.9059" y1="555.8469" y2="555.8469"/><text fill="#000000" font-family="sans-serif" font-size="14" lengthAdjust="spacing" textLength="104.4941" x="957.36" y="572.842">+DeviceId : int</text><text fill="#000000" font-family="sans-serif" font-size="14" lengthAdjust="spacing" textLength="171.7119" x="957.36" y="589.1389">+ActivationCode : string</text><text fill="#000000" font-family="sans-serif" font-size="14" lengthAdjust="spacing" textLength="150.1992" x="957.36" y="605.4357">+MacAddress : string</text></g><!--class DeviceActivationResponseDto--><g class="entity" data-entity="DeviceActivationResponseDto" data-source-line="30" data-uid="ent0009" id="entity_DeviceActivationResponseDto"><rect fill="#F1F1F1" height="105.1875" rx="2.5" ry="2.5" style="stroke:#181818;stroke-width:0.5;" width="267.4453" x="933.91" y="647.7069"/><ellipse cx="959.9482" cy="663.7069" fill="#ADD1B2" rx="11" ry="11" style="stroke:#181818;stroke-width:1;"/><path d="M962.9169,669.3475 Q962.3388,669.6444 961.6982,669.785 Q961.0576,669.9413 960.3544,669.9413 Q957.8544,669.9413 956.5263,668.3006 Q955.2138,666.6444 955.2138,663.5194 Q955.2138,660.3944 956.5263,658.7381 Q957.8544,657.0819 960.3544,657.0819 Q961.0576,657.0819 961.6982,657.2381 Q962.3544,657.3944 962.9169,657.6913 L962.9169,660.41 Q962.2919,659.8319 961.6982,659.5663 Q961.1044,659.285 960.4794,659.285 Q959.1357,659.285 958.4482,660.3631 Q957.7607,661.4256 957.7607,663.5194 Q957.7607,665.6131 958.4482,666.6913 Q959.1357,667.7538 960.4794,667.7538 Q961.1044,667.7538 961.6982,667.4881 Q962.2919,667.2069 962.9169,666.6288 L962.9169,669.3475 Z " fill="#000000"/><text fill="#000000" font-family="sans-serif" font-size="14" lengthAdjust="spacing" textLength="210.916" x="976.4011" y="668.5536">DeviceActivationResponseDto</text><line style="stroke:#181818;stroke-width:0.5;" x1="934.91" x2="1200.3553" y1="679.7069" y2="679.7069"/><text fill="#000000" font-family="sans-serif" font-size="14" lengthAdjust="spacing" textLength="156.4199" x="939.91" y="696.702">+AccessToken : string</text><text fill="#000000" font-family="sans-serif" font-size="14" lengthAdjust="spacing" textLength="162.0527" x="939.91" y="712.9989">+RefreshToken : string</text><text fill="#000000" font-family="sans-serif" font-size="14" lengthAdjust="spacing" textLength="255.4453" x="939.91" y="729.2957">+AccessTokenExpiration : DateTime</text><text fill="#000000" font-family="sans-serif" font-size="14" lengthAdjust="spacing" textLength="180.9678" x="939.91" y="745.5926">+DataCollectionTime : int</text></g><!--class DeviceAuthRequestDto--><g class="entity" data-entity="DeviceAuthRequestDto" data-source-line="36" data-uid="ent0010" id="entity_DeviceAuthRequestDto"><rect fill="#F1F1F1" height="56.2969" rx="2.5" ry="2.5" style="stroke:#181818;stroke-width:0.5;" width="195.0234" x="970.12" y="788.1469"/><ellipse cx="985.12" cy="804.1469" fill="#ADD1B2" rx="11" ry="11" style="stroke:#181818;stroke-width:1;"/><path d="M988.0888,809.7875 Q987.5106,810.0844 986.87,810.225 Q986.2294,810.3813 985.5263,810.3813 Q983.0263,810.3813 981.6981,808.7406 Q980.3856,807.0844 980.3856,803.9594 Q980.3856,800.8344 981.6981,799.1781 Q983.0263,797.5219 985.5263,797.5219 Q986.2294,797.5219 986.87,797.6781 Q987.5263,797.8344 988.0888,798.1313 L988.0888,800.85 Q987.4638,800.2719 986.87,800.0063 Q986.2763,799.725 985.6513,799.725 Q984.3075,799.725 983.62,800.8031 Q982.9325,801.8656 982.9325,803.9594 Q982.9325,806.0531 983.62,807.1313 Q984.3075,808.1938 985.6513,808.1938 Q986.2763,808.1938 986.87,807.9281 Q987.4638,807.6469 988.0888,807.0688 L988.0888,809.7875 Z " fill="#000000"/><text fill="#000000" font-family="sans-serif" font-size="14" lengthAdjust="spacing" textLength="163.0234" x="999.12" y="808.9936">DeviceAuthRequestDto</text><line style="stroke:#181818;stroke-width:0.5;" x1="971.12" x2="1164.1434" y1="820.1469" y2="820.1469"/><text fill="#000000" font-family="sans-serif" font-size="14" lengthAdjust="spacing" textLength="108.2471" x="976.12" y="837.142">+Token : string</text></g><!--class DeviceAuthResponseDto--><g class="entity" data-entity="DeviceAuthResponseDto" data-source-line="39" data-uid="ent0011" id="entity_DeviceAuthResponseDto"><rect fill="#F1F1F1" height="105.1875" rx="2.5" ry="2.5" style="stroke:#181818;stroke-width:0.5;" width="267.4453" x="933.91" y="879.7069"/><ellipse cx="976.8333" cy="895.7069" fill="#ADD1B2" rx="11" ry="11" style="stroke:#181818;stroke-width:1;"/><path d="M979.802,901.3475 Q979.2239,901.6444 978.5833,901.785 Q977.9427,901.9413 977.2395,901.9413 Q974.7395,901.9413 973.4114,900.3006 Q972.0989,898.6444 972.0989,895.5194 Q972.0989,892.3944 973.4114,890.7381 Q974.7395,889.0819 977.2395,889.0819 Q977.9427,889.0819 978.5833,889.2381 Q979.2395,889.3944 979.802,889.6913 L979.802,892.41 Q979.177,891.8319 978.5833,891.5663 Q977.9895,891.285 977.3645,891.285 Q976.0208,891.285 975.3333,892.3631 Q974.6458,893.4256 974.6458,895.5194 Q974.6458,897.6131 975.3333,898.6913 Q976.0208,899.7538 977.3645,899.7538 Q977.9895,899.7538 978.5833,899.4881 Q979.177,899.2069 979.802,898.6288 L979.802,901.3475 Z " fill="#000000"/><text fill="#000000" font-family="sans-serif" font-size="14" lengthAdjust="spacing" textLength="173.3936" x="997.0385" y="900.5536">DeviceAuthResponseDto</text><line style="stroke:#181818;stroke-width:0.5;" x1="934.91" x2="1200.3553" y1="911.7069" y2="911.7069"/><text fill="#000000" font-family="sans-serif" font-size="14" lengthAdjust="spacing" textLength="156.4199" x="939.91" y="928.702">+AccessToken : string</text><text fill="#000000" font-family="sans-serif" font-size="14" lengthAdjust="spacing" textLength="162.0527" x="939.91" y="944.9989">+RefreshToken : string</text><text fill="#000000" font-family="sans-serif" font-size="14" lengthAdjust="spacing" textLength="255.4453" x="939.91" y="961.2957">+AccessTokenExpiration : DateTime</text><text fill="#000000" font-family="sans-serif" font-size="14" lengthAdjust="spacing" textLength="180.9678" x="939.91" y="977.5926">+DataCollectionTime : int</text></g><!--class AuthenticatedDeviceDetailsDto--><g class="entity" data-entity="AuthenticatedDeviceDetailsDto" data-source-line="45" data-uid="ent0012" id="entity_AuthenticatedDeviceDetailsDto"><rect fill="#F1F1F1" height="137.7813" rx="2.5" ry="2.5" style="stroke:#181818;stroke-width:0.5;" width="265.8047" x="934.73" y="1019.4069"/><ellipse cx="955.8555" cy="1035.4069" fill="#ADD1B2" rx="11" ry="11" style="stroke:#181818;stroke-width:1;"/><path d="M958.8243,1041.0475 Q958.2462,1041.3444 957.6055,1041.485 Q956.9649,1041.6413 956.2618,1041.6413 Q953.7618,1041.6413 952.4337,1040.0006 Q951.1212,1038.3444 951.1212,1035.2194 Q951.1212,1032.0944 952.4337,1030.4381 Q953.7618,1028.7819 956.2618,1028.7819 Q956.9649,1028.7819 957.6055,1028.9381 Q958.2618,1029.0944 958.8243,1029.3913 L958.8243,1032.11 Q958.1993,1031.5319 957.6055,1031.2663 Q957.0118,1030.985 956.3868,1030.985 Q955.043,1030.985 954.3555,1032.0631 Q953.668,1033.1256 953.668,1035.2194 Q953.668,1037.3131 954.3555,1038.3913 Q955.043,1039.4538 956.3868,1039.4538 Q957.0118,1039.4538 957.6055,1039.1881 Q958.1993,1038.9069 958.8243,1038.3288 L958.8243,1041.0475 Z " fill="#000000"/><text fill="#000000" font-family="sans-serif" font-size="14" lengthAdjust="spacing" textLength="220.1924" x="971.2168" y="1040.2536">AuthenticatedDeviceDetailsDto</text><line style="stroke:#181818;stroke-width:0.5;" x1="935.73" x2="1199.5347" y1="1051.4069" y2="1051.4069"/><text fill="#000000" font-family="sans-serif" font-size="14" lengthAdjust="spacing" textLength="104.4941" x="940.73" y="1068.402">+DeviceId : int</text><text fill="#000000" font-family="sans-serif" font-size="14" lengthAdjust="spacing" textLength="91.8887" x="940.73" y="1084.6989">+PlantId : int</text><text fill="#000000" font-family="sans-serif" font-size="14" lengthAdjust="spacing" textLength="89.5986" x="940.73" y="1100.9957">+CropId : int</text><text fill="#000000" font-family="sans-serif" font-size="14" lengthAdjust="spacing" textLength="253.8047" x="940.73" y="1117.2926">+DataCollectionTimeMinutes : short</text><text fill="#000000" font-family="sans-serif" font-size="14" lengthAdjust="spacing" textLength="151.5596" x="940.73" y="1133.5895">+Roles : List&lt;string&gt;</text><text fill="#000000" font-family="sans-serif" font-size="14" lengthAdjust="spacing" textLength="213.4248" x="940.73" y="1149.8864">+RequiresTokenRefresh : bool</text></g><!--class DeviceIdentityContext--><g class="entity" data-entity="DeviceIdentityContext" data-source-line="53" data-uid="ent0013" id="entity_DeviceIdentityContext"><rect fill="#F1F1F1" height="88.8906" rx="2.5" ry="2.5" style="stroke:#181818;stroke-width:0.5;" width="188.625" x="973.32" y="1191.8469"/><ellipse cx="988.32" cy="1207.8469" fill="#ADD1B2" rx="11" ry="11" style="stroke:#181818;stroke-width:1;"/><path d="M991.2888,1213.4875 Q990.7106,1213.7844 990.07,1213.925 Q989.4294,1214.0813 988.7263,1214.0813 Q986.2263,1214.0813 984.8981,1212.4406 Q983.5856,1210.7844 983.5856,1207.6594 Q983.5856,1204.5344 984.8981,1202.8781 Q986.2263,1201.2219 988.7263,1201.2219 Q989.4294,1201.2219 990.07,1201.3781 Q990.7263,1201.5344 991.2888,1201.8313 L991.2888,1204.55 Q990.6638,1203.9719 990.07,1203.7063 Q989.4763,1203.425 988.8513,1203.425 Q987.5075,1203.425 986.82,1204.5031 Q986.1325,1205.5656 986.1325,1207.6594 Q986.1325,1209.7531 986.82,1210.8313 Q987.5075,1211.8938 988.8513,1211.8938 Q989.4763,1211.8938 990.07,1211.6281 Q990.6638,1211.3469 991.2888,1210.7688 L991.2888,1213.4875 Z " fill="#000000"/><text fill="#000000" font-family="sans-serif" font-size="14" lengthAdjust="spacing" textLength="156.625" x="1002.32" y="1212.6936">DeviceIdentityContext</text><line style="stroke:#181818;stroke-width:0.5;" x1="974.32" x2="1160.945" y1="1223.8469" y2="1223.8469"/><text fill="#000000" font-family="sans-serif" font-size="14" lengthAdjust="spacing" textLength="104.4941" x="979.32" y="1240.842">+DeviceId : int</text><text fill="#000000" font-family="sans-serif" font-size="14" lengthAdjust="spacing" textLength="91.8887" x="979.32" y="1257.1389">+PlantId : int</text><text fill="#000000" font-family="sans-serif" font-size="14" lengthAdjust="spacing" textLength="89.5986" x="979.32" y="1273.4357">+CropId : int</text></g><!--class AmbientDataDto--><g class="entity" data-entity="AmbientDataDto" data-source-line="58" data-uid="ent0014" id="entity_AmbientDataDto"><rect fill="#F1F1F1" height="121.4844" rx="2.5" ry="2.5" style="stroke:#181818;stroke-width:0.5;" width="242.624" x="946.32" y="1315.5569"/><ellipse cx="1004.7673" cy="1331.5569" fill="#ADD1B2" rx="11" ry="11" style="stroke:#181818;stroke-width:1;"/><path d="M1007.736,1337.1975 Q1007.1579,1337.4944 1006.5173,1337.635 Q1005.8766,1337.7913 1005.1735,1337.7913 Q1002.6735,1337.7913 1001.3454,1336.1506 Q1000.0329,1334.4944 1000.0329,1331.3694 Q1000.0329,1328.2444 1001.3454,1326.5881 Q1002.6735,1324.9319 1005.1735,1324.9319 Q1005.8766,1324.9319 1006.5173,1325.0881 Q1007.1735,1325.2444 1007.736,1325.5413 L1007.736,1328.26 Q1007.111,1327.6819 1006.5173,1327.4163 Q1005.9235,1327.135 1005.2985,1327.135 Q1003.9548,1327.135 1003.2673,1328.2131 Q1002.5798,1329.2756 1002.5798,1331.3694 Q1002.5798,1333.4631 1003.2673,1334.5413 Q1003.9548,1335.6038 1005.2985,1335.6038 Q1005.9235,1335.6038 1006.5173,1335.3381 Q1007.111,1335.0569 1007.736,1334.4788 L1007.736,1337.1975 Z " fill="#000000"/><text fill="#000000" font-family="sans-serif" font-size="14" lengthAdjust="spacing" textLength="117.2295" x="1025.2673" y="1336.4036">AmbientDataDto</text><line style="stroke:#181818;stroke-width:0.5;" x1="947.32" x2="1187.944" y1="1347.5569" y2="1347.5569"/><text fill="#000000" font-family="sans-serif" font-size="14" lengthAdjust="spacing" textLength="230.624" x="952.32" y="1364.552">+RecordedAtDevice : DateTime?</text><text fill="#000000" font-family="sans-serif" font-size="14" lengthAdjust="spacing" textLength="148.1689" x="952.32" y="1380.8489">+Temperature : float</text><text fill="#000000" font-family="sans-serif" font-size="14" lengthAdjust="spacing" textLength="120.2783" x="952.32" y="1397.1457">+Humidity : float</text><text fill="#000000" font-family="sans-serif" font-size="14" lengthAdjust="spacing" textLength="99.1689" x="952.32" y="1413.4426">+Light : float?</text><text fill="#000000" font-family="sans-serif" font-size="14" lengthAdjust="spacing" textLength="124.8721" x="952.32" y="1429.7395">+Pressure : float?</text></g><!--class ThermalDataDto--><g class="entity" data-entity="ThermalDataDto" data-source-line="65" data-uid="ent0015" id="entity_ThermalDataDto"><rect fill="#F1F1F1" height="137.7813" rx="2.5" ry="2.5" style="stroke:#181818;stroke-width:0.5;" width="242.624" x="946.32" y="1472.4069"/><ellipse cx="1005.3005" cy="1488.4069" fill="#ADD1B2" rx="11" ry="11" style="stroke:#181818;stroke-width:1;"/><path d="M1008.2692,1494.0475 Q1007.6911,1494.3444 1007.0505,1494.485 Q1006.4098,1494.6413 1005.7067,1494.6413 Q1003.2067,1494.6413 1001.8786,1493.0006 Q1000.5661,1491.3444 1000.5661,1488.2194 Q1000.5661,1485.0944 1001.8786,1483.4381 Q1003.2067,1481.7819 1005.7067,1481.7819 Q1006.4098,1481.7819 1007.0505,1481.9381 Q1007.7067,1482.0944 1008.2692,1482.3913 L1008.2692,1485.11 Q1007.6442,1484.5319 1007.0505,1484.2663 Q1006.4567,1483.985 1005.8317,1483.985 Q1004.488,1483.985 1003.8005,1485.0631 Q1003.113,1486.1256 1003.113,1488.2194 Q1003.113,1490.3131 1003.8005,1491.3913 Q1004.488,1492.4538 1005.8317,1492.4538 Q1006.4567,1492.4538 1007.0505,1492.1881 Q1007.6442,1491.9069 1008.2692,1491.3288 L1008.2692,1494.0475 Z " fill="#000000"/><text fill="#000000" font-family="sans-serif" font-size="14" lengthAdjust="spacing" textLength="116.1631" x="1025.8005" y="1493.2536">ThermalDataDto</text><line style="stroke:#181818;stroke-width:0.5;" x1="947.32" x2="1187.944" y1="1504.4069" y2="1504.4069"/><text fill="#000000" font-family="sans-serif" font-size="14" lengthAdjust="spacing" textLength="132.4326" x="952.32" y="1521.402">+Max_Temp : float</text><text fill="#000000" font-family="sans-serif" font-size="14" lengthAdjust="spacing" textLength="128.3311" x="952.32" y="1537.6989">+Min_Temp : float</text><text fill="#000000" font-family="sans-serif" font-size="14" lengthAdjust="spacing" textLength="130.2383" x="952.32" y="1553.9957">+Avg_Temp : float</text><text fill="#000000" font-family="sans-serif" font-size="14" lengthAdjust="spacing" textLength="218.2578" x="952.32" y="1570.2926">+Temperatures : List&lt;float?&gt;?</text><text fill="#000000" font-family="sans-serif" font-size="14" lengthAdjust="spacing" textLength="230.624" x="952.32" y="1586.5895">+RecordedAtDevice : DateTime?</text><text fill="#000000" font-family="sans-serif" font-size="14" lengthAdjust="spacing" textLength="175.6973" x="952.32" y="1602.8864">+RgbImagePath : string?</text></g><!--class DeviceLogRequestDto--><g class="entity" data-entity="DeviceLogRequestDto" data-source-line="73" data-uid="ent0016" id="entity_DeviceLogRequestDto"><rect fill="#F1F1F1" height="105.1875" rx="2.5" ry="2.5" style="stroke:#181818;stroke-width:0.5;" width="269.6807" x="932.79" y="383.7069"/><ellipse cx="985.6489" cy="399.7069" fill="#ADD1B2" rx="11" ry="11" style="stroke:#181818;stroke-width:1;"/><path d="M988.6176,405.3475 Q988.0395,405.6444 987.3989,405.785 Q986.7583,405.9413 986.0551,405.9413 Q983.5551,405.9413 982.227,404.3006 Q980.9145,402.6444 980.9145,399.5194 Q980.9145,396.3944 982.227,394.7381 Q983.5551,393.0819 986.0551,393.0819 Q986.7583,393.0819 987.3989,393.2381 Q988.0551,393.3944 988.6176,393.6913 L988.6176,396.41 Q987.9926,395.8319 987.3989,395.5663 Q986.8051,395.285 986.1801,395.285 Q984.8364,395.285 984.1489,396.3631 Q983.4614,397.4256 983.4614,399.5194 Q983.4614,401.6131 984.1489,402.6913 Q984.8364,403.7538 986.1801,403.7538 Q986.8051,403.7538 987.3989,403.4881 Q987.9926,403.2069 988.6176,402.6288 L988.6176,405.3475 Z " fill="#000000"/><text fill="#000000" font-family="sans-serif" font-size="14" lengthAdjust="spacing" textLength="155.4629" x="1006.1489" y="404.5536">DeviceLogRequestDto</text><line style="stroke:#181818;stroke-width:0.5;" x1="933.79" x2="1201.4707" y1="415.7069" y2="415.7069"/><text fill="#000000" font-family="sans-serif" font-size="14" lengthAdjust="spacing" textLength="125.125" x="938.79" y="432.702">+LogType : string</text><text fill="#000000" font-family="sans-serif" font-size="14" lengthAdjust="spacing" textLength="152.1475" x="938.79" y="448.9989">+LogMessage : string</text><text fill="#000000" font-family="sans-serif" font-size="14" lengthAdjust="spacing" textLength="257.6807" x="938.79" y="465.2957">+InternalDeviceTemperature : float?</text><text fill="#000000" font-family="sans-serif" font-size="14" lengthAdjust="spacing" textLength="230.624" x="938.79" y="481.5926">+RecordedAtDevice : DateTime?</text></g><!--class IDeviceService--><g class="entity" data-entity="IDeviceService" data-source-line="83" data-uid="ent0018" id="entity_IDeviceService"><rect fill="#F1F1F1" height="121.4844" rx="2.5" ry="2.5" style="stroke:#181818;stroke-width:0.5;" width="772.334" x="23" y="79.5569"/><ellipse cx="353.0425" cy="95.5569" fill="#B4A7E5" rx="11" ry="11" style="stroke:#181818;stroke-width:1;"/><path d="M348.9644,91.3225 L348.9644,89.1662 L356.355,89.1662 L356.355,91.3225 L353.8862,91.3225 L353.8862,99.4006 L356.355,99.4006 L356.355,101.5569 L348.9644,101.5569 L348.9644,99.4006 L351.4331,99.4006 L351.4331,91.3225 L348.9644,91.3225 Z " fill="#000000"/><text fill="#000000" font-family="sans-serif" font-size="14" font-style="italic" lengthAdjust="spacing" textLength="103.749" x="373.5425" y="100.4036">IDeviceService</text><line style="stroke:#181818;stroke-width:0.5;" x1="24" x2="794.334" y1="111.5569" y2="111.5569"/><text fill="#000000" font-family="sans-serif" font-size="14" lengthAdjust="spacing" textLength="541.0098" x="29" y="128.552">+ActivateDeviceAsync(req) : Task&lt;Result&lt;DeviceActivationResponseDto&gt;&gt;</text><text fill="#000000" font-family="sans-serif" font-size="14" lengthAdjust="spacing" textLength="611.6729" x="29" y="144.8489">+RefreshDeviceTokenAsync(refreshToken) : Task&lt;Result&lt;DeviceAuthResponseDto&gt;&gt;</text><text fill="#000000" font-family="sans-serif" font-size="14" lengthAdjust="spacing" textLength="760.334" x="29" y="161.1457">+ValidateTokenAndGetDeviceDetailsAsync(accessToken) : Task&lt;Result&lt;AuthenticatedDeviceDetailsDto&gt;&gt;</text><text fill="#000000" font-family="sans-serif" font-size="14" lengthAdjust="spacing" textLength="432.2979" x="29" y="177.4426">+GetInactiveDevicesAsync(multiplier) : Task&lt;List&lt;Device&gt;&gt;</text><text fill="#000000" font-family="sans-serif" font-size="14" lengthAdjust="spacing" textLength="462.5195" x="29" y="193.7395">+UpdateDeviceStatusAsync(deviceId, newStatus) : Task&lt;Result&gt;</text></g><!--class DeviceService--><g class="entity" data-entity="DeviceService" data-source-line="91" data-uid="ent0019" id="entity_DeviceService"><rect fill="#F1F1F1" height="88.8906" rx="2.5" ry="2.5" style="stroke:#181818;stroke-width:0.5;" width="243.6631" x="945.8" y="78.8469"/><ellipse cx="1013.5715" cy="94.8469" fill="#ADD1B2" rx="11" ry="11" style="stroke:#181818;stroke-width:1;"/><path d="M1016.5402,100.4875 Q1015.9621,100.7844 1015.3215,100.925 Q1014.6809,101.0812 1013.9777,101.0812 Q1011.4777,101.0812 1010.1496,99.4406 Q1008.8371,97.7844 1008.8371,94.6594 Q1008.8371,91.5344 1010.1496,89.8781 Q1011.4777,88.2219 1013.9777,88.2219 Q1014.6809,88.2219 1015.3215,88.3781 Q1015.9777,88.5344 1016.5402,88.8312 L1016.5402,91.55 Q1015.9152,90.9719 1015.3215,90.7062 Q1014.7277,90.425 1014.1027,90.425 Q1012.759,90.425 1012.0715,91.5031 Q1011.384,92.5656 1011.384,94.6594 Q1011.384,96.7531 1012.0715,97.8312 Q1012.759,98.8937 1014.1027,98.8937 Q1014.7277,98.8937 1015.3215,98.6281 Q1015.9152,98.3469 1016.5402,97.7687 L1016.5402,100.4875 Z " fill="#000000"/><text fill="#000000" font-family="sans-serif" font-size="14" lengthAdjust="spacing" textLength="99.6201" x="1034.0715" y="99.6936">DeviceService</text><line style="stroke:#181818;stroke-width:0.5;" x1="946.8" x2="1188.4631" y1="110.8469" y2="110.8469"/><text fill="#000000" font-family="sans-serif" font-size="14" lengthAdjust="spacing" textLength="231.6631" x="951.8" y="127.842">-_context : ApplicationDbContext</text><text fill="#000000" font-family="sans-serif" font-size="14" lengthAdjust="spacing" textLength="122.9033" x="951.8" y="144.1389">-_logger : ILogger</text><text fill="#000000" font-family="sans-serif" font-size="14" lengthAdjust="spacing" textLength="222.8721" x="951.8" y="160.4357">-_tokenSettings : TokenSettings</text></g><!--class IDataSubmissionService--><g class="entity" data-entity="IDataSubmissionService" data-source-line="97" data-uid="ent0020" id="entity_IDataSubmissionService"><rect fill="#F1F1F1" height="72.5938" rx="2.5" ry="2.5" style="stroke:#181818;stroke-width:0.5;" width="662.7129" x="77.81" y="235.9969"/><ellipse cx="320.2226" cy="251.9969" fill="#B4A7E5" rx="11" ry="11" style="stroke:#181818;stroke-width:1;"/><path d="M316.1445,247.7625 L316.1445,245.6063 L323.5351,245.6063 L323.5351,247.7625 L321.0663,247.7625 L321.0663,255.8406 L323.5351,255.8406 L323.5351,257.9969 L316.1445,257.9969 L316.1445,255.8406 L318.6132,255.8406 L318.6132,247.7625 L316.1445,247.7625 Z " fill="#000000"/><text fill="#000000" font-family="sans-serif" font-size="14" font-style="italic" lengthAdjust="spacing" textLength="169.3877" x="340.7226" y="256.8436">IDataSubmissionService</text><line style="stroke:#181818;stroke-width:0.5;" x1="78.81" x2="739.5229" y1="267.9969" y2="267.9969"/><text fill="#000000" font-family="sans-serif" font-size="14" lengthAdjust="spacing" textLength="457.9463" x="83.81" y="284.992">+SaveAmbientDataAsync(context, ambientData) : Task&lt;Result&gt;</text><text fill="#000000" font-family="sans-serif" font-size="14" lengthAdjust="spacing" textLength="650.7129" x="83.81" y="301.2889">+SaveCaptureDataAsync(context, thermalData, json, imageFile, timestamp) : Task&lt;Result&gt;</text></g><!--class DataSubmissionService--><g class="entity" data-entity="DataSubmissionService" data-source-line="102" data-uid="ent0021" id="entity_DataSubmissionService"><rect fill="#F1F1F1" height="105.1875" rx="2.5" ry="2.5" style="stroke:#181818;stroke-width:0.5;" width="300.5996" x="917.33" y="202.7069"/><ellipse cx="980.7504" cy="218.7069" fill="#ADD1B2" rx="11" ry="11" style="stroke:#181818;stroke-width:1;"/><path d="M983.7192,224.3475 Q983.141,224.6444 982.5004,224.785 Q981.8598,224.9413 981.1567,224.9413 Q978.6567,224.9413 977.3285,223.3006 Q976.016,221.6444 976.016,218.5194 Q976.016,215.3944 977.3285,213.7381 Q978.6567,212.0819 981.1567,212.0819 Q981.8598,212.0819 982.5004,212.2381 Q983.1567,212.3944 983.7192,212.6913 L983.7192,215.41 Q983.0942,214.8319 982.5004,214.5663 Q981.9067,214.285 981.2817,214.285 Q979.9379,214.285 979.2504,215.3631 Q978.5629,216.4256 978.5629,218.5194 Q978.5629,220.6131 979.2504,221.6913 Q979.9379,222.7538 981.2817,222.7538 Q981.9067,222.7538 982.5004,222.4881 Q983.0942,222.2069 983.7192,221.6288 L983.7192,224.3475 Z " fill="#000000"/><text fill="#000000" font-family="sans-serif" font-size="14" lengthAdjust="spacing" textLength="165.2588" x="1001.2504" y="223.5536">DataSubmissionService</text><line style="stroke:#181818;stroke-width:0.5;" x1="918.33" x2="1216.9296" y1="234.7069" y2="234.7069"/><text fill="#000000" font-family="sans-serif" font-size="14" lengthAdjust="spacing" textLength="231.6631" x="923.33" y="251.702">-_context : ApplicationDbContext</text><text fill="#000000" font-family="sans-serif" font-size="14" lengthAdjust="spacing" textLength="288.5996" x="923.33" y="267.9989">-_fileStorageService : IFileStorageService</text><text fill="#000000" font-family="sans-serif" font-size="14" lengthAdjust="spacing" textLength="122.9033" x="923.33" y="284.2957">-_logger : ILogger</text><text fill="#000000" font-family="sans-serif" font-size="14" lengthAdjust="spacing" textLength="250.4209" x="923.33" y="300.5926">-_weatherService : IWeatherService</text></g><!--reverse link IDeviceService to DeviceService--><g class="link" data-entity-1="IDeviceService" data-entity-2="DeviceService" data-source-line="114" data-uid="lnk22" id="link_IDeviceService_DeviceService"><path codeLine="114" d="M813.824,129.8405 C867.834,128.4405 901.7,127.5669 945.33,126.4369" fill="none" id="IDeviceService-backto-DeviceService" style="stroke:#181818;stroke-width:1;stroke-dasharray:7,7;"/><polygon fill="none" points="795.83,130.3069,813.9794,135.8384,813.6685,123.8425,795.83,130.3069" style="stroke:#181818;stroke-width:1;"/></g><!--reverse link IDataSubmissionService to DataSubmissionService--><g class="link" data-entity-1="IDataSubmissionService" data-entity-2="DataSubmissionService" data-source-line="115" data-uid="lnk23" id="link_IDataSubmissionService_DataSubmissionService"><path codeLine="115" d="M758.794,263.2704 C820.514,261.6704 864.13,260.5369 916.9,259.1769" fill="none" id="IDataSubmissionService-backto-DataSubmissionService" style="stroke:#181818;stroke-width:1;stroke-dasharray:7,7;"/><polygon fill="none" points="740.8,263.7369,758.9494,269.2684,758.6385,257.2724,740.8,263.7369" style="stroke:#181818;stroke-width:1;"/></g><!--link DeviceService to ApplicationDbContext--><g class="link" data-entity-1="DeviceService" data-entity-2="ApplicationDbContext" data-source-line="118" data-uid="lnk24" id="link_DeviceService_ApplicationDbContext"><path codeLine="118" d="M1189.93,149.0769 C1225.95,156.7369 1258.5409,163.6703 1290.9809,170.5603" fill="none" id="DeviceService-to-ApplicationDbContext" style="stroke:#181818;stroke-width:1;stroke-dasharray:7,7;"/><polygon fill="#181818" points="1296.85,171.8069,1288.8774,166.0243,1291.9591,170.7681,1287.2153,173.8498,1296.85,171.8069" style="stroke:#181818;stroke-width:1;"/></g><!--link DeviceService to TokenSettings--><g class="link" data-entity-1="DeviceService" data-entity-2="TokenSettings" data-source-line="119" data-uid="lnk25" id="link_DeviceService_TokenSettings"><path codeLine="119" d="M1189.93,122.5069 C1221.78,122.2969 1249.5401,122.1171 1279.3601,121.9171" fill="none" id="DeviceService-to-TokenSettings" style="stroke:#181818;stroke-width:1;stroke-dasharray:7,7;"/><polygon fill="#181818" points="1285.36,121.8769,1276.3334,117.9373,1280.3601,121.9104,1276.387,125.9371,1285.36,121.8769" style="stroke:#181818;stroke-width:1;"/></g><!--link DataSubmissionService to ApplicationDbContext--><g class="link" data-entity-1="DataSubmissionService" data-entity-2="ApplicationDbContext" data-source-line="120" data-uid="lnk26" id="link_DataSubmissionService_ApplicationDbContext"><path codeLine="120" d="M1218.39,222.4869 C1246.54,216.3169 1268.9689,211.4005 1293.5789,206.0105" fill="none" id="DataSubmissionService-to-ApplicationDbContext" style="stroke:#181818;stroke-width:1;stroke-dasharray:7,7;"/><polygon fill="#181818" points="1299.44,204.7269,1289.7926,202.745,1294.5558,205.7966,1291.5042,210.5598,1299.44,204.7269" style="stroke:#181818;stroke-width:1;"/></g><!--link DataSubmissionService to IWeatherService--><g class="link" data-entity-1="DataSubmissionService" data-entity-2="IWeatherService" data-source-line="121" data-uid="lnk27" id="link_DataSubmissionService_IWeatherService"><path codeLine="121" d="M1218.39,288.1069 C1247.3,294.4469 1270.4889,299.5234 1295.5589,305.0134" fill="none" id="DataSubmissionService-to-IWeatherService" style="stroke:#181818;stroke-width:1;stroke-dasharray:7,7;"/><polygon fill="#181818" points="1301.42,306.2969,1293.484,300.4642,1296.5357,305.2273,1291.7727,308.279,1301.42,306.2969" style="stroke:#181818;stroke-width:1;"/></g><!--link DataSubmissionService to IFileStorageService--><g class="link" data-entity-1="DataSubmissionService" data-entity-2="IFileStorageService" data-source-line="122" data-uid="lnk28" id="link_DataSubmissionService_IFileStorageService"><path codeLine="122" d="M1218.39,255.2969 C1243.66,255.2969 1263.05,255.2969 1285.79,255.2969" fill="none" id="DataSubmissionService-to-IFileStorageService" style="stroke:#181818;stroke-width:1;stroke-dasharray:7,7;"/><polygon fill="#181818" points="1291.79,255.2969,1282.79,251.2969,1286.79,255.2969,1282.79,259.2969,1291.79,255.2969" style="stroke:#181818;stroke-width:1;"/></g><!--link IDeviceService to DeviceActivationRequestDto--><g class="link" data-entity-1="IDeviceService" data-entity-2="DeviceActivationRequestDto" data-source-line="125" data-uid="lnk29" id="link_IDeviceService_DeviceActivationRequestDto"><path codeLine="125" d="M772.81,201.4569 C780.62,206.6669 788.14,212.2669 795.33,218.2969 C900.76,306.6769 811.46,409.0669 908.79,506.2969 C920.87,518.3669 930.2336,525.4237 945.7636,533.3337" fill="none" id="IDeviceService-to-DeviceActivationRequestDto" style="stroke:#181818;stroke-width:1;stroke-dasharray:7,7;"/><polygon fill="#181818" points="951.11,536.0569,944.9058,528.4079,946.6546,533.7876,941.2749,535.5365,951.11,536.0569" style="stroke:#181818;stroke-width:1;"/><polygon fill="#000000" points="845.1407,247.2973,843.5668,237.9179,838.3543,240.6343,845.1407,247.2973" style="stroke:#000000;stroke-width:1;"/><text fill="#000000" font-family="sans-serif" font-size="13" lengthAdjust="spacing" textLength="22.9785" x="851.83" y="247.3638">usa</text></g><!--link IDeviceService to DeviceActivationResponseDto--><g class="link" data-entity-1="IDeviceService" data-entity-2="DeviceActivationResponseDto" data-source-line="126" data-uid="lnk30" id="link_IDeviceService_DeviceActivationResponseDto"><path codeLine="126" d="M777.86,201.2969 C783.99,206.5769 789.82,212.2369 795.33,218.2969 C838.04,265.2469 804.08,442.4969 825.33,502.2969 C848.08,566.2869 857.08,586.2769 908.79,630.2969 C916.44,636.8069 919.7187,639.6003 928.4487,645.1203" fill="none" id="IDeviceService-to-DeviceActivationResponseDto" style="stroke:#181818;stroke-width:1;stroke-dasharray:7,7;"/><polygon fill="#181818" points="933.52,648.3269,928.0508,640.1362,929.2939,645.6547,923.7754,646.8979,933.52,648.3269" style="stroke:#181818;stroke-width:1;"/><polygon fill="#000000" points="828.7235,489.1284,828.8466,498.6382,834.4128,496.7496,828.7235,489.1284" style="stroke:#000000;stroke-width:1;"/><text fill="#000000" font-family="sans-serif" font-size="13" lengthAdjust="spacing" textLength="47.9438" x="839.33" y="498.3638">retorna</text></g><!--link IDeviceService to DeviceAuthRequestDto--><g class="link" data-entity-1="IDeviceService" data-entity-2="DeviceAuthRequestDto" data-source-line="127" data-uid="lnk31" id="link_IDeviceService_DeviceAuthRequestDto"><path codeLine="127" d="M778.52,201.3769 C784.42,206.6469 790.04,212.2769 795.33,218.2969 C856.83,288.2269 796.54,547.7369 825.33,636.2969 C847.03,703.0169 852.88,727.9069 908.79,770.2969 C926.65,783.8369 942.6738,791.605 964.2438,798.355" fill="none" id="IDeviceService-to-DeviceAuthRequestDto" style="stroke:#181818;stroke-width:1;stroke-dasharray:7,7;"/><polygon fill="#181818" points="969.97,800.1469,962.5754,793.6416,965.1982,798.6536,960.1861,801.2764,969.97,800.1469" style="stroke:#181818;stroke-width:1;"/><polygon fill="#000000" points="844.3153,632.6376,844.4346,623.1278,838.8221,624.8738,844.3153,632.6376" style="stroke:#000000;stroke-width:1;"/><text fill="#000000" font-family="sans-serif" font-size="13" lengthAdjust="spacing" textLength="22.9785" x="851.83" y="632.3638">usa</text></g><!--link IDeviceService to DeviceAuthResponseDto--><g class="link" data-entity-1="IDeviceService" data-entity-2="DeviceAuthResponseDto" data-source-line="128" data-uid="lnk32" id="link_IDeviceService_DeviceAuthResponseDto"><path codeLine="128" d="M778.66,201.2469 C784.52,206.5569 790.09,212.2269 795.33,218.2969 C835.92,265.2869 800.47,719.4069 825.33,776.2969 C845.96,823.4869 883.9441,855.1029 928.2041,879.4729" fill="none" id="IDeviceService-to-DeviceAuthResponseDto" style="stroke:#181818;stroke-width:1;stroke-dasharray:7,7;"/><polygon fill="#181818" points="933.46,882.3669,927.5054,874.522,929.08,879.9552,923.6468,881.5299,933.46,882.3669" style="stroke:#181818;stroke-width:1;"/><polygon fill="#000000" points="829.2534,762.9806,828.331,772.4463,834.071,771.1807,829.2534,762.9806" style="stroke:#000000;stroke-width:1;"/><text fill="#000000" font-family="sans-serif" font-size="13" lengthAdjust="spacing" textLength="47.9438" x="839.33" y="772.3638">retorna</text></g><!--link IDeviceService to AuthenticatedDeviceDetailsDto--><g class="link" data-entity-1="IDeviceService" data-entity-2="AuthenticatedDeviceDetailsDto" data-source-line="129" data-uid="lnk33" id="link_IDeviceService_AuthenticatedDeviceDetailsDto"><path codeLine="129" d="M779.1,201.5369 C784.81,206.7569 790.23,212.3369 795.33,218.2969 C842.73,273.6269 803.11,803.9169 825.33,873.2969 C846.17,938.3269 858.72,955.8669 908.79,1002.2969 C916.69,1009.6169 920.4453,1013.0287 929.4753,1019.5087" fill="none" id="IDeviceService-to-AuthenticatedDeviceDetailsDto" style="stroke:#181818;stroke-width:1;stroke-dasharray:7,7;"/><polygon fill="#181818" points="934.35,1023.0069,929.37,1014.5098,930.2877,1020.0918,924.7058,1021.0095,934.35,1023.0069" style="stroke:#181818;stroke-width:1;"/><polygon fill="#000000" points="829.426,859.9457,828.1709,869.3731,833.9519,868.3103,829.426,859.9457" style="stroke:#000000;stroke-width:1;"/><text fill="#000000" font-family="sans-serif" font-size="13" lengthAdjust="spacing" textLength="47.9438" x="839.33" y="869.3638">retorna</text></g><!--link IDataSubmissionService to DeviceIdentityContext--><g class="link" data-entity-1="IDataSubmissionService" data-entity-2="DeviceIdentityContext" data-source-line="131" data-uid="lnk34" id="link_IDataSubmissionService_DeviceIdentityContext"><path codeLine="131" d="M420.48,309.0169 C460.15,443.8369 615.55,917.0769 908.79,1174.2969 C927.16,1190.4069 944.6385,1200.3702 967.4085,1209.4702" fill="none" id="IDataSubmissionService-to-DeviceIdentityContext" style="stroke:#181818;stroke-width:1;stroke-dasharray:7,7;"/><polygon fill="#181818" points="972.98,1211.6969,966.1071,1204.6425,968.3371,1209.8413,963.1383,1212.0712,972.98,1211.6969" style="stroke:#181818;stroke-width:1;"/><polygon fill="#000000" points="845.4257,1093.1367,843.2419,1083.8803,838.2182,1086.9317,845.4257,1093.1367" style="stroke:#000000;stroke-width:1;"/><text fill="#000000" font-family="sans-serif" font-size="13" lengthAdjust="spacing" textLength="22.9785" x="851.83" y="1093.3638">usa</text></g><!--link IDataSubmissionService to AmbientDataDto--><g class="link" data-entity-1="IDataSubmissionService" data-entity-2="AmbientDataDto" data-source-line="132" data-uid="lnk35" id="link_IDataSubmissionService_AmbientDataDto"><path codeLine="132" d="M425.52,309.0569 C477.29,432.0869 651.91,839.8269 825.33,1162.2969 C858.93,1224.7569 856.41,1250.4969 908.79,1298.2969 C919.97,1308.4969 927.6158,1314.5292 940.9158,1322.6892" fill="none" id="IDataSubmissionService-to-AmbientDataDto" style="stroke:#181818;stroke-width:1;stroke-dasharray:7,7;"/><polygon fill="#181818" points="946.03,1325.8269,940.4506,1317.7109,941.7682,1323.2121,936.2669,1324.5297,946.03,1325.8269" style="stroke:#181818;stroke-width:1;"/><polygon fill="#000000" points="845.0962,1158.3202,843.6163,1148.9255,838.3769,1151.5896,845.0962,1158.3202" style="stroke:#000000;stroke-width:1;"/><text fill="#000000" font-family="sans-serif" font-size="13" lengthAdjust="spacing" textLength="22.9785" x="851.83" y="1158.3638">usa</text></g><!--link IDataSubmissionService to ThermalDataDto--><g class="link" data-entity-1="IDataSubmissionService" data-entity-2="ThermalDataDto" data-source-line="133" data-uid="lnk36" id="link_IDataSubmissionService_ThermalDataDto"><path codeLine="133" d="M423.28,308.8369 C471.77,442.9969 647.32,920.2469 825.33,1299.2969 C858.59,1370.1169 853.74,1398.6969 908.79,1454.2969 C919.8,1465.4169 927.5624,1472.1419 940.9224,1481.1919" fill="none" id="IDataSubmissionService-to-ThermalDataDto" style="stroke:#181818;stroke-width:1;stroke-dasharray:7,7;"/><polygon fill="#181818" points="945.89,1484.5569,940.682,1476.1977,941.7504,1481.7527,936.1953,1482.8211,945.89,1484.5569" style="stroke:#181818;stroke-width:1;"/><polygon fill="#000000" points="844.8496,1295.4373,843.8846,1285.9758,838.5076,1288.3499,844.8496,1295.4373" style="stroke:#000000;stroke-width:1;"/><text fill="#000000" font-family="sans-serif" font-size="13" lengthAdjust="spacing" textLength="22.9785" x="851.83" y="1295.3638">usa</text></g><!--SRC=[rLVDRkCs4BxhAGXVjaMJj6V3S63OtbP0qWIsT_UueAMnp0r5AYJbZRURX-a3zDH7o8jrI34M9KjE0kobljZM_7yp_3XwHyxFpybKYWtBIaKJzlIl87ioruPnQMMHOOO3cJ6QAPfJaWAPSgf1au-W34ie7v9O643RoZYH0hLr8JKpR2Tr5Bt3_mfGB0ND6GWZoSxRae8gIkXMAaKL0LrW1fBWN_PD2aDvn65Z21eebcqDIQqVWtwiqvkav8OIz9YlbTHaHvEdV_3RkIm5uLBUaVpfRqquomiceot3v24lp9xaQ0FAvLQLwiro-29j9fmI3XbRCyvIcaRwZWahpr4hkQCPBCqUGR79K95n21Ioad4EEHYoeLo7aWHXqnDZ55kN1cB4QSc-0VdD9c6RC8C2H0eYOLIJ-GD2Al37huZkHb7GHfM9mHQvflWqo20q6f3HQCfbcOx7vA-8u8VPncne0YJ-1DHiGIr1xLW2RUbxnh4cB1rBwzIO50N7XbdiPsiS5mCFfgKoY6yAAzUZbRm3iGHZcCZqU42mZCQZwF5Gy-f6sv52l2UtiVqLZ4whKgzwh6VhNZotub2xWnj1jSLCS6XsBla5t9U8vGn7gbApdr-yMfoIeIqe4DIMKubHXmJxW2K46jSqcQIf0WpMa3wUp0AJ5nhQQKoI1FquhBf2BM23SRQzyi1y_b0mvMAXuemQMB4SmeAfeLE9a-gEanK6fNUaNffj3tGTsVJP_s-AjkaYJzc1XxIgO0Q6CgvVFJYtd0hJyNogPD7n-3YrQoQG9jnG8H-6kWl9tVChfisemcFS0Eo-H9wi8F7eeVPQIjxJdJYrnPgzFzS_kC06iFdQNW2ssZQIU8AbIY6Tc2faqCBBSDoGmF6oGIQq6XikQHZyZp9dALRI8RfoDuX_7dgyjMStS7TvbFKAYJEdl2lhQ_hmsQRK4H0Rs2UQxB8-KL3VeSTLMkFBjwEroDPnZlHvY-H_E3oNFMDm9REUCuwIrRxef3yKNID-bg8xf6up40YT2z3HkpVLz5XV7DKjnUJpxJ6bXTjD9kwQgZQHnlNHC3YriDZRv3tUrz1rYrQ9-IkonMAEtC7pdTwBv2S5zpzZ4Ikgx_22qhYkZ4xS1EFnCUjvtEn9VdPPis6FxoRLDhn-f7QVCTwXI7y7qs2tAWQj6RKTuYGnDaAXwrXGMwU7n3lFqGt39e4w-7OpNYarN7meqWEWIuDZursadfBEY82lbQ2LvzYFoz687tVkd7nEFEqD-xSShybbbe52nVZA_Gfb9jnmR3gDZIV89nmdP9HbkSwPrXYoQwoMT0S1QLO0-8JF2AqbdGZKFl1ys6FNuSFKv7P6lcWfpWYpb65NGfJYuTE6viKh47wXc3SXlJbQI2tgFMlgAxhpjR7-MfsEXTZnYoUOnVngCerl_fml7O_WqpWlx6AFhoNsJGPg8h6zr56B6qRVBowQGnVrjBlIx1AvLwVmhS1o7JBOWSkYPioBYt4tiCTgpUdiJgpVNQzw6zKJcXszn78_QEcsUxli5rAroesF2pcnu0z9gIaPlywgtas7P332LpjCJT312UFcIlnoiDOA_6AOqqjeqxnljkhmxHslphU_zyrbxHKMhKN9M_m7]--></g></svg>