<svg xmlns="http://www.w3.org/2000/svg" xmlns:xlink="http://www.w3.org/1999/xlink" contentStyleType="text/css" data-diagram-type="CLASS" height="1294px" preserveAspectRatio="none" style="width:1308px;height:1294px;background:#FFFFFF;" version="1.1" viewBox="0 0 1308 1294" width="1308px" zoomAndPan="magnify"><title>Diagrama de Clases: Patrón de Controladores y Vistas (MVC / API)</title><defs/><g><g class="title" data-source-line="2"><text fill="#000000" font-family="sans-serif" font-size="14" font-weight="bold" lengthAdjust="spacing" textLength="521.7324" x="386.4188" y="22.9951">Diagrama de Clases: Patrón de Controladores y Vistas (MVC / API)</text></g><!--cluster Abstracciones--><g class="cluster" data-entity="Abstracciones" data-source-line="5" data-uid="ent0002" id="cluster_Abstracciones"><path d="M599.3433,630.2212 C610.8562,610.0435 621.8768,609.3291 635.5195,628.2507 C648.356,610.2079 661.4902,613.4142 672.9857,629.7136 C686.3271,609.6089 699.6139,609.5339 715.1769,627.2342 C726.5083,610.9864 740.7801,612.0993 750.4244,629.0267 C764.2599,612.4894 781.0638,613.3386 792.2305,632.1804 C804.8248,615.8874 823.1271,616.1111 833.01,635.2969 C835.8709,634.5894 836.952,636.5584 836.2746,638.9838 C853.0606,649.793 848.2201,661.5894 834.7411,670.9465 C853.7375,679.1645 849.8461,695.5032 836.5177,705.3885 C852.8098,714.9616 858.2137,726.6834 840.6643,740.2785 C855.6613,748.222 856.2012,759.4778 842.6011,769.3279 C861.0905,778.1463 862.0006,790.0488 845.5821,802.0475 C862.1834,814.0083 860.9417,825.1004 844.5921,836.1033 C863.5753,847.7625 864.554,860.7126 845.6001,873.3972 C859.261,880.4056 858.4859,892.9415 847.1105,901.3049 C862.9356,913.257 862.2549,925.5501 844.9376,935.3893 C861.6485,946.3303 861.2221,957.4557 844.2854,967.7178 C862.5871,981.4115 858.2723,998.5345 837.7138,1005.4622 C852.2873,1014.1251 849.4445,1027.3322 836.3705,1034.726 C854.604,1043.7527 851.8679,1061.2963 836.3213,1070.2762 C853.1072,1086.964 845.9296,1100.8326 826.01,1107.2969 C828.6282,1105.9358 830.2137,1107.2919 830.1931,1110.0057 C821.0591,1131.9862 806.3278,1132.9334 792.2782,1114.6325 C782.6413,1137.4461 763.725,1139.8865 749.3528,1119.3179 C743.5796,1137.929 727.3902,1137.4872 715.9701,1125.4734 C700.6476,1142.0059 686.7837,1139.2376 676.5683,1119.8684 C662.3479,1134.2404 646.6133,1131.2482 639.9832,1111.6854 C617.9415,1133.7753 599.1808,1130.1263 588.66,1100.2969 C590.4624,1100.4335 591.4426,1101.1507 590.6266,1103.1147 C575.212,1094.2884 577.1081,1082.3816 589.9437,1072.9164 C575.4192,1061.636 574.869,1048.6135 591.6223,1038.8754 C572.1913,1030.7938 573.3944,1017.4632 587.7406,1005.4581 C569.378,995.692 573.5957,978.8814 589.0418,970.3692 C571.4681,962.7421 570.2983,949.5057 586.2228,938.8798 C568.6962,927.4355 572.1276,914.2463 588.0974,904.6357 C569.5438,896.9109 568.4542,879.3692 584.0592,867.8904 C568.8605,858.4819 570.7717,843.2097 585.2445,834.8661 C573.9586,822.6884 574.6124,812.4875 589.9978,804.4824 C571.3905,796.1345 574.75,782.2528 587.219,771.3023 C572.6162,759.9396 574.1334,745.4636 589.3353,735.8816 C575.3253,728.5542 575.3797,715.9561 587.8326,707.2403 C569.3363,695.7989 568.3787,681.3117 588.4356,670.5031 C568.6233,653.6055 571.0706,637.5943 595.66,628.2969 C597.5831,627.1382 599.1033,628.1584 599.3433,630.2212" fill="none" style="stroke:#181818;stroke-width:1;"/><text fill="#000000" font-family="sans-serif" font-size="14" font-weight="bold" lengthAdjust="spacing" textLength="111.043" x="655.3135" y="646.292">Abstracciones</text></g><!--cluster DTOs y ViewModels--><g class="cluster" data-entity="DTOs y ViewModels" data-source-line="25" data-uid="ent0008" id="cluster_DTOs y ViewModels"><rect fill="none" height="445" rx="2.5" ry="2.5" style="stroke:#181818;stroke-width:1;" width="264.55" x="1038.02" y="756.2969"/><text fill="#000000" font-family="sans-serif" font-size="14" font-weight="bold" lengthAdjust="spacing" textLength="154.54" x="1093.025" y="771.292">DTOs y ViewModels</text></g><!--cluster Capa de Presentaci?n--><g class="cluster" data-entity="Capa de Presentaci.n" data-source-line="47" data-uid="ent0013" id="cluster_Capa de Presentaci.n"><rect fill="none" height="552" rx="2.5" ry="2.5" style="stroke:#181818;stroke-width:1;" width="879.02" x="7" y="44.2969"/><path d="M188.7324,44.2969 L188.7324,53.5938 L178.7324,63.5938 L7,63.5938" fill="none" style="stroke:#181818;stroke-width:1;"/><text fill="#000000" font-family="sans-serif" font-size="14" font-weight="bold" lengthAdjust="spacing" textLength="171.7324" x="10" y="58.292">Capa de Presentación</text></g><!--cluster Controladores MVC--><g class="cluster" data-entity="Controladores MVC" data-source-line="50" data-uid="ent0014" id="cluster_Controladores MVC"><polygon fill="none" points="31,97.2969,41,87.2969,862.02,87.2969,862.02,368.2969,852.02,378.2969,31,378.2969,31,97.2969" style="stroke:#181818;stroke-width:1;"/><line style="stroke:#181818;stroke-width:1;" x1="852.02" x2="862.02" y1="97.2969" y2="87.2969"/><line style="stroke:#181818;stroke-width:1;" x1="31" x2="852.02" y1="97.2969" y2="97.2969"/><line style="stroke:#181818;stroke-width:1;" x1="852.02" x2="852.02" y1="97.2969" y2="378.2969"/><text fill="#000000" font-family="sans-serif" font-size="14" font-weight="bold" lengthAdjust="spacing" textLength="151.6074" x="366.7063" y="113.292">Controladores MVC</text></g><!--cluster Controladores API--><g class="cluster" data-entity="Controladores API" data-source-line="74" data-uid="ent0020" id="cluster_Controladores API"><polygon fill="none" points="63.64,412.2969,73.64,402.2969,475.01,402.2969,475.01,562.2969,465.01,572.2969,63.64,572.2969,63.64,412.2969" style="stroke:#181818;stroke-width:1;"/><line style="stroke:#181818;stroke-width:1;" x1="465.01" x2="475.01" y1="412.2969" y2="402.2969"/><line style="stroke:#181818;stroke-width:1;" x1="63.64" x2="465.01" y1="412.2969" y2="412.2969"/><line style="stroke:#181818;stroke-width:1;" x1="465.01" x2="465.01" y1="412.2969" y2="572.2969"/><text fill="#000000" font-family="sans-serif" font-size="14" font-weight="bold" lengthAdjust="spacing" textLength="142.8711" x="193.8895" y="428.292">Controladores API</text></g><!--class Controller--><g class="entity" data-entity="Controller" data-source-line="6" data-uid="ent0003" id="entity_Controller"><rect fill="#F1F1F1" height="48" rx="2.5" ry="2.5" style="stroke:#181818;stroke-width:0.5;" width="101.1729" x="660.25" y="655.2969"/><ellipse cx="675.25" cy="671.2969" fill="#A9DCDF" rx="11" ry="11" style="stroke:#181818;stroke-width:1;"/><path d="M675.3594,666.6406 L674.2031,671.7188 L676.5313,671.7188 L675.3594,666.6406 Z M673.875,664.4063 L676.8594,664.4063 L680.2188,676.7969 L677.7656,676.7969 L677,673.7344 L673.7188,673.7344 L672.9688,676.7969 L670.5313,676.7969 L673.875,664.4063 Z " fill="#000000"/><text fill="#000000" font-family="sans-serif" font-size="14" font-style="italic" lengthAdjust="spacing" textLength="69.1729" x="689.25" y="676.1436">Controller</text><line style="stroke:#181818;stroke-width:0.5;" x1="661.25" x2="760.4229" y1="687.2969" y2="687.2969"/><line style="stroke:#181818;stroke-width:0.5;" x1="661.25" x2="760.4229" y1="695.2969" y2="695.2969"/></g><!--class ControllerBase--><g class="entity" data-entity="ControllerBase" data-source-line="7" data-uid="ent0004" id="entity_ControllerBase"><rect fill="#F1F1F1" height="48" rx="2.5" ry="2.5" style="stroke:#181818;stroke-width:0.5;" width="135.2637" x="643.21" y="738.2969"/><ellipse cx="658.21" cy="754.2969" fill="#A9DCDF" rx="11" ry="11" style="stroke:#181818;stroke-width:1;"/><path d="M658.3194,749.6406 L657.1631,754.7188 L659.4913,754.7188 L658.3194,749.6406 Z M656.835,747.4063 L659.8194,747.4063 L663.1788,759.7969 L660.7256,759.7969 L659.96,756.7344 L656.6788,756.7344 L655.9288,759.7969 L653.4913,759.7969 L656.835,747.4063 Z " fill="#000000"/><text fill="#000000" font-family="sans-serif" font-size="14" font-style="italic" lengthAdjust="spacing" textLength="103.2637" x="672.21" y="759.1436">ControllerBase</text><line style="stroke:#181818;stroke-width:0.5;" x1="644.21" x2="777.4737" y1="770.2969" y2="770.2969"/><line style="stroke:#181818;stroke-width:0.5;" x1="644.21" x2="777.4737" y1="778.2969" y2="778.2969"/></g><!--class ICropService--><g class="entity" data-entity="ICropService" data-source-line="9" data-uid="ent0005" id="entity_ICropService"><rect fill="#F1F1F1" height="80.5938" rx="2.5" ry="2.5" style="stroke:#181818;stroke-width:0.5;" width="181.4014" x="620.14" y="1018.9969"/><ellipse cx="662.3865" cy="1034.9969" fill="#B4A7E5" rx="11" ry="11" style="stroke:#181818;stroke-width:1;"/><path d="M658.3084,1030.7625 L658.3084,1028.6063 L665.699,1028.6063 L665.699,1030.7625 L663.2303,1030.7625 L663.2303,1038.8406 L665.699,1038.8406 L665.699,1040.9969 L658.3084,1040.9969 L658.3084,1038.8406 L660.7772,1038.8406 L660.7772,1030.7625 L658.3084,1030.7625 Z " fill="#000000"/><text fill="#000000" font-family="sans-serif" font-size="14" font-style="italic" lengthAdjust="spacing" textLength="88.8535" x="682.4413" y="1039.8436">ICropService</text><line style="stroke:#181818;stroke-width:0.5;" x1="621.14" x2="800.5414" y1="1050.9969" y2="1050.9969"/><line style="stroke:#181818;stroke-width:0.5;" x1="621.14" x2="800.5414" y1="1058.9969" y2="1058.9969"/><ellipse cx="631.14" cy="1072.6453" fill="#84BE84" rx="3" ry="3" style="stroke:#038048;stroke-width:1;"/><text fill="#000000" font-family="sans-serif" font-size="14" lengthAdjust="spacing" textLength="135.2354" x="640.14" y="1075.992">GetAllCropsAsync()</text><ellipse cx="631.14" cy="1088.9422" fill="#84BE84" rx="3" ry="3" style="stroke:#038048;stroke-width:1;"/><text fill="#000000" font-family="sans-serif" font-size="14" lengthAdjust="spacing" textLength="155.4014" x="640.14" y="1092.2889">CreateCropAsync(dto)</text></g><!--class IDeviceService--><g class="entity" data-entity="IDeviceService" data-source-line="14" data-uid="ent0006" id="entity_IDeviceService"><rect fill="#F1F1F1" height="64.2969" rx="2.5" ry="2.5" style="stroke:#181818;stroke-width:0.5;" width="207.0908" x="607.29" y="821.1469"/><ellipse cx="654.7109" cy="837.1469" fill="#B4A7E5" rx="11" ry="11" style="stroke:#181818;stroke-width:1;"/><path d="M650.6328,832.9125 L650.6328,830.7563 L658.0234,830.7563 L658.0234,832.9125 L655.5546,832.9125 L655.5546,840.9906 L658.0234,840.9906 L658.0234,843.1469 L650.6328,843.1469 L650.6328,840.9906 L653.1015,840.9906 L653.1015,832.9125 L650.6328,832.9125 Z " fill="#000000"/><text fill="#000000" font-family="sans-serif" font-size="14" font-style="italic" lengthAdjust="spacing" textLength="103.749" x="675.2109" y="841.9936">IDeviceService</text><line style="stroke:#181818;stroke-width:0.5;" x1="608.29" x2="813.3808" y1="853.1469" y2="853.1469"/><line style="stroke:#181818;stroke-width:0.5;" x1="608.29" x2="813.3808" y1="861.1469" y2="861.1469"/><ellipse cx="618.29" cy="874.7953" fill="#84BE84" rx="3" ry="3" style="stroke:#038048;stroke-width:1;"/><text fill="#000000" font-family="sans-serif" font-size="14" lengthAdjust="spacing" textLength="181.0908" x="627.29" y="878.142">ActivateDeviceAsync(dto)</text></g><!--class IDataSubmissionService--><g class="entity" data-entity="IDataSubmissionService" data-source-line="18" data-uid="ent0007" id="entity_IDataSubmissionService"><rect fill="#F1F1F1" height="64.2969" rx="2.5" ry="2.5" style="stroke:#181818;stroke-width:0.5;" width="228.3506" x="596.66" y="920.1469"/><ellipse cx="623.7933" cy="936.1469" fill="#B4A7E5" rx="11" ry="11" style="stroke:#181818;stroke-width:1;"/><path d="M619.7152,931.9125 L619.7152,929.7563 L627.1058,929.7563 L627.1058,931.9125 L624.6371,931.9125 L624.6371,939.9906 L627.1058,939.9906 L627.1058,942.1469 L619.7152,942.1469 L619.7152,939.9906 L622.1839,939.9906 L622.1839,931.9125 L619.7152,931.9125 Z " fill="#000000"/><text fill="#000000" font-family="sans-serif" font-size="14" font-style="italic" lengthAdjust="spacing" textLength="169.3877" x="640.4896" y="940.9936">IDataSubmissionService</text><line style="stroke:#181818;stroke-width:0.5;" x1="597.66" x2="824.0106" y1="952.1469" y2="952.1469"/><line style="stroke:#181818;stroke-width:0.5;" x1="597.66" x2="824.0106" y1="960.1469" y2="960.1469"/><ellipse cx="607.66" cy="973.7953" fill="#84BE84" rx="3" ry="3" style="stroke:#038048;stroke-width:1;"/><text fill="#000000" font-family="sans-serif" font-size="14" lengthAdjust="spacing" textLength="202.3506" x="616.66" y="977.142">SaveAmbientDataAsync(dto)</text></g><!--class CropCreateDto--><g class="entity" data-entity="CropCreateDto" data-source-line="26" data-uid="ent0009" id="entity_CropCreateDto"><rect fill="#F1F1F1" height="64.2969" rx="2.5" ry="2.5" style="stroke:#181818;stroke-width:0.5;" width="136.6445" x="1101.98" y="791.1469"/><ellipse cx="1116.98" cy="807.1469" fill="#ADD1B2" rx="11" ry="11" style="stroke:#181818;stroke-width:1;"/><path d="M1119.9488,812.7875 Q1119.3706,813.0844 1118.73,813.225 Q1118.0894,813.3813 1117.3863,813.3813 Q1114.8863,813.3813 1113.5581,811.7406 Q1112.2456,810.0844 1112.2456,806.9594 Q1112.2456,803.8344 1113.5581,802.1781 Q1114.8863,800.5219 1117.3863,800.5219 Q1118.0894,800.5219 1118.73,800.6781 Q1119.3863,800.8344 1119.9488,801.1313 L1119.9488,803.85 Q1119.3238,803.2719 1118.73,803.0063 Q1118.1363,802.725 1117.5113,802.725 Q1116.1675,802.725 1115.48,803.8031 Q1114.7925,804.8656 1114.7925,806.9594 Q1114.7925,809.0531 1115.48,810.1313 Q1116.1675,811.1938 1117.5113,811.1938 Q1118.1363,811.1938 1118.73,810.9281 Q1119.3238,810.6469 1119.9488,810.0688 L1119.9488,812.7875 Z " fill="#000000"/><text fill="#000000" font-family="sans-serif" font-size="14" lengthAdjust="spacing" textLength="104.6445" x="1130.98" y="811.9936">CropCreateDto</text><line style="stroke:#181818;stroke-width:0.5;" x1="1102.98" x2="1237.6245" y1="823.1469" y2="823.1469"/><ellipse cx="1112.98" cy="836.7953" fill="none" rx="3" ry="3" style="stroke:#038048;stroke-width:1;"/><text fill="#000000" font-family="sans-serif" font-size="14" lengthAdjust="spacing" textLength="95.1084" x="1121.98" y="840.142">Name : string</text><line style="stroke:#181818;stroke-width:0.5;" x1="1102.98" x2="1237.6245" y1="847.4438" y2="847.4438"/></g><!--class CropSummaryDto--><g class="entity" data-entity="CropSummaryDto" data-source-line="30" data-uid="ent0010" id="entity_CropSummaryDto"><rect fill="#F1F1F1" height="80.5938" rx="2.5" ry="2.5" style="stroke:#181818;stroke-width:0.5;" width="157.4736" x="1091.56" y="889.9969"/><ellipse cx="1106.56" cy="905.9969" fill="#ADD1B2" rx="11" ry="11" style="stroke:#181818;stroke-width:1;"/><path d="M1109.5288,911.6375 Q1108.9506,911.9344 1108.31,912.075 Q1107.6694,912.2313 1106.9663,912.2313 Q1104.4663,912.2313 1103.1381,910.5906 Q1101.8256,908.9344 1101.8256,905.8094 Q1101.8256,902.6844 1103.1381,901.0281 Q1104.4663,899.3719 1106.9663,899.3719 Q1107.6694,899.3719 1108.31,899.5281 Q1108.9663,899.6844 1109.5288,899.9813 L1109.5288,902.7 Q1108.9038,902.1219 1108.31,901.8563 Q1107.7163,901.575 1107.0913,901.575 Q1105.7475,901.575 1105.06,902.6531 Q1104.3725,903.7156 1104.3725,905.8094 Q1104.3725,907.9031 1105.06,908.9813 Q1105.7475,910.0438 1107.0913,910.0438 Q1107.7163,910.0438 1108.31,909.7781 Q1108.9038,909.4969 1109.5288,908.9188 L1109.5288,911.6375 Z " fill="#000000"/><text fill="#000000" font-family="sans-serif" font-size="14" lengthAdjust="spacing" textLength="125.4736" x="1120.56" y="910.8436">CropSummaryDto</text><line style="stroke:#181818;stroke-width:0.5;" x1="1092.56" x2="1248.0336" y1="921.9969" y2="921.9969"/><ellipse cx="1102.56" cy="935.6453" fill="none" rx="3" ry="3" style="stroke:#038048;stroke-width:1;"/><text fill="#000000" font-family="sans-serif" font-size="14" lengthAdjust="spacing" textLength="44.8848" x="1111.56" y="938.992">Id : int</text><ellipse cx="1102.56" cy="951.9422" fill="none" rx="3" ry="3" style="stroke:#038048;stroke-width:1;"/><text fill="#000000" font-family="sans-serif" font-size="14" lengthAdjust="spacing" textLength="95.1084" x="1111.56" y="955.2889">Name : string</text><line style="stroke:#181818;stroke-width:0.5;" x1="1092.56" x2="1248.0336" y1="962.5906" y2="962.5906"/></g><!--class DeviceActivationRequestDto--><g class="entity" data-entity="DeviceActivationRequestDto" data-source-line="35" data-uid="ent0011" id="entity_DeviceActivationRequestDto"><rect fill="#F1F1F1" height="80.5938" rx="2.5" ry="2.5" style="stroke:#181818;stroke-width:0.5;" width="232.5459" x="1054.02" y="1005.9969"/><ellipse cx="1069.02" cy="1021.9969" fill="#ADD1B2" rx="11" ry="11" style="stroke:#181818;stroke-width:1;"/><path d="M1071.9888,1027.6375 Q1071.4106,1027.9344 1070.77,1028.075 Q1070.1294,1028.2313 1069.4263,1028.2313 Q1066.9263,1028.2313 1065.5981,1026.5906 Q1064.2856,1024.9344 1064.2856,1021.8094 Q1064.2856,1018.6844 1065.5981,1017.0281 Q1066.9263,1015.3719 1069.4263,1015.3719 Q1070.1294,1015.3719 1070.77,1015.5281 Q1071.4263,1015.6844 1071.9888,1015.9813 L1071.9888,1018.7 Q1071.3638,1018.1219 1070.77,1017.8563 Q1070.1763,1017.575 1069.5513,1017.575 Q1068.2075,1017.575 1067.52,1018.6531 Q1066.8325,1019.7156 1066.8325,1021.8094 Q1066.8325,1023.9031 1067.52,1024.9813 Q1068.2075,1026.0438 1069.5513,1026.0438 Q1070.1763,1026.0438 1070.77,1025.7781 Q1071.3638,1025.4969 1071.9888,1024.9188 L1071.9888,1027.6375 Z " fill="#000000"/><text fill="#000000" font-family="sans-serif" font-size="14" lengthAdjust="spacing" textLength="200.5459" x="1083.02" y="1026.8436">DeviceActivationRequestDto</text><line style="stroke:#181818;stroke-width:0.5;" x1="1055.02" x2="1285.5659" y1="1037.9969" y2="1037.9969"/><ellipse cx="1065.02" cy="1051.6453" fill="none" rx="3" ry="3" style="stroke:#038048;stroke-width:1;"/><text fill="#000000" font-family="sans-serif" font-size="14" lengthAdjust="spacing" textLength="92.7637" x="1074.02" y="1054.992">DeviceId : int</text><ellipse cx="1065.02" cy="1067.9422" fill="none" rx="3" ry="3" style="stroke:#038048;stroke-width:1;"/><text fill="#000000" font-family="sans-serif" font-size="14" lengthAdjust="spacing" textLength="159.9814" x="1074.02" y="1071.2889">ActivationCode : string</text><line style="stroke:#181818;stroke-width:0.5;" x1="1055.02" x2="1285.5659" y1="1078.5906" y2="1078.5906"/></g><!--class AmbientDataDto--><g class="entity" data-entity="AmbientDataDto" data-source-line="40" data-uid="ent0012" id="entity_AmbientDataDto"><rect fill="#F1F1F1" height="64.2969" rx="2.5" ry="2.5" style="stroke:#181818;stroke-width:0.5;" width="162.4385" x="1089.08" y="1121.1469"/><ellipse cx="1110.024" cy="1137.1469" fill="#ADD1B2" rx="11" ry="11" style="stroke:#181818;stroke-width:1;"/><path d="M1112.9928,1142.7875 Q1112.4147,1143.0844 1111.774,1143.225 Q1111.1334,1143.3813 1110.4303,1143.3813 Q1107.9303,1143.3813 1106.6022,1141.7406 Q1105.2897,1140.0844 1105.2897,1136.9594 Q1105.2897,1133.8344 1106.6022,1132.1781 Q1107.9303,1130.5219 1110.4303,1130.5219 Q1111.1334,1130.5219 1111.774,1130.6781 Q1112.4303,1130.8344 1112.9928,1131.1313 L1112.9928,1133.85 Q1112.3678,1133.2719 1111.774,1133.0063 Q1111.1803,1132.725 1110.5553,1132.725 Q1109.2115,1132.725 1108.524,1133.8031 Q1107.8365,1134.8656 1107.8365,1136.9594 Q1107.8365,1139.0531 1108.524,1140.1313 Q1109.2115,1141.1938 1110.5553,1141.1938 Q1111.1803,1141.1938 1111.774,1140.9281 Q1112.3678,1140.6469 1112.9928,1140.0688 L1112.9928,1142.7875 Z " fill="#000000"/><text fill="#000000" font-family="sans-serif" font-size="14" lengthAdjust="spacing" textLength="117.2295" x="1125.3449" y="1141.9936">AmbientDataDto</text><line style="stroke:#181818;stroke-width:0.5;" x1="1090.08" x2="1250.5185" y1="1153.1469" y2="1153.1469"/><ellipse cx="1100.08" cy="1166.7953" fill="none" rx="3" ry="3" style="stroke:#038048;stroke-width:1;"/><text fill="#000000" font-family="sans-serif" font-size="14" lengthAdjust="spacing" textLength="136.4385" x="1109.08" y="1170.142">Temperature : float</text><line style="stroke:#181818;stroke-width:0.5;" x1="1090.08" x2="1250.5185" y1="1177.4438" y2="1177.4438"/></g><!--class BaseAdminController--><g class="entity" data-entity="BaseAdminController" data-source-line="51" data-uid="ent0015" id="entity_BaseAdminController"><rect fill="#F1F1F1" height="96.8906" rx="2.5" ry="2.5" style="stroke:#181818;stroke-width:0.5;" width="444.6533" x="47" y="265.8469"/><ellipse cx="191.0127" cy="281.8469" fill="#ADD1B2" rx="11" ry="11" style="stroke:#181818;stroke-width:1;"/><path d="M193.9814,287.4875 Q193.4033,287.7844 192.7627,287.925 Q192.1221,288.0813 191.4189,288.0813 Q188.9189,288.0813 187.5908,286.4406 Q186.2783,284.7844 186.2783,281.6594 Q186.2783,278.5344 187.5908,276.8781 Q188.9189,275.2219 191.4189,275.2219 Q192.1221,275.2219 192.7627,275.3781 Q193.4189,275.5344 193.9814,275.8313 L193.9814,278.55 Q193.3564,277.9719 192.7627,277.7063 Q192.1689,277.425 191.5439,277.425 Q190.2002,277.425 189.5127,278.5031 Q188.8252,279.5656 188.8252,281.6594 Q188.8252,283.7531 189.5127,284.8313 Q190.2002,285.8938 191.5439,285.8938 Q192.1689,285.8938 192.7627,285.6281 Q193.3564,285.3469 193.9814,284.7688 L193.9814,287.4875 Z " fill="#000000"/><text fill="#000000" font-family="sans-serif" font-size="14" lengthAdjust="spacing" textLength="148.1279" x="211.5127" y="286.6936">BaseAdminController</text><line style="stroke:#181818;stroke-width:0.5;" x1="48" x2="490.6533" y1="297.8469" y2="297.8469"/><polygon fill="none" points="58,306.4953,62,310.4953,58,314.4953,54,310.4953" style="stroke:#B38D22;stroke-width:1;"/><text fill="#000000" font-family="sans-serif" font-size="14" lengthAdjust="spacing" textLength="239.9688" x="67" y="314.842">SuccessMessageKey : const string</text><polygon fill="none" points="58,322.7922,62,326.7922,58,330.7922,54,326.7922" style="stroke:#B38D22;stroke-width:1;"/><text fill="#000000" font-family="sans-serif" font-size="14" lengthAdjust="spacing" textLength="218.292" x="67" y="331.1389">ErrorMessageKey : const string</text><line style="stroke:#181818;stroke-width:0.5;" x1="48" x2="490.6533" y1="338.4406" y2="338.4406"/><polygon fill="#FFFF44" points="58,347.0891,62,351.0891,58,355.0891,54,351.0891" style="stroke:#B38D22;stroke-width:1;"/><text fill="#000000" font-family="sans-serif" font-size="14" lengthAdjust="spacing" textLength="418.6533" x="67" y="355.4357">HandleServiceResult(result, success, failure) : IActionResult</text></g><g class="entity" data-entity="GMN16" data-source-line="57" data-uid="ent0017" id="entity_GMN16"><path d="M583.83,292.0269 L583.83,319.5569 L492.01,320.8569 L583.83,327.5569 L583.83,362.5581 A0,0 0 0 0 583.83,362.5581 L837.8461,362.5581 A0,0 0 0 0 837.8461,362.5581 L837.8461,302.0269 L827.8461,292.0269 L583.83,292.0269 A0,0 0 0 0 583.83,292.0269" fill="#FEFFDD" style="stroke:#181818;stroke-width:0.5;"/><path d="M827.8461,292.0269 L827.8461,302.0269 L837.8461,302.0269 L827.8461,292.0269" fill="#FEFFDD" style="stroke:#181818;stroke-width:0.5;"/><text fill="#000000" font-family="sans-serif" font-size="13" lengthAdjust="spacing" textLength="225.4941" x="589.83" y="309.0938">Clase base que centraliza la lógica</text><text fill="#000000" font-family="sans-serif" font-size="13" lengthAdjust="spacing" textLength="230.439" x="589.83" y="324.2266">común para manejar los resultados</text><text fill="#000000" font-family="sans-serif" font-size="13" lengthAdjust="spacing" textLength="233.0161" x="589.83" y="339.3594">de los servicios y mostrar mensajes</text><text fill="#000000" font-family="sans-serif" font-size="13" lengthAdjust="spacing" textLength="173.5449" x="589.83" y="354.4922">al usuario (vía TempData).</text></g><!--class CropsController--><g class="entity" data-entity="CropsController" data-source-line="63" data-uid="ent0019" id="entity_CropsController"><rect fill="#F1F1F1" height="129.4844" rx="2.5" ry="2.5" style="stroke:#181818;stroke-width:0.5;" width="270.3711" x="575.65" y="127.5569"/><ellipse cx="651.8604" cy="143.5569" fill="#ADD1B2" rx="11" ry="11" style="stroke:#181818;stroke-width:1;"/><path d="M654.8292,149.1975 Q654.2511,149.4944 653.6104,149.635 Q652.9698,149.7913 652.2667,149.7913 Q649.7667,149.7913 648.4386,148.1506 Q647.1261,146.4944 647.1261,143.3694 Q647.1261,140.2444 648.4386,138.5881 Q649.7667,136.9319 652.2667,136.9319 Q652.9698,136.9319 653.6104,137.0881 Q654.2667,137.2444 654.8292,137.5413 L654.8292,140.26 Q654.2042,139.6819 653.6104,139.4163 Q653.0167,139.135 652.3917,139.135 Q651.0479,139.135 650.3604,140.2131 Q649.6729,141.2756 649.6729,143.3694 Q649.6729,145.4631 650.3604,146.5413 Q651.0479,147.6038 652.3917,147.6038 Q653.0167,147.6038 653.6104,147.3381 Q654.2042,147.0569 654.8292,146.4788 L654.8292,149.1975 Z " fill="#000000"/><text fill="#000000" font-family="sans-serif" font-size="14" lengthAdjust="spacing" textLength="109.4502" x="672.3604" y="148.4036">CropsController</text><line style="stroke:#181818;stroke-width:0.5;" x1="576.65" x2="845.0211" y1="159.5569" y2="159.5569"/><rect fill="none" height="6" style="stroke:#C82930;stroke-width:1;" width="6" x="583.65" y="170.2053"/><text fill="#000000" font-family="sans-serif" font-size="14" lengthAdjust="spacing" textLength="192.1172" x="595.65" y="176.552">_cropService : ICropService</text><line style="stroke:#181818;stroke-width:0.5;" x1="576.65" x2="845.0211" y1="183.8538" y2="183.8538"/><ellipse cx="586.65" cy="197.5022" fill="#84BE84" rx="3" ry="3" style="stroke:#038048;stroke-width:1;"/><text fill="#000000" font-family="sans-serif" font-size="14" lengthAdjust="spacing" textLength="211.4287" x="595.65" y="200.8489">Index() : Task&lt;IActionResult&gt;</text><ellipse cx="586.65" cy="213.7991" fill="#84BE84" rx="3" ry="3" style="stroke:#038048;stroke-width:1;"/><text fill="#000000" font-family="sans-serif" font-size="14" lengthAdjust="spacing" textLength="163.4746" x="595.65" y="217.1457">Create() : IActionResult</text><ellipse cx="586.65" cy="230.0959" fill="#84BE84" rx="3" ry="3" style="stroke:#038048;stroke-width:1;"/><text fill="#000000" font-family="sans-serif" font-size="14" lengthAdjust="spacing" textLength="242.4092" x="595.65" y="233.4426">Create(dto) : Task&lt;IActionResult&gt;</text><ellipse cx="586.65" cy="246.3928" fill="#84BE84" rx="3" ry="3" style="stroke:#038048;stroke-width:1;"/><text fill="#000000" font-family="sans-serif" font-size="14" lengthAdjust="spacing" textLength="244.3711" x="595.65" y="249.7395">Edit(id, dto) : Task&lt;IActionResult&gt;</text></g><!--class DeviceApiController--><g class="entity" data-entity="DeviceApiController" data-source-line="75" data-uid="ent0021" id="entity_DeviceApiController"><rect fill="#F1F1F1" height="113.1875" rx="2.5" ry="2.5" style="stroke:#181818;stroke-width:0.5;" width="379.3701" x="79.64" y="442.7069"/><ellipse cx="195.3724" cy="458.7069" fill="#ADD1B2" rx="11" ry="11" style="stroke:#181818;stroke-width:1;"/><path d="M198.3412,464.3475 Q197.763,464.6444 197.1224,464.785 Q196.4818,464.9413 195.7787,464.9413 Q193.2787,464.9413 191.9505,463.3006 Q190.638,461.6444 190.638,458.5194 Q190.638,455.3944 191.9505,453.7381 Q193.2787,452.0819 195.7787,452.0819 Q196.4818,452.0819 197.1224,452.2381 Q197.7787,452.3944 198.3412,452.6913 L198.3412,455.41 Q197.7162,454.8319 197.1224,454.5663 Q196.5287,454.285 195.9037,454.285 Q194.5599,454.285 193.8724,455.3631 Q193.1849,456.4256 193.1849,458.5194 Q193.1849,460.6131 193.8724,461.6913 Q194.5599,462.7538 195.9037,462.7538 Q196.5287,462.7538 197.1224,462.4881 Q197.7162,462.2069 198.3412,461.6288 L198.3412,464.3475 Z " fill="#000000"/><text fill="#000000" font-family="sans-serif" font-size="14" lengthAdjust="spacing" textLength="139.4053" x="215.8724" y="463.5536">DeviceApiController</text><line style="stroke:#181818;stroke-width:0.5;" x1="80.64" x2="458.0101" y1="474.7069" y2="474.7069"/><rect fill="none" height="6" style="stroke:#C82930;stroke-width:1;" width="6" x="87.64" y="485.3553"/><text fill="#000000" font-family="sans-serif" font-size="14" lengthAdjust="spacing" textLength="222.0928" x="99.64" y="491.702">_deviceService : IDeviceService</text><rect fill="none" height="6" style="stroke:#C82930;stroke-width:1;" width="6" x="87.64" y="501.6522"/><text fill="#000000" font-family="sans-serif" font-size="14" lengthAdjust="spacing" textLength="353.3701" x="99.64" y="507.9989">_dataSubmissionService : IDataSubmissionService</text><line style="stroke:#181818;stroke-width:0.5;" x1="80.64" x2="458.0101" y1="515.3006" y2="515.3006"/><ellipse cx="90.64" cy="528.9491" fill="#84BE84" rx="3" ry="3" style="stroke:#038048;stroke-width:1;"/><text fill="#000000" font-family="sans-serif" font-size="14" lengthAdjust="spacing" textLength="301.082" x="99.64" y="532.2957">ActivateDevice(dto) : Task&lt;IActionResult&gt;</text><ellipse cx="90.64" cy="545.2459" fill="#84BE84" rx="3" ry="3" style="stroke:#038048;stroke-width:1;"/><text fill="#000000" font-family="sans-serif" font-size="14" lengthAdjust="spacing" textLength="337.6406" x="99.64" y="548.5926">SubmitAmbientData(dto) : Task&lt;IActionResult&gt;</text></g><!--reverse link Controller to BaseAdminController--><g class="link" data-entity-1="Controller" data-entity-2="BaseAdminController" data-source-line="89" data-uid="lnk22" id="link_Controller_BaseAdminController"><path codeLine="89" d="M683.6308,640.0305 C650.5808,591.4105 580.74,495.9869 491.65,426.2969 C460.36,401.8169 422.88,380.4369 387.74,363.1069" fill="none" id="Controller-backto-BaseAdminController" style="stroke:#181818;stroke-width:1;"/><polygon fill="none" points="693.75,654.9169,688.593,636.6575,678.6687,643.4036,693.75,654.9169" style="stroke:#181818;stroke-width:1;"/></g><!--reverse link BaseAdminController to CropsController--><g class="link" data-entity-1="BaseAdminController" data-entity-2="CropsController" data-source-line="90" data-uid="lnk23" id="link_BaseAdminController_CropsController"><path codeLine="90" d="M463.9042,260.5624 C506.7742,248.6624 534.6,240.9369 575.19,229.6769" fill="none" id="BaseAdminController-backto-CropsController" style="stroke:#181818;stroke-width:1;"/><polygon fill="none" points="446.56,265.3769,465.509,266.3438,462.2994,254.781,446.56,265.3769" style="stroke:#181818;stroke-width:1;"/></g><!--reverse link ControllerBase to DeviceApiController--><g class="link" data-entity-1="ControllerBase" data-entity-2="DeviceApiController" data-source-line="91" data-uid="lnk24" id="link_ControllerBase_DeviceApiController"><path codeLine="91" d="M625.4405,746.1444 C601.9105,739.9644 593.56,735.2169 572.66,721.2969 C556.89,710.7869 559.61,701.1269 545.65,688.2969 C491.12,638.1769 422.45,591.0169 367.33,556.3369" fill="none" id="ControllerBase-backto-DeviceApiController" style="stroke:#181818;stroke-width:1;"/><polygon fill="none" points="642.85,750.7169,626.9646,740.3412,623.9163,751.9476,642.85,750.7169" style="stroke:#181818;stroke-width:1;"/></g><!--link CropsController to ICropService--><g class="link" data-entity-1="CropsController" data-entity-2="ICropService" data-source-line="94" data-uid="lnk25" id="link_CropsController_ICropService"><path codeLine="94" d="M585.57,257.2869 C580.75,262.5769 576.39,268.2369 572.66,274.2969 C521.35,357.6469 538.78,616.0369 543.68,713.7969 C550.13,842.5069 495.72,898.9169 572.66,1002.2969 C584.52,1018.2269 596.1624,1027.2239 614.3324,1035.5239" fill="none" id="CropsController-to-ICropService" style="stroke:#181818;stroke-width:1;stroke-dasharray:7,7;"/><polygon fill="#181818" points="619.79,1038.0169,613.2657,1030.639,615.242,1035.9394,609.9417,1037.9158,619.79,1038.0169" style="stroke:#181818;stroke-width:1;"/><text fill="#000000" font-family="sans-serif" font-size="13" lengthAdjust="spacing" textLength="22.9785" x="522.65" y="709.8638">usa</text></g><!--link DeviceApiController to IDeviceService--><g class="link" data-entity-1="DeviceApiController" data-entity-2="IDeviceService" data-source-line="95" data-uid="lnk26" id="link_DeviceApiController_IDeviceService"><path codeLine="95" d="M313.31,556.1069 C367.19,623.7669 465.55,736.1769 572.66,804.2969 C583.33,811.0869 589.5787,814.6692 601.5487,819.9392" fill="none" id="DeviceApiController-to-IDeviceService" style="stroke:#181818;stroke-width:1;stroke-dasharray:7,7;"/><polygon fill="#181818" points="607.04,822.3569,600.4148,815.0695,602.4639,820.3422,597.1912,822.3913,607.04,822.3569" style="stroke:#181818;stroke-width:1;"/><text fill="#000000" font-family="sans-serif" font-size="13" lengthAdjust="spacing" textLength="22.9785" x="522.65" y="767.3638">usa</text></g><!--link DeviceApiController to IDataSubmissionService--><g class="link" data-entity-1="DeviceApiController" data-entity-2="IDataSubmissionService" data-source-line="96" data-uid="lnk27" id="link_DeviceApiController_IDataSubmissionService"><path codeLine="96" d="M298.78,556.2469 C344.87,643.0169 443.84,808.2369 572.66,903.2969 C581.01,909.4569 584.8391,912.2024 594.3891,917.0024" fill="none" id="DeviceApiController-to-IDataSubmissionService" style="stroke:#181818;stroke-width:1;stroke-dasharray:7,7;"/><polygon fill="#181818" points="599.75,919.6969,593.5049,912.0812,595.2826,917.4515,589.9123,919.2291,599.75,919.6969" style="stroke:#181818;stroke-width:1;"/><text fill="#000000" font-family="sans-serif" font-size="13" lengthAdjust="spacing" textLength="22.9785" x="522.65" y="865.3638">usa</text></g><!--link CropsController to CropSummaryDto--><g class="link" data-entity-1="CropsController" data-entity-2="CropSummaryDto" data-source-line="99" data-uid="lnk28" id="link_CropsController_CropSummaryDto"><path codeLine="99" d="M846.36,231.5269 C865.05,242.5069 881.96,256.4969 894.02,274.2969 C905.51,291.2369 898.54,438.1369 902.02,458.2969 C934.93,648.4869 899.77,730.8569 1030.02,873.2969 C1046.33,891.1269 1063.4361,901.3731 1085.7861,909.9231" fill="none" id="CropsController-to-CropSummaryDto" style="stroke:#181818;stroke-width:1;stroke-dasharray:7,7;"/><polygon fill="#181818" points="1091.39,912.0669,1084.4133,905.1152,1086.72,910.2804,1081.5549,912.5872,1091.39,912.0669" style="stroke:#181818;stroke-width:1;"/><text fill="#000000" font-family="sans-serif" font-size="13" lengthAdjust="spacing" textLength="118.606" x="903.02" y="454.3638">retorna en Index()</text></g><!--link CropsController to CropCreateDto--><g class="link" data-entity-1="CropsController" data-entity-2="CropCreateDto" data-source-line="100" data-uid="lnk29" id="link_CropsController_CropCreateDto"><path codeLine="100" d="M846.48,239.8869 C863.7,249.5669 880.13,260.9769 894.02,274.2969 C1055.24,428.9069 1135.4251,692.3339 1159.7851,785.0339" fill="none" id="CropsController-to-CropCreateDto" style="stroke:#181818;stroke-width:1;stroke-dasharray:7,7;"/><polygon fill="#181818" points="1161.31,790.8369,1162.8913,781.1158,1160.0392,786.0011,1155.154,783.149,1161.31,790.8369" style="stroke:#181818;stroke-width:1;"/><text fill="#000000" font-family="sans-serif" font-size="13" lengthAdjust="spacing" textLength="101.1055" x="911.52" y="282.3638">usa en Create()</text></g><!--link DeviceApiController to DeviceActivationRequestDto--><g class="link" data-entity-1="DeviceApiController" data-entity-2="DeviceActivationRequestDto" data-source-line="101" data-uid="lnk30" id="link_DeviceApiController_DeviceActivationRequestDto"><path codeLine="101" d="M277.52,556.3169 C297.31,685.9669 365.6,1001.7269 572.66,1132.2969 C693.48,1208.4769 752.83,1153.8369 894.02,1132.2969 C951.93,1123.4569 1008.7451,1106.7141 1059.5151,1088.9941" fill="none" id="DeviceApiController-to-DeviceActivationRequestDto" style="stroke:#181818;stroke-width:1;stroke-dasharray:7,7;"/><polygon fill="#181818" points="1065.18,1087.0169,1055.3646,1086.2061,1060.4593,1088.6645,1058.0008,1093.7592,1065.18,1087.0169" style="stroke:#181818;stroke-width:1;"/><text fill="#000000" font-family="sans-serif" font-size="13" lengthAdjust="spacing" textLength="155.5874" x="633.34" y="1128.3638">usa en ActivateDevice()</text></g><!--link DeviceApiController to AmbientDataDto--><g class="link" data-entity-1="DeviceApiController" data-entity-2="AmbientDataDto" data-source-line="102" data-uid="lnk31" id="link_DeviceApiController_AmbientDataDto"><path codeLine="102" d="M273.32,556.3869 C284.34,698.7369 335.58,1067.2869 572.66,1197.2969 C737.73,1287.8069 962.4829,1230.0962 1082.9629,1187.5162" fill="none" id="DeviceApiController-to-AmbientDataDto" style="stroke:#181818;stroke-width:1;stroke-dasharray:7,7;"/><polygon fill="#181818" points="1088.62,1185.5169,1078.8015,1184.7445,1083.9058,1187.183,1081.4672,1192.2873,1088.62,1185.5169" style="stroke:#181818;stroke-width:1;"/><text fill="#000000" font-family="sans-serif" font-size="13" lengthAdjust="spacing" textLength="189.5347" x="616.34" y="1193.3638">usa en SubmitAmbientData()</text></g><!--SRC=[fLR1Sjis4BtpAtRIGwYfhTur7i-majje6ZiUoysrimPNAc8GK07GYPFuatBABLV_M1UWI94KfIgfnfPbuU7jOj- -1HKjFNW3Lgx-zf1BIy9BenCllIAOILnPB11oWgb2Hsu2r-ZjyrSTlpBQMwCmDvOSFC9RwJmwI2_VJk4NoAxdeoHv2QUdfv3TEMzH2APcPFeRaz9xO-zvqnJNaJzRAobGIEOUXJt96iKzhWXUT3Q_WBEpgJ9bVduEdnBW5rRB7WHdwEga5Dd3gx_oSI8YladjoIvH4CodrgmNP1ya_rD50FWPVYUVAHNMNEOUjKX7pTBK4deAIzLAxasz-1B6ut7y_DGFCwCGOJTGnW8yC5-r_bsCw75HtXNIEIxLBlC27oWhxYHf7w07gPzgvMQtRoffwVsboKaviBHckPa4EL7Zkbhjm8DUDznKg5UA6iqsOd39gkBDk0NhH4EgLzmVC06MJkfLytt_x5kMHLaKQ1_xDFESIRX2FyYyaQ0IX4jwG_-Kv7m_IWKRYBNTEULQ71kr9L4_qYqLQxBeInlObigW7oHhrAlDTRrHBDghgzWW9AWMJHeLIoh-G3ZiVWYE3wm1k6NkZ0U61DOhhaJJ1jj31pTcUI7rrg0jJ7Zz18jI27Bkad-P_mzwv1e8evtlrxM2NrXhxB7WLwXpLRlnXbofV6hZdnDmLTmJMA9KNFeHKyqpKNL4W3HSJyqdRJnjXgfP3fsk5JzELhWBRznV85W5Yqf-H53yy_nrnNEn1HUcUFwckSmMeK1Dxz22Ci6N8HUkjck1MQUmvkB1f0dUB4oOY1OAqWxVKHkD2afNefK6qeVdBnWRBZJYQDoWIEVnT4bFmJWQzwft2d-9rboTTCPi1yckrJbzI4ELRz7TdtLAVTx3LkCZtIz91nQ6tL6q5xdqgSnFuCWTM_Djs-3f2D_m7VbVlc780TziHjHQ7gfythbg9hsxPmSzU8rCzjmllS9rRw_Z2nvvVMlqfV-hybpxpGIykNYTJUTlhYuMiT3yxIkof8N4f5MoiyyC7NBfq5oAu5wx9zq7Ymep84v8O4PhDb7CWP-5kchdcxNGA8lQjAEaRwxn-Bpxe39Xus8or0qHEkjrm67mdWO8cpZzFvq9sOMRVZ2ltdqyuS7aZTN8awEszjvzswU162vigHs-Dzy3jtH3qclB_MIzoxSXsEtFqRy0]--></g></svg>