<svg xmlns="http://www.w3.org/2000/svg" xmlns:xlink="http://www.w3.org/1999/xlink" contentStyleType="text/css" data-diagram-type="CLASS" height="1259px" preserveAspectRatio="none" style="width:1099px;height:1259px;background:#FFFFFF;" version="1.1" viewBox="0 0 1099 1259" width="1099px" zoomAndPan="magnify"><title>Diagrama de Clases: Servicios de Infraestructura y Tareas en Segundo Plano</title><defs/><g><g class="title" data-source-line="2"><text fill="#000000" font-family="sans-serif" font-size="14" font-weight="bold" lengthAdjust="spacing" textLength="607.1338" x="238.9492" y="22.9951">Diagrama de Clases: Servicios de Infraestructura y Tareas en Segundo Plano</text></g><!--cluster Abstracciones--><g class="cluster" data-entity="Abstracciones" data-source-line="5" data-uid="ent0002" id="cluster_Abstracciones"><path d="M38.889,616.3164 C46.8827,601.7519 61.4142,602.8537 69.5864,616.1195 C76.4277,599.7544 93.2373,595.9703 103.6427,612.4205 C113.4643,599.9847 123.0841,599.8797 133.1214,612.1633 C141.1457,597.4101 156.4941,598.0517 164.7578,611.8984 C174.5287,599.5512 187.0322,601.6416 191.8777,616.7616 C205.8508,603.9332 218.6167,605.471 228.0522,622.2969 C229.4421,623.143 229.5755,623.9938 228.3567,625.1211 C243.5474,632.9094 243.7997,644.2563 229.6394,653.3771 C242.1316,661.234 244.0063,673.0503 230.9369,682.0634 C243.4191,691.587 241.8722,701.9317 228.8751,709.5437 C242.9505,717.8541 245.6975,730.3393 230.0255,739.7814 C241.0479,746.9343 242.585,759.0827 229.9031,766.1254 C245.2021,773.0037 247.1051,787.868 233.5573,798.0483 C245.3076,806.797 244.7342,818.2478 231.8798,825.4925 C243.5231,835.8271 244.2099,846.5174 230.0723,855.288 C241.263,861.4456 242.9832,870.966 233.8586,880.2099 C245.7807,890.8314 246.2976,900.7506 231.1774,908.8394 C246.933,918.2099 248.7659,928.5126 232.7938,939.5529 C244.2289,951.3307 246.2502,961.846 228.8067,969.8195 C243.5112,976.0557 244.8748,985.8263 232.6714,996.03 C243.8161,1009.9121 241.7361,1027.2072 221.0522,1030.2969 C221.8672,1029.3489 222.8751,1029.4046 223.4861,1030.5357 C216.4757,1048.8779 204.4822,1049.4081 192.1444,1035.7541 C184.7768,1051.4898 173.9649,1051.6972 162.2928,1040.5303 C152.7633,1056.0264 142.491,1055.2415 133.1723,1040.3285 C121.9809,1052.2834 111.4808,1049.5429 103.8655,1036.1878 C94.5506,1053.5091 80.8596,1049.9289 71.5913,1036.1394 C51.7898,1050.4947 38.9484,1044.9931 30.3822,1023.2969 C31.7349,1021.7588 33.0352,1021.9999 33.9609,1023.7602 C22.2751,1015.8066 21.2754,1005.2251 34.3095,997.6009 C21.3293,991.2107 17.1537,982.7479 28.3268,970.938 C15.3256,962.6597 16.3626,948.7591 28.9718,941.0332 C16.5244,933.3639 15.3352,921.861 27.5806,912.9677 C14.0147,903.0209 12.1527,893.5525 26.8735,882.9397 C11.4542,875.8329 12.1625,865.572 22.2358,854.3324 C7.4017,847.8714 7.0997,834.3955 21.2284,826.872 C6,815.2459 7.3933,801.9828 25.847,795.2811 C13.5863,787.4834 14.6673,775.2699 27.1568,768.6914 C14.5599,760.723 14.5142,750.0239 26.3898,741.3685 C10.9767,729.4417 12.6931,718.3647 30.1762,710.469 C15.0587,703.8232 15.3889,689.7189 28.8564,681.7589 C15.0515,670.7986 18.6492,660.7058 32.5231,653.3135 C16.6027,640.9704 19.6648,623.3405 37.3822,615.2969 C38.2927,614.833 38.9092,615.4047 38.889,616.3164" fill="none" style="stroke:#181818;stroke-width:1;"/><text fill="#000000" font-family="sans-serif" font-size="14" font-weight="bold" lengthAdjust="spacing" textLength="111.043" x="73.6957" y="633.292">Abstracciones</text></g><!--cluster Tareas en Segundo Plano (Background Services)--><g class="cluster" data-entity="Tareas en Segundo Plano .Background Services." data-source-line="14" data-uid="ent0008" id="cluster_Tareas en Segundo Plano .Background Services."><rect fill="none" height="479" rx="2.5" ry="2.5" style="stroke:#181818;stroke-width:1;" width="398.05" x="295.9022" y="44.2969"/><path d="M689.7333,44.2969 L689.7333,53.5938 L679.7333,63.5938 L295.9022,63.5938" fill="none" style="stroke:#181818;stroke-width:1;"/><text fill="#000000" font-family="sans-serif" font-size="14" font-weight="bold" lengthAdjust="spacing" textLength="383.8311" x="298.9022" y="58.292">Tareas en Segundo Plano (Background Services)</text></g><!--cluster Implementaciones de Servicios Externos--><g class="cluster" data-entity="Implementaciones de Servicios Externos" data-source-line="34" data-uid="ent0013" id="cluster_Implementaciones de Servicios Externos"><rect fill="none" height="543" rx="2.5" ry="2.5" style="stroke:#181818;stroke-width:1;" width="450.75" x="269.0522" y="547.2969"/><path d="M599.063,547.2969 L599.063,556.5938 L589.063,566.5938 L269.0522,566.5938" fill="none" style="stroke:#181818;stroke-width:1;"/><text fill="#000000" font-family="sans-serif" font-size="14" font-weight="bold" lengthAdjust="spacing" textLength="320.0107" x="272.0522" y="561.292">Implementaciones de Servicios Externos</text></g><!--cluster Generaci?n de Documentos PDF--><g class="cluster" data-entity="Generaci.n de Documentos PDF" data-source-line="58" data-uid="ent0018" id="cluster_Generaci.n de Documentos PDF"><rect fill="none" height="139" rx="2.5" ry="2.5" style="stroke:#181818;stroke-width:1;" width="721.88" x="371.1522" y="1114.2969"/><text fill="#000000" font-family="sans-serif" font-size="14" font-weight="bold" lengthAdjust="spacing" textLength="253.2646" x="605.4599" y="1129.292">Generación de Documentos PDF</text></g><!--class BackgroundService--><g class="entity" data-entity="BackgroundService" data-source-line="6" data-uid="ent0003" id="entity_BackgroundService"><rect fill="#F1F1F1" height="48" rx="2.5" ry="2.5" style="stroke:#181818;stroke-width:0.5;" width="167.5703" x="45.4322" y="642.2969"/><ellipse cx="60.4322" cy="658.2969" fill="#A9DCDF" rx="11" ry="11" style="stroke:#181818;stroke-width:1;"/><path d="M60.5416,653.6406 L59.3853,658.7188 L61.7135,658.7188 L60.5416,653.6406 Z M59.0572,651.4063 L62.0416,651.4063 L65.401,663.7969 L62.9478,663.7969 L62.1822,660.7344 L58.901,660.7344 L58.151,663.7969 L55.7135,663.7969 L59.0572,651.4063 Z " fill="#000000"/><text fill="#000000" font-family="sans-serif" font-size="14" font-style="italic" lengthAdjust="spacing" textLength="135.5703" x="74.4322" y="663.1436">BackgroundService</text><line style="stroke:#181818;stroke-width:0.5;" x1="46.4322" x2="212.0025" y1="674.2969" y2="674.2969"/><line style="stroke:#181818;stroke-width:0.5;" x1="46.4322" x2="212.0025" y1="682.2969" y2="682.2969"/></g><!--class IEmailService--><g class="entity" data-entity="IEmailService" data-source-line="7" data-uid="ent0004" id="entity_IEmailService"><rect fill="#F1F1F1" height="48" rx="2.5" ry="2.5" style="stroke:#181818;stroke-width:0.5;" width="126.7119" x="65.8622" y="725.2969"/><ellipse cx="80.8622" cy="741.2969" fill="#B4A7E5" rx="11" ry="11" style="stroke:#181818;stroke-width:1;"/><path d="M76.7841,737.0625 L76.7841,734.9063 L84.1747,734.9063 L84.1747,737.0625 L81.706,737.0625 L81.706,745.1406 L84.1747,745.1406 L84.1747,747.2969 L76.7841,747.2969 L76.7841,745.1406 L79.2528,745.1406 L79.2528,737.0625 L76.7841,737.0625 Z " fill="#000000"/><text fill="#000000" font-family="sans-serif" font-size="14" font-style="italic" lengthAdjust="spacing" textLength="94.7119" x="94.8622" y="746.1436">IEmailService</text><line style="stroke:#181818;stroke-width:0.5;" x1="66.8622" x2="191.5741" y1="757.2969" y2="757.2969"/><line style="stroke:#181818;stroke-width:0.5;" x1="66.8622" x2="191.5741" y1="765.2969" y2="765.2969"/></g><!--class IFileStorageService--><g class="entity" data-entity="IFileStorageService" data-source-line="8" data-uid="ent0005" id="entity_IFileStorageService"><rect fill="#F1F1F1" height="48" rx="2.5" ry="2.5" style="stroke:#181818;stroke-width:0.5;" width="167.0918" x="45.6722" y="808.2969"/><ellipse cx="60.6722" cy="824.2969" fill="#B4A7E5" rx="11" ry="11" style="stroke:#181818;stroke-width:1;"/><path d="M56.5941,820.0625 L56.5941,817.9063 L63.9847,817.9063 L63.9847,820.0625 L61.516,820.0625 L61.516,828.1406 L63.9847,828.1406 L63.9847,830.2969 L56.5941,830.2969 L56.5941,828.1406 L59.0628,828.1406 L59.0628,820.0625 L56.5941,820.0625 Z " fill="#000000"/><text fill="#000000" font-family="sans-serif" font-size="14" font-style="italic" lengthAdjust="spacing" textLength="135.0918" x="74.6722" y="829.1436">IFileStorageService</text><line style="stroke:#181818;stroke-width:0.5;" x1="46.6722" x2="211.764" y1="840.2969" y2="840.2969"/><line style="stroke:#181818;stroke-width:0.5;" x1="46.6722" x2="211.764" y1="848.2969" y2="848.2969"/></g><!--class ITurnstileService--><g class="entity" data-entity="ITurnstileService" data-source-line="9" data-uid="ent0006" id="entity_ITurnstileService"><rect fill="#F1F1F1" height="48" rx="2.5" ry="2.5" style="stroke:#181818;stroke-width:0.5;" width="149.0996" x="54.6722" y="891.2969"/><ellipse cx="69.6722" cy="907.2969" fill="#B4A7E5" rx="11" ry="11" style="stroke:#181818;stroke-width:1;"/><path d="M65.5941,903.0625 L65.5941,900.9063 L72.9847,900.9063 L72.9847,903.0625 L70.516,903.0625 L70.516,911.1406 L72.9847,911.1406 L72.9847,913.2969 L65.5941,913.2969 L65.5941,911.1406 L68.0628,911.1406 L68.0628,903.0625 L65.5941,903.0625 Z " fill="#000000"/><text fill="#000000" font-family="sans-serif" font-size="14" font-style="italic" lengthAdjust="spacing" textLength="117.0996" x="83.6722" y="912.1436">ITurnstileService</text><line style="stroke:#181818;stroke-width:0.5;" x1="55.6722" x2="202.7718" y1="923.2969" y2="923.2969"/><line style="stroke:#181818;stroke-width:0.5;" x1="55.6722" x2="202.7718" y1="931.2969" y2="931.2969"/></g><!--class IDocument--><g class="entity" data-entity="IDocument" data-source-line="10" data-uid="ent0007" id="entity_IDocument"><rect fill="#F1F1F1" height="48" rx="2.5" ry="2.5" style="stroke:#181818;stroke-width:0.5;" width="181.6729" x="38.3822" y="974.2969"/><ellipse cx="53.3822" cy="990.2969" fill="#B4A7E5" rx="11" ry="11" style="stroke:#181818;stroke-width:1;"/><path d="M49.3041,986.0625 L49.3041,983.9063 L56.6947,983.9063 L56.6947,986.0625 L54.226,986.0625 L54.226,994.1406 L56.6947,994.1406 L56.6947,996.2969 L49.3041,996.2969 L49.3041,994.1406 L51.7728,994.1406 L51.7728,986.0625 L49.3041,986.0625 Z " fill="#000000"/><text fill="#000000" font-family="sans-serif" font-size="14" font-style="italic" lengthAdjust="spacing" textLength="149.6729" x="67.3822" y="995.1436">QuestPDF.IDocument</text><line style="stroke:#181818;stroke-width:0.5;" x1="39.3822" x2="219.0551" y1="1006.2969" y2="1006.2969"/><line style="stroke:#181818;stroke-width:0.5;" x1="39.3822" x2="219.0551" y1="1014.2969" y2="1014.2969"/></g><!--class AdminInactivityService--><g class="entity" data-entity="AdminInactivityService" data-source-line="15" data-uid="ent0009" id="entity_AdminInactivityService"><rect fill="#F1F1F1" height="80.5938" rx="2.5" ry="2.5" style="stroke:#181818;stroke-width:0.5;" width="291.043" x="348.9022" y="78.9969"/><ellipse cx="409.5677" cy="94.9969" fill="#ADD1B2" rx="11" ry="11" style="stroke:#181818;stroke-width:1;"/><path d="M412.5365,100.6375 Q411.9584,100.9344 411.3177,101.075 Q410.6771,101.2313 409.974,101.2313 Q407.474,101.2313 406.1459,99.5906 Q404.8334,97.9344 404.8334,94.8094 Q404.8334,91.6844 406.1459,90.0281 Q407.474,88.3719 409.974,88.3719 Q410.6771,88.3719 411.3177,88.5281 Q411.974,88.6844 412.5365,88.9813 L412.5365,91.7 Q411.9115,91.1219 411.3177,90.8563 Q410.724,90.575 410.099,90.575 Q408.7552,90.575 408.0677,91.6531 Q407.3802,92.7156 407.3802,94.8094 Q407.3802,96.9031 408.0677,97.9813 Q408.7552,99.0438 410.099,99.0438 Q410.724,99.0438 411.3177,98.7781 Q411.9115,98.4969 412.5365,97.9188 L412.5365,100.6375 Z " fill="#000000"/><text fill="#000000" font-family="sans-serif" font-size="14" lengthAdjust="spacing" textLength="161.2119" x="430.0677" y="99.8436">AdminInactivityService</text><line style="stroke:#181818;stroke-width:0.5;" x1="349.9022" x2="638.9452" y1="110.9969" y2="110.9969"/><rect fill="none" height="6" style="stroke:#C82930;stroke-width:1;" width="6" x="356.9022" y="121.6453"/><text fill="#000000" font-family="sans-serif" font-size="14" lengthAdjust="spacing" textLength="265.043" x="368.9022" y="127.992">_scopeFactory : IServiceScopeFactory</text><line style="stroke:#181818;stroke-width:0.5;" x1="349.9022" x2="638.9452" y1="135.2938" y2="135.2938"/><polygon fill="#FFFF44" points="359.9022,143.9422,363.9022,147.9422,359.9022,151.9422,355.9022,147.9422" style="stroke:#B38D22;stroke-width:1;"/><text fill="#000000" font-family="sans-serif" font-size="14" lengthAdjust="spacing" textLength="258.6992" x="368.9022" y="152.2889">ExecuteAsync(stoppingToken) : Task</text></g><!--class DailyTasksService--><g class="entity" data-entity="DailyTasksService" data-source-line="19" data-uid="ent0010" id="entity_DailyTasksService"><rect fill="#F1F1F1" height="80.5938" rx="2.5" ry="2.5" style="stroke:#181818;stroke-width:0.5;" width="291.043" x="348.9022" y="194.9969"/><ellipse cx="426.6781" cy="210.9969" fill="#ADD1B2" rx="11" ry="11" style="stroke:#181818;stroke-width:1;"/><path d="M429.6468,216.6375 Q429.0687,216.9344 428.4281,217.075 Q427.7875,217.2313 427.0843,217.2313 Q424.5843,217.2313 423.2562,215.5906 Q421.9437,213.9344 421.9437,210.8094 Q421.9437,207.6844 423.2562,206.0281 Q424.5843,204.3719 427.0843,204.3719 Q427.7875,204.3719 428.4281,204.5281 Q429.0843,204.6844 429.6468,204.9813 L429.6468,207.7 Q429.0218,207.1219 428.4281,206.8563 Q427.8343,206.575 427.2093,206.575 Q425.8656,206.575 425.1781,207.6531 Q424.4906,208.7156 424.4906,210.8094 Q424.4906,212.9031 425.1781,213.9813 Q425.8656,215.0438 427.2093,215.0438 Q427.8343,215.0438 428.4281,214.7781 Q429.0218,214.4969 429.6468,213.9188 L429.6468,216.6375 Z " fill="#000000"/><text fill="#000000" font-family="sans-serif" font-size="14" lengthAdjust="spacing" textLength="126.9912" x="447.1781" y="215.8436">DailyTasksService</text><line style="stroke:#181818;stroke-width:0.5;" x1="349.9022" x2="638.9452" y1="226.9969" y2="226.9969"/><rect fill="none" height="6" style="stroke:#C82930;stroke-width:1;" width="6" x="356.9022" y="237.6453"/><text fill="#000000" font-family="sans-serif" font-size="14" lengthAdjust="spacing" textLength="265.043" x="368.9022" y="243.992">_scopeFactory : IServiceScopeFactory</text><line style="stroke:#181818;stroke-width:0.5;" x1="349.9022" x2="638.9452" y1="251.2938" y2="251.2938"/><polygon fill="#FFFF44" points="359.9022,259.9422,363.9022,263.9422,359.9022,267.9422,355.9022,263.9422" style="stroke:#B38D22;stroke-width:1;"/><text fill="#000000" font-family="sans-serif" font-size="14" lengthAdjust="spacing" textLength="258.6992" x="368.9022" y="268.2889">ExecuteAsync(stoppingToken) : Task</text></g><!--class DeviceInactivityService--><g class="entity" data-entity="DeviceInactivityService" data-source-line="23" data-uid="ent0011" id="entity_DeviceInactivityService"><rect fill="#F1F1F1" height="80.5938" rx="2.5" ry="2.5" style="stroke:#181818;stroke-width:0.5;" width="291.043" x="348.9022" y="310.9969"/><ellipse cx="408.0604" cy="326.9969" fill="#ADD1B2" rx="11" ry="11" style="stroke:#181818;stroke-width:1;"/><path d="M411.0292,332.6375 Q410.451,332.9344 409.8104,333.075 Q409.1698,333.2313 408.4667,333.2313 Q405.9667,333.2313 404.6385,331.5906 Q403.326,329.9344 403.326,326.8094 Q403.326,323.6844 404.6385,322.0281 Q405.9667,320.3719 408.4667,320.3719 Q409.1698,320.3719 409.8104,320.5281 Q410.4667,320.6844 411.0292,320.9813 L411.0292,323.7 Q410.4042,323.1219 409.8104,322.8563 Q409.2167,322.575 408.5917,322.575 Q407.2479,322.575 406.5604,323.6531 Q405.8729,324.7156 405.8729,326.8094 Q405.8729,328.9031 406.5604,329.9813 Q407.2479,331.0438 408.5917,331.0438 Q409.2167,331.0438 409.8104,330.7781 Q410.4042,330.4969 411.0292,329.9188 L411.0292,332.6375 Z " fill="#000000"/><text fill="#000000" font-family="sans-serif" font-size="14" lengthAdjust="spacing" textLength="164.2266" x="428.5604" y="331.8436">DeviceInactivityService</text><line style="stroke:#181818;stroke-width:0.5;" x1="349.9022" x2="638.9452" y1="342.9969" y2="342.9969"/><rect fill="none" height="6" style="stroke:#C82930;stroke-width:1;" width="6" x="356.9022" y="353.6453"/><text fill="#000000" font-family="sans-serif" font-size="14" lengthAdjust="spacing" textLength="265.043" x="368.9022" y="359.992">_scopeFactory : IServiceScopeFactory</text><line style="stroke:#181818;stroke-width:0.5;" x1="349.9022" x2="638.9452" y1="367.2938" y2="367.2938"/><polygon fill="#FFFF44" points="359.9022,375.9422,363.9022,379.9422,359.9022,383.9422,355.9022,379.9422" style="stroke:#B38D22;stroke-width:1;"/><text fill="#000000" font-family="sans-serif" font-size="14" lengthAdjust="spacing" textLength="258.6992" x="368.9022" y="384.2889">ExecuteAsync(stoppingToken) : Task</text></g><!--class WaterStressAnalysisService--><g class="entity" data-entity="WaterStressAnalysisService" data-source-line="27" data-uid="ent0012" id="entity_WaterStressAnalysisService"><rect fill="#F1F1F1" height="80.5938" rx="2.5" ry="2.5" style="stroke:#181818;stroke-width:0.5;" width="291.043" x="348.9022" y="426.9969"/><ellipse cx="392.7053" cy="442.9969" fill="#ADD1B2" rx="11" ry="11" style="stroke:#181818;stroke-width:1;"/><path d="M395.674,448.6375 Q395.0959,448.9344 394.4553,449.075 Q393.8147,449.2313 393.1115,449.2313 Q390.6115,449.2313 389.2834,447.5906 Q387.9709,445.9344 387.9709,442.8094 Q387.9709,439.6844 389.2834,438.0281 Q390.6115,436.3719 393.1115,436.3719 Q393.8147,436.3719 394.4553,436.5281 Q395.1115,436.6844 395.674,436.9813 L395.674,439.7 Q395.049,439.1219 394.4553,438.8563 Q393.8615,438.575 393.2365,438.575 Q391.8928,438.575 391.2053,439.6531 Q390.5178,440.7156 390.5178,442.8094 Q390.5178,444.9031 391.2053,445.9813 Q391.8928,447.0438 393.2365,447.0438 Q393.8615,447.0438 394.4553,446.7781 Q395.049,446.4969 395.674,445.9188 L395.674,448.6375 Z " fill="#000000"/><text fill="#000000" font-family="sans-serif" font-size="14" lengthAdjust="spacing" textLength="195.0361" x="413.106" y="447.8436">WaterStressAnalysisService</text><line style="stroke:#181818;stroke-width:0.5;" x1="349.9022" x2="638.9452" y1="458.9969" y2="458.9969"/><rect fill="none" height="6" style="stroke:#C82930;stroke-width:1;" width="6" x="356.9022" y="469.6453"/><text fill="#000000" font-family="sans-serif" font-size="14" lengthAdjust="spacing" textLength="265.043" x="368.9022" y="475.992">_scopeFactory : IServiceScopeFactory</text><line style="stroke:#181818;stroke-width:0.5;" x1="349.9022" x2="638.9452" y1="483.2938" y2="483.2938"/><polygon fill="#FFFF44" points="359.9022,491.9422,363.9022,495.9422,359.9022,499.9422,355.9022,495.9422" style="stroke:#B38D22;stroke-width:1;"/><text fill="#000000" font-family="sans-serif" font-size="14" lengthAdjust="spacing" textLength="258.6992" x="368.9022" y="500.2889">ExecuteAsync(stoppingToken) : Task</text></g><!--class BrevoEmailService--><g class="entity" data-entity="BrevoEmailService" data-source-line="35" data-uid="ent0014" id="entity_BrevoEmailService"><rect fill="#F1F1F1" height="96.8906" rx="2.5" ry="2.5" style="stroke:#181818;stroke-width:0.5;" width="394.0127" x="297.4222" y="713.8469"/><ellipse cx="424.4749" cy="729.8469" fill="#ADD1B2" rx="11" ry="11" style="stroke:#181818;stroke-width:1;"/><path d="M427.4437,735.4875 Q426.8656,735.7844 426.2249,735.925 Q425.5843,736.0813 424.8812,736.0813 Q422.3812,736.0813 421.0531,734.4406 Q419.7406,732.7844 419.7406,729.6594 Q419.7406,726.5344 421.0531,724.8781 Q422.3812,723.2219 424.8812,723.2219 Q425.5843,723.2219 426.2249,723.3781 Q426.8812,723.5344 427.4437,723.8313 L427.4437,726.55 Q426.8187,725.9719 426.2249,725.7063 Q425.6312,725.425 425.0062,725.425 Q423.6624,725.425 422.9749,726.5031 Q422.2874,727.5656 422.2874,729.6594 Q422.2874,731.7531 422.9749,732.8313 Q423.6624,733.8938 425.0062,733.8938 Q425.6312,733.8938 426.2249,733.6281 Q426.8187,733.3469 427.4437,732.7688 L427.4437,735.4875 Z " fill="#000000"/><text fill="#000000" font-family="sans-serif" font-size="14" lengthAdjust="spacing" textLength="131.4072" x="444.9749" y="734.6936">BrevoEmailService</text><line style="stroke:#181818;stroke-width:0.5;" x1="298.4222" x2="690.4349" y1="745.8469" y2="745.8469"/><rect fill="none" height="6" style="stroke:#C82930;stroke-width:1;" width="6" x="305.4222" y="756.4953"/><text fill="#000000" font-family="sans-serif" font-size="14" lengthAdjust="spacing" textLength="216.3916" x="317.4222" y="762.842">_brevoSettings : BrevoSettings</text><line style="stroke:#181818;stroke-width:0.5;" x1="298.4222" x2="690.4349" y1="770.1438" y2="770.1438"/><ellipse cx="308.4222" cy="783.7922" fill="#84BE84" rx="3" ry="3" style="stroke:#038048;stroke-width:1;"/><text fill="#000000" font-family="sans-serif" font-size="14" lengthAdjust="spacing" textLength="253.5996" x="317.4222" y="787.1389">SendEmailAsync(...) : Task&lt;Result&gt;</text><ellipse cx="308.4222" cy="800.0891" fill="#84BE84" rx="3" ry="3" style="stroke:#038048;stroke-width:1;"/><text fill="#000000" font-family="sans-serif" font-size="14" lengthAdjust="spacing" textLength="368.0127" x="317.4222" y="803.4357">SendEmailWithAttachmentAsync(...) : Task&lt;Result&gt;</text></g><!--class MinioStorageService--><g class="entity" data-entity="MinioStorageService" data-source-line="40" data-uid="ent0015" id="entity_MinioStorageService"><rect fill="#F1F1F1" height="96.8906" rx="2.5" ry="2.5" style="stroke:#181818;stroke-width:0.5;" width="342.6475" x="323.1022" y="845.8469"/><ellipse cx="418.2687" cy="861.8469" fill="#ADD1B2" rx="11" ry="11" style="stroke:#181818;stroke-width:1;"/><path d="M421.2375,867.4875 Q420.6593,867.7844 420.0187,867.925 Q419.3781,868.0813 418.675,868.0813 Q416.175,868.0813 414.8468,866.4406 Q413.5343,864.7844 413.5343,861.6594 Q413.5343,858.5344 414.8468,856.8781 Q416.175,855.2219 418.675,855.2219 Q419.3781,855.2219 420.0187,855.3781 Q420.675,855.5344 421.2375,855.8313 L421.2375,858.55 Q420.6125,857.9719 420.0187,857.7063 Q419.425,857.425 418.8,857.425 Q417.4562,857.425 416.7687,858.5031 Q416.0812,859.5656 416.0812,861.6594 Q416.0812,863.7531 416.7687,864.8313 Q417.4562,865.8938 418.8,865.8938 Q419.425,865.8938 420.0187,865.6281 Q420.6125,865.3469 421.2375,864.7688 L421.2375,867.4875 Z " fill="#000000"/><text fill="#000000" font-family="sans-serif" font-size="14" lengthAdjust="spacing" textLength="143.8145" x="438.7687" y="866.6936">MinioStorageService</text><line style="stroke:#181818;stroke-width:0.5;" x1="324.1022" x2="664.7497" y1="877.8469" y2="877.8469"/><rect fill="none" height="6" style="stroke:#C82930;stroke-width:1;" width="6" x="331.1022" y="888.4953"/><text fill="#000000" font-family="sans-serif" font-size="14" lengthAdjust="spacing" textLength="181.959" x="343.1022" y="894.842">_minioClient : IMinioClient</text><rect fill="none" height="6" style="stroke:#C82930;stroke-width:1;" width="6" x="331.1022" y="904.7922"/><text fill="#000000" font-family="sans-serif" font-size="14" lengthAdjust="spacing" textLength="171.165" x="343.1022" y="911.1389">_settings : MinioSettings</text><line style="stroke:#181818;stroke-width:0.5;" x1="324.1022" x2="664.7497" y1="918.4406" y2="918.4406"/><ellipse cx="334.1022" cy="932.0891" fill="#84BE84" rx="3" ry="3" style="stroke:#038048;stroke-width:1;"/><text fill="#000000" font-family="sans-serif" font-size="14" lengthAdjust="spacing" textLength="316.6475" x="343.1022" y="935.4357">UploadFileAsync(...) : Task&lt;Result&lt;string&gt;&gt;</text></g><!--class TurnstileService--><g class="entity" data-entity="TurnstileService" data-source-line="45" data-uid="ent0016" id="entity_TurnstileService"><rect fill="#F1F1F1" height="96.8906" rx="2.5" ry="2.5" style="stroke:#181818;stroke-width:0.5;" width="265.0459" x="361.9022" y="977.8469"/><ellipse cx="433.6898" cy="993.8469" fill="#ADD1B2" rx="11" ry="11" style="stroke:#181818;stroke-width:1;"/><path d="M436.6586,999.4875 Q436.0804,999.7844 435.4398,999.925 Q434.7992,1000.0813 434.0961,1000.0813 Q431.5961,1000.0813 430.2679,998.4406 Q428.9554,996.7844 428.9554,993.6594 Q428.9554,990.5344 430.2679,988.8781 Q431.5961,987.2219 434.0961,987.2219 Q434.7992,987.2219 435.4398,987.3781 Q436.0961,987.5344 436.6586,987.8313 L436.6586,990.55 Q436.0336,989.9719 435.4398,989.7063 Q434.8461,989.425 434.2211,989.425 Q432.8773,989.425 432.1898,990.5031 Q431.5023,991.5656 431.5023,993.6594 Q431.5023,995.7531 432.1898,996.8313 Q432.8773,997.8938 434.2211,997.8938 Q434.8461,997.8938 435.4398,997.6281 Q436.0336,997.3469 436.6586,996.7688 L436.6586,999.4875 Z " fill="#000000"/><text fill="#000000" font-family="sans-serif" font-size="14" lengthAdjust="spacing" textLength="112.9707" x="454.1898" y="998.6936">TurnstileService</text><line style="stroke:#181818;stroke-width:0.5;" x1="362.9022" x2="625.9481" y1="1009.8469" y2="1009.8469"/><rect fill="none" height="6" style="stroke:#C82930;stroke-width:1;" width="6" x="369.9022" y="1020.4953"/><text fill="#000000" font-family="sans-serif" font-size="14" lengthAdjust="spacing" textLength="160.8086" x="381.9022" y="1026.842">_httpClient : HttpClient</text><rect fill="none" height="6" style="stroke:#C82930;stroke-width:1;" width="6" x="369.9022" y="1036.7922"/><text fill="#000000" font-family="sans-serif" font-size="14" lengthAdjust="spacing" textLength="195.0977" x="381.9022" y="1043.1389">_settings : TurnstileSettings</text><line style="stroke:#181818;stroke-width:0.5;" x1="362.9022" x2="625.9481" y1="1050.4406" y2="1050.4406"/><ellipse cx="372.9022" cy="1064.0891" fill="#84BE84" rx="3" ry="3" style="stroke:#038048;stroke-width:1;"/><text fill="#000000" font-family="sans-serif" font-size="14" lengthAdjust="spacing" textLength="239.0459" x="381.9022" y="1067.4357">IsTokenValid(token) : Task&lt;bool&gt;</text></g><!--class RazorViewToStringRenderer--><g class="entity" data-entity="RazorViewToStringRenderer" data-source-line="50" data-uid="ent0017" id="entity_RazorViewToStringRenderer"><rect fill="#F1F1F1" height="96.8906" rx="2.5" ry="2.5" style="stroke:#181818;stroke-width:0.5;" width="418.7451" x="285.0522" y="581.8469"/><ellipse cx="391.5527" cy="597.8469" fill="#ADD1B2" rx="11" ry="11" style="stroke:#181818;stroke-width:1;"/><path d="M394.5215,603.4875 Q393.9433,603.7844 393.3027,603.925 Q392.6621,604.0813 391.959,604.0813 Q389.459,604.0813 388.1308,602.4406 Q386.8183,600.7844 386.8183,597.6594 Q386.8183,594.5344 388.1308,592.8781 Q389.459,591.2219 391.959,591.2219 Q392.6621,591.2219 393.3027,591.3781 Q393.959,591.5344 394.5215,591.8313 L394.5215,594.55 Q393.8965,593.9719 393.3027,593.7063 Q392.709,593.425 392.084,593.425 Q390.7402,593.425 390.0527,594.5031 Q389.3652,595.5656 389.3652,597.6594 Q389.3652,599.7531 390.0527,600.8313 Q390.7402,601.8938 392.084,601.8938 Q392.709,601.8938 393.3027,601.6281 Q393.8965,601.3469 394.5215,600.7688 L394.5215,603.4875 Z " fill="#000000"/><text fill="#000000" font-family="sans-serif" font-size="14" lengthAdjust="spacing" textLength="197.2441" x="412.0527" y="602.6936">RazorViewToStringRenderer</text><line style="stroke:#181818;stroke-width:0.5;" x1="286.0522" x2="702.7973" y1="613.8469" y2="613.8469"/><rect fill="none" height="6" style="stroke:#C82930;stroke-width:1;" width="6" x="293.0522" y="624.4953"/><text fill="#000000" font-family="sans-serif" font-size="14" lengthAdjust="spacing" textLength="226.4541" x="305.0522" y="630.842">_viewEngine : IRazorViewEngine</text><rect fill="none" height="6" style="stroke:#C82930;stroke-width:1;" width="6" x="293.0522" y="640.7922"/><text fill="#000000" font-family="sans-serif" font-size="14" lengthAdjust="spacing" textLength="243.0244" x="305.0522" y="647.1389">_serviceProvider : IServiceProvider</text><line style="stroke:#181818;stroke-width:0.5;" x1="286.0522" x2="702.7973" y1="654.4406" y2="654.4406"/><ellipse cx="296.0522" cy="668.0891" fill="#84BE84" rx="3" ry="3" style="stroke:#038048;stroke-width:1;"/><text fill="#000000" font-family="sans-serif" font-size="14" lengthAdjust="spacing" textLength="392.7451" x="305.0522" y="671.4357">RenderViewToStringAsync&lt;TModel&gt;(...) : Task&lt;string&gt;</text></g><!--class PlantReportDocument--><g class="entity" data-entity="PlantReportDocument" data-source-line="59" data-uid="ent0019" id="entity_PlantReportDocument"><rect fill="#F1F1F1" height="80.5938" rx="2.5" ry="2.5" style="stroke:#181818;stroke-width:0.5;" width="214.5557" x="387.1522" y="1150.9969"/><ellipse cx="414.6239" cy="1166.9969" fill="#ADD1B2" rx="11" ry="11" style="stroke:#181818;stroke-width:1;"/><path d="M417.5926,1172.6375 Q417.0145,1172.9344 416.3739,1173.075 Q415.7333,1173.2313 415.0301,1173.2313 Q412.5301,1173.2313 411.202,1171.5906 Q409.8895,1169.9344 409.8895,1166.8094 Q409.8895,1163.6844 411.202,1162.0281 Q412.5301,1160.3719 415.0301,1160.3719 Q415.7333,1160.3719 416.3739,1160.5281 Q417.0301,1160.6844 417.5926,1160.9813 L417.5926,1163.7 Q416.9676,1163.1219 416.3739,1162.8563 Q415.7801,1162.575 415.1551,1162.575 Q413.8114,1162.575 413.1239,1163.6531 Q412.4364,1164.7156 412.4364,1166.8094 Q412.4364,1168.9031 413.1239,1169.9813 Q413.8114,1171.0438 415.1551,1171.0438 Q415.7801,1171.0438 416.3739,1170.7781 Q416.9676,1170.4969 417.5926,1169.9188 L417.5926,1172.6375 Z " fill="#000000"/><text fill="#000000" font-family="sans-serif" font-size="14" lengthAdjust="spacing" textLength="154.8408" x="431.3954" y="1171.8436">PlantReportDocument</text><line style="stroke:#181818;stroke-width:0.5;" x1="388.1522" x2="600.7079" y1="1182.9969" y2="1182.9969"/><rect fill="none" height="6" style="stroke:#C82930;stroke-width:1;" width="6" x="395.1522" y="1193.6453"/><text fill="#000000" font-family="sans-serif" font-size="14" lengthAdjust="spacing" textLength="188.5557" x="407.1522" y="1199.992">_model : PlantReportModel</text><line style="stroke:#181818;stroke-width:0.5;" x1="388.1522" x2="600.7079" y1="1207.2938" y2="1207.2938"/><ellipse cx="398.1522" cy="1220.9422" fill="#84BE84" rx="3" ry="3" style="stroke:#038048;stroke-width:1;"/><text fill="#000000" font-family="sans-serif" font-size="14" lengthAdjust="spacing" textLength="185.8418" x="407.1522" y="1224.2889">Compose(container) : void</text></g><!--class GraphGenerator--><g class="entity" data-entity="GraphGenerator" data-source-line="63" data-uid="ent0020" id="entity_GraphGenerator"><rect fill="#F1F1F1" height="88.8594" rx="2.5" ry="2.5" style="stroke:#181818;stroke-width:0.5;" width="287.2285" x="789.8022" y="1148.8669"/><ellipse cx="872.1479" cy="1168.9997" fill="#ADD1B2" rx="11" ry="11" style="stroke:#181818;stroke-width:1;"/><path d="M875.1167,1174.6403 Q874.5385,1174.9372 873.8979,1175.0778 Q873.2573,1175.2341 872.5542,1175.2341 Q870.0542,1175.2341 868.726,1173.5934 Q867.4135,1171.9372 867.4135,1168.8122 Q867.4135,1165.6872 868.726,1164.0309 Q870.0542,1162.3747 872.5542,1162.3747 Q873.2573,1162.3747 873.8979,1162.5309 Q874.5542,1162.6872 875.1167,1162.9841 L875.1167,1165.7028 Q874.4917,1165.1247 873.8979,1164.8591 Q873.3042,1164.5778 872.6792,1164.5778 Q871.3354,1164.5778 870.6479,1165.6559 Q869.9604,1166.7184 869.9604,1168.8122 Q869.9604,1170.9059 870.6479,1171.9841 Q871.3354,1173.0466 872.6792,1173.0466 Q873.3042,1173.0466 873.8979,1172.7809 Q874.4917,1172.4997 875.1167,1171.9216 L875.1167,1174.6403 Z " fill="#000000"/><text fill="#000000" font-family="sans-serif" font-size="12" font-style="italic" lengthAdjust="spacing" textLength="47.6309" x="925.851" y="1165.0055">«static»</text><text fill="#000000" font-family="sans-serif" font-size="14" lengthAdjust="spacing" textLength="114.0371" x="892.6479" y="1180.8307">GraphGenerator</text><line style="stroke:#181818;stroke-width:0.5;" x1="790.8022" x2="1076.0307" y1="1189.1325" y2="1189.1325"/><line style="stroke:#181818;stroke-width:0.5;" x1="790.8022" x2="1076.0307" y1="1197.1325" y2="1197.1325"/><ellipse cx="800.8022" cy="1210.7809" fill="#84BE84" rx="3" ry="3" style="stroke:#038048;stroke-width:1;"/><text fill="#000000" font-family="sans-serif" font-size="14" lengthAdjust="spacing" text-decoration="underline" textLength="202.2686" x="809.8022" y="1214.1276">CreateCwsiGraph(...) : byte[]</text><ellipse cx="800.8022" cy="1227.0778" fill="#84BE84" rx="3" ry="3" style="stroke:#038048;stroke-width:1;"/><text fill="#000000" font-family="sans-serif" font-size="14" lengthAdjust="spacing" text-decoration="underline" textLength="261.2285" x="809.8022" y="1230.4245">CreateTemperatureGraph(...) : byte[]</text></g><!--reverse link BackgroundService to AdminInactivityService--><g class="link" data-entity-1="BackgroundService" data-entity-2="AdminInactivityService" data-source-line="73" data-uid="lnk21" id="link_BackgroundService_AdminInactivityService"><path codeLine="73" d="M135.9143,624.086 C148.2543,534.716 192.6722,244.5369 261.0522,177.2969 C284.7722,153.9769 316.3622,139.5669 348.5822,130.7769" fill="none" id="BackgroundService-backto-AdminInactivityService" style="stroke:#181818;stroke-width:1;"/><polygon fill="none" points="133.4522,641.9169,141.8579,624.9067,129.9706,623.2654,133.4522,641.9169" style="stroke:#181818;stroke-width:1;"/></g><!--reverse link BackgroundService to DailyTasksService--><g class="link" data-entity-1="BackgroundService" data-entity-2="DailyTasksService" data-source-line="74" data-uid="lnk22" id="link_BackgroundService_DailyTasksService"><path codeLine="74" d="M132.2333,624.0488 C136.1933,557.6188 155.5522,389.4369 261.0522,293.2969 C285.3322,271.1669 316.7622,257.1769 348.6022,248.4069" fill="none" id="BackgroundService-backto-DailyTasksService" style="stroke:#181818;stroke-width:1;"/><polygon fill="none" points="131.1622,642.0169,138.2227,624.4058,126.244,623.6917,131.1622,642.0169" style="stroke:#181818;stroke-width:1;"/></g><!--reverse link BackgroundService to DeviceInactivityService--><g class="link" data-entity-1="BackgroundService" data-entity-2="DeviceInactivityService" data-source-line="75" data-uid="lnk23" id="link_BackgroundService_DeviceInactivityService"><path codeLine="75" d="M139.6767,624.3148 C152.0267,572.9048 183.6822,470.8769 261.0522,409.2969 C286.1822,389.2969 317.3122,376.0769 348.5222,367.3869" fill="none" id="BackgroundService-backto-DeviceInactivityService" style="stroke:#181818;stroke-width:1;"/><polygon fill="none" points="135.4722,641.8169,145.5107,625.7163,133.8426,622.9133,135.4722,641.8169" style="stroke:#181818;stroke-width:1;"/></g><!--reverse link BackgroundService to WaterStressAnalysisService--><g class="link" data-entity-1="BackgroundService" data-entity-2="WaterStressAnalysisService" data-source-line="76" data-uid="lnk24" id="link_BackgroundService_WaterStressAnalysisService"><path codeLine="76" d="M171.5693,630.21 C197.0993,608.48 223.0122,588.4669 261.0522,566.2969 C299.0322,544.1569 342.9022,524.1769 382.2222,508.0569" fill="none" id="BackgroundService-backto-WaterStressAnalysisService" style="stroke:#181818;stroke-width:1;"/><polygon fill="none" points="157.8622,641.8769,175.4583,634.779,167.6803,625.641,157.8622,641.8769" style="stroke:#181818;stroke-width:1;"/></g><!--reverse link IEmailService to BrevoEmailService--><g class="link" data-entity-1="IEmailService" data-entity-2="BrevoEmailService" data-source-line="78" data-uid="lnk25" id="link_IEmailService_BrevoEmailService"><path codeLine="78" d="M211.0608,752.1885 C240.5008,753.2385 259.3622,753.9169 297.0722,755.2669" fill="none" id="IEmailService-backto-BrevoEmailService" style="stroke:#181818;stroke-width:1;stroke-dasharray:7,7;"/><polygon fill="none" points="193.0722,751.5469,210.8469,758.1846,211.2746,746.1923,193.0722,751.5469" style="stroke:#181818;stroke-width:1;"/></g><!--reverse link IFileStorageService to MinioStorageService--><g class="link" data-entity-1="IFileStorageService" data-entity-2="MinioStorageService" data-source-line="79" data-uid="lnk26" id="link_IFileStorageService_MinioStorageService"><path codeLine="79" d="M230.836,849.473 C263.496,855.043 284.5322,858.6369 322.6822,865.1469" fill="none" id="IFileStorageService-backto-MinioStorageService" style="stroke:#181818;stroke-width:1;stroke-dasharray:7,7;"/><polygon fill="none" points="213.0922,846.4469,229.8273,855.3876,231.8447,843.5584,213.0922,846.4469" style="stroke:#181818;stroke-width:1;"/></g><!--reverse link ITurnstileService to TurnstileService--><g class="link" data-entity-1="ITurnstileService" data-entity-2="TurnstileService" data-source-line="80" data-uid="lnk27" id="link_ITurnstileService_TurnstileService"><path codeLine="80" d="M215.9206,945.57 C235.8906,952.45 240.7722,953.9369 261.0522,960.2969 C293.4722,970.4669 328.6322,980.8069 361.5622,990.1969" fill="none" id="ITurnstileService-backto-TurnstileService" style="stroke:#181818;stroke-width:1;stroke-dasharray:7,7;"/><polygon fill="none" points="198.9022,939.7069,213.9662,951.2428,217.8749,939.8972,198.9022,939.7069" style="stroke:#181818;stroke-width:1;"/></g><!--reverse link IDocument to PlantReportDocument--><g class="link" data-entity-1="IDocument" data-entity-2="PlantReportDocument" data-source-line="81" data-uid="lnk28" id="link_IDocument_PlantReportDocument"><path codeLine="81" d="M175.3332,1033.5977 C201.1332,1053.3177 225.0922,1070.1169 261.0522,1090.2969 C301.0422,1112.7369 347.0022,1133.6569 387.4322,1150.5669" fill="none" id="IDocument-backto-PlantReportDocument" style="stroke:#181818;stroke-width:1;stroke-dasharray:7,7;"/><polygon fill="none" points="161.0322,1022.6669,171.6896,1038.3647,178.9768,1028.8307,161.0322,1022.6669" style="stroke:#181818;stroke-width:1;"/></g><!--link PlantReportDocument to GraphGenerator--><g class="link" data-entity-1="PlantReportDocument" data-entity-2="GraphGenerator" data-source-line="84" data-uid="lnk29" id="link_PlantReportDocument_GraphGenerator"><path codeLine="84" d="M602.0422,1191.7869 C658.3922,1192.0469 722.3223,1192.3393 783.3223,1192.6193" fill="none" id="PlantReportDocument-to-GraphGenerator" style="stroke:#181818;stroke-width:1;stroke-dasharray:7,7;"/><polygon fill="#181818" points="789.3222,1192.6469,780.3407,1188.6056,784.3223,1192.6239,780.3039,1196.6055,789.3222,1192.6469" style="stroke:#181818;stroke-width:1;"/><text fill="#000000" font-family="sans-serif" font-size="13" lengthAdjust="spacing" textLength="22.9785" x="736.8022" y="1189.3638">usa</text></g><!--SRC=[nLPHRzem47xFhx2wXr5DfEy88T40RQHrOq3RXscQZ7CD5iRER8UMTVrL-mdxOpid41AIL7jQUIBsTtVVVRuxMy239LOHpUEL9H7Nm2nNqhFS2Y0ZJcDDDvH4G0913PWUcOFUSiQLSOkXVD0KZDKfiwccP4SML0Cr12G2urH6Yam5bShptfDkjxltSX5A2_g1CZ3a4XT8Pu9Xu57fDRaW0KsoYCD4S4OP__DRdZjZBw5iJMCWPyCbXgGCMKWmPwJV3uHAey60F7i4VpJVjeHXD1U1hMEja4pE7J8GFr0WuNX3kMZPct01Swiqncr1B58jZNMmnlspBoaAD1rD_72aMBe1QSy8AbHyUIy7SQRqHmeMNEujCbPbQ0DrZXdlZmlCkPCfKxcGALTd66su32NAnRVSxlRuFSJzkkIxOIg12KAKtf4U2VUWUMcvWByZuoTWgOMXsKdMCLOb2PVnGgq1Zx67cPbr1dufaHZX0UpSZdcZ-E3ylRKAznIBPcur63EKLEmC_wzoDDLXk4a4k2gbUREvjUC463yXOOb_AcNvRpPjzNYfOQlA7LdDVUcsvs0j9c6G_sNvkm1-m80oohpaUVk-VyYsFmEJ2Zje0jzpknfQ9Bvo_5ytBP_S3PTSLST4bVR60GB1qQixiPlZP-LWZtdb7kjvtIP2qSXDfJPsVHn-Q3IeipoTL5MAAskJWk5ryT72h-IhnZ4qMNdTKS6ZZYrNMd-fb2WJspERqPzAtt5uNA2AZlqCJmGqw2h5BIB6CkOId8Y5KRvK9PebEDLgoz5FgKaEIoMwUQnoz4pQ_k96HI065OdtshxICLSWGUUtbliyJ7ciVBm3getoAjJrnmnlOofZSTeZRipR6IHAsuFHIRavviYv1CoIAMKTg4sY37IOmaP5-RJBSQjuL2kRAqsJLSuLAnnf6KijPmMdtDzpllf20hoKB0IFXcU61_cMEmjVlxKRB62Jk0YfXZQxJF2zuhFnns4GVluqdcUQukerrejadE8BeZo1K5olzW8W_L_ee_dgQqFNxgXMOFDbqWPld_gULtcQ8Dptw_FHQtYZvD26gUJLdYivjFQ8APud-Nv3nJdDHv2uvd6o6zJzrYYlgJPzVt1QHJsI6leN]--></g></svg>